<svg xmlns="http://www.w3.org/2000/svg" xmlns:xlink="http://www.w3.org/1999/xlink" width="500" zoomAndPan="magnify" viewBox="0 0 375 112.499997" height="150" preserveAspectRatio="xMidYMid meet" version="1.0"><defs><g/><clipPath id="3ae12282be"><path d="M 39 33 L 188 33 L 188 61.496094 L 39 61.496094 Z M 39 33 " clip-rule="nonzero"/></clipPath><clipPath id="269c4e65f7"><rect x="0" width="149" y="0" height="29"/></clipPath><clipPath id="1a74c99f86"><rect x="0" width="226" y="0" height="62"/></clipPath><clipPath id="40388148c8"><path d="M 7 12.703125 L 137.84375 12.703125 L 137.84375 99.320312 L 7 99.320312 Z M 7 12.703125 " clip-rule="nonzero"/></clipPath><clipPath id="292a37601d"><path d="M 38 29 L 91.324219 29 L 91.324219 59 L 38 59 Z M 38 29 " clip-rule="nonzero"/></clipPath><clipPath id="c6f1c4ac89"><path d="M 30.097656 25.070312 L 70 25.070312 L 70 69.871094 L 30.097656 69.871094 Z M 30.097656 25.070312 " clip-rule="nonzero"/></clipPath><clipPath id="4a878387ac"><path d="M 36.222656 25.582031 L 78.835938 25.582031 L 78.835938 69.859375 L 36.222656 69.859375 Z M 36.222656 25.582031 " clip-rule="nonzero"/></clipPath><clipPath id="5b8bac7dfe"><path d="M 60.589844 25.070312 L 100.164062 25.070312 L 100.164062 69.871094 L 60.589844 69.871094 Z M 60.589844 25.070312 " clip-rule="nonzero"/></clipPath><clipPath id="0625ab9f54"><path d="M 0.589844 4 L 40.164062 4 L 40.164062 34 L 0.589844 34 Z M 0.589844 4 " clip-rule="nonzero"/></clipPath><clipPath id="5ddf20103e"><path d="M 17 8 L 40.164062 8 L 40.164062 38 L 17 38 Z M 17 8 " clip-rule="nonzero"/></clipPath><clipPath id="3bff8c6a47"><path d="M 22 0.0703125 L 40.164062 0.0703125 L 40.164062 44.871094 L 22 44.871094 Z M 22 0.0703125 " clip-rule="nonzero"/></clipPath><clipPath id="d77e17811a"><path d="M 12.832031 0.582031 L 40.164062 0.582031 L 40.164062 44.859375 L 12.832031 44.859375 Z M 12.832031 0.582031 " clip-rule="nonzero"/></clipPath><clipPath id="3ae59af1de"><rect x="0" width="41" y="0" height="45"/></clipPath><clipPath id="3a355244cd"><path d="M 100.34375 29 L 113.035156 29 L 113.035156 59 L 100.34375 59 Z M 100.34375 29 " clip-rule="nonzero"/></clipPath><clipPath id="a8dde524b0"><path d="M 100.34375 33 L 111 33 L 111 63 L 100.34375 63 Z M 100.34375 33 " clip-rule="nonzero"/></clipPath><clipPath id="9e82f09405"><path d="M 100.34375 25.070312 L 107 25.070312 L 107 69.871094 L 100.34375 69.871094 Z M 100.34375 25.070312 " clip-rule="nonzero"/></clipPath><clipPath id="ecb8d3ea9f"><path d="M 100.34375 25.582031 L 113.035156 25.582031 L 113.035156 69.859375 L 100.34375 69.859375 Z M 100.34375 25.582031 " clip-rule="nonzero"/></clipPath></defs><g transform="matrix(1, 0, 0, 1, 138, 25)"><g clip-path="url(#1a74c99f86)"><g fill="#000000" fill-opacity="1"><g transform="translate(1.117974, 27.616381)"><g><path d="M 1.875 -19.375 L 6.9375 -19.375 L 6.9375 -11.4375 L 14.765625 -11.4375 L 14.765625 -19.375 L 19.8125 -19.375 L 19.8125 0 L 14.765625 0 L 14.765625 -7.46875 L 6.9375 -7.46875 L 6.9375 0 L 1.875 0 Z M 1.875 -19.375 "/></g></g></g><g fill="#000000" fill-opacity="1"><g transform="translate(23.368428, 27.616381)"><g><path d="M 8.1875 -19.375 L 13.375 -19.375 L 21.5 0 L 16.109375 0 L 10.640625 -14.3125 L 5.0625 0 L -0.140625 0 Z M 4.84375 -7.296875 L 16.140625 -7.296875 L 16.140625 -3.484375 L 4.84375 -3.484375 Z M 4.84375 -7.296875 "/></g></g></g><g fill="#000000" fill-opacity="1"><g transform="translate(45.2872, 27.616381)"><g><path d="M 1.875 -19.375 L 6.9375 -19.375 L 6.9375 -4.25 L 15.140625 -4.25 L 15.140625 0 L 1.875 0 Z M 1.875 -19.375 "/></g></g></g><g fill="#000000" fill-opacity="1"><g transform="translate(61.401534, 27.616381)"><g><path d="M 1.875 -19.375 L 6.9375 -19.375 L 6.9375 0 L 1.875 0 Z M 4.421875 -26.0625 C 5.179688 -26.0625 5.800781 -25.816406 6.28125 -25.328125 C 6.757812 -24.835938 7 -24.21875 7 -23.46875 C 7 -22.707031 6.757812 -22.082031 6.28125 -21.59375 C 5.800781 -21.113281 5.179688 -20.875 4.421875 -20.875 C 3.671875 -20.875 3.050781 -21.113281 2.5625 -21.59375 C 2.070312 -22.082031 1.828125 -22.707031 1.828125 -23.46875 C 1.828125 -24.21875 2.070312 -24.835938 2.5625 -25.328125 C 3.050781 -25.816406 3.671875 -26.0625 4.421875 -26.0625 Z M 4.421875 -26.0625 "/></g></g></g><g fill="#000000" fill-opacity="1"><g transform="translate(70.771655, 27.616381)"><g><path d="M 1.875 -19.375 L 6.9375 -19.375 L 6.9375 -4.25 L 15.140625 -4.25 L 15.140625 0 L 1.875 0 Z M 1.875 -19.375 "/></g></g></g><g fill="#000000" fill-opacity="1"><g transform="translate(86.885986, 27.616381)"><g/></g></g><g fill="#000000" fill-opacity="1"><g transform="translate(94.901736, 27.616381)"><g><path d="M 1.875 -19.375 L 6.9375 -19.375 L 6.9375 0 L 1.875 0 Z M 4.421875 -26.0625 C 5.179688 -26.0625 5.800781 -25.816406 6.28125 -25.328125 C 6.757812 -24.835938 7 -24.21875 7 -23.46875 C 7 -22.707031 6.757812 -22.082031 6.28125 -21.59375 C 5.800781 -21.113281 5.179688 -20.875 4.421875 -20.875 C 3.671875 -20.875 3.050781 -21.113281 2.5625 -21.59375 C 2.070312 -22.082031 1.828125 -22.707031 1.828125 -23.46875 C 1.828125 -24.21875 2.070312 -24.835938 2.5625 -25.328125 C 3.050781 -25.816406 3.671875 -26.0625 4.421875 -26.0625 Z M 4.421875 -26.0625 "/></g></g></g><g fill="#000000" fill-opacity="1"><g transform="translate(104.271863, 27.616381)"><g><path d="M 11.078125 -19.375 C 12.554688 -19.375 13.828125 -19.171875 14.890625 -18.765625 C 15.960938 -18.359375 16.789062 -17.796875 17.375 -17.078125 C 17.96875 -16.359375 18.265625 -15.492188 18.265625 -14.484375 C 18.265625 -13.472656 17.960938 -12.585938 17.359375 -11.828125 C 16.765625 -11.078125 15.960938 -10.5625 14.953125 -10.28125 C 16.171875 -10.039062 17.132812 -9.476562 17.84375 -8.59375 C 18.550781 -7.707031 18.90625 -6.640625 18.90625 -5.390625 C 18.90625 -4.285156 18.597656 -3.328125 17.984375 -2.515625 C 17.378906 -1.703125 16.519531 -1.078125 15.40625 -0.640625 C 14.289062 -0.210938 12.96875 0 11.4375 0 L 1.875 0 L 1.875 -19.375 Z M 10.8125 -11.671875 C 11.507812 -11.671875 12.0625 -11.835938 12.46875 -12.171875 C 12.875 -12.515625 13.078125 -12.988281 13.078125 -13.59375 C 13.078125 -14.207031 12.875 -14.675781 12.46875 -15 C 12.0625 -15.332031 11.507812 -15.492188 10.8125 -15.484375 L 6.9375 -15.484375 L 6.9375 -11.671875 Z M 10.8125 -3.875 C 11.695312 -3.875 12.394531 -4.0625 12.90625 -4.4375 C 13.425781 -4.8125 13.6875 -5.332031 13.6875 -6 C 13.6875 -6.625 13.425781 -7.117188 12.90625 -7.484375 C 12.394531 -7.859375 11.695312 -8.035156 10.8125 -8.015625 L 6.9375 -8.015625 L 6.9375 -3.875 Z M 10.8125 -3.875 "/></g></g></g><g fill="#000000" fill-opacity="1"><g transform="translate(124.615144, 27.616381)"><g><path d="M 10.59375 -19.375 C 13.164062 -19.375 15.148438 -18.78125 16.546875 -17.59375 C 17.953125 -16.40625 18.65625 -14.734375 18.65625 -12.578125 C 18.65625 -10.304688 17.953125 -8.539062 16.546875 -7.28125 C 15.148438 -6.019531 13.164062 -5.390625 10.59375 -5.390625 L 6.9375 -5.390625 L 6.9375 0 L 1.875 0 L 1.875 -19.375 Z M 10.59375 -9.375 C 11.632812 -9.375 12.4375 -9.628906 13 -10.140625 C 13.5625 -10.660156 13.84375 -11.425781 13.84375 -12.4375 C 13.84375 -13.414062 13.5625 -14.148438 13 -14.640625 C 12.4375 -15.140625 11.632812 -15.390625 10.59375 -15.390625 L 6.9375 -15.390625 L 6.9375 -9.375 Z M 9.703125 -7.234375 L 14.625 -7.234375 L 19.234375 0 L 13.515625 0 Z M 9.703125 -7.234375 "/></g></g></g><g fill="#000000" fill-opacity="1"><g transform="translate(145.179546, 27.616381)"><g><path d="M 8.1875 -19.375 L 13.375 -19.375 L 21.5 0 L 16.109375 0 L 10.640625 -14.3125 L 5.0625 0 L -0.140625 0 Z M 4.84375 -7.296875 L 16.140625 -7.296875 L 16.140625 -3.484375 L 4.84375 -3.484375 Z M 4.84375 -7.296875 "/></g></g></g><g fill="#000000" fill-opacity="1"><g transform="translate(167.098323, 27.616381)"><g><path d="M 1.875 -19.375 L 6.9375 -19.375 L 6.9375 -11.4375 L 14.765625 -11.4375 L 14.765625 -19.375 L 19.8125 -19.375 L 19.8125 0 L 14.765625 0 L 14.765625 -7.46875 L 6.9375 -7.46875 L 6.9375 0 L 1.875 0 Z M 1.875 -19.375 "/></g></g></g><g fill="#000000" fill-opacity="1"><g transform="translate(189.348781, 27.616381)"><g><path d="M 1.875 -19.375 L 6.9375 -19.375 L 6.9375 0 L 1.875 0 Z M 4.421875 -26.0625 C 5.179688 -26.0625 5.800781 -25.816406 6.28125 -25.328125 C 6.757812 -24.835938 7 -24.21875 7 -23.46875 C 7 -22.707031 6.757812 -22.082031 6.28125 -21.59375 C 5.800781 -21.113281 5.179688 -20.875 4.421875 -20.875 C 3.671875 -20.875 3.050781 -21.113281 2.5625 -21.59375 C 2.070312 -22.082031 1.828125 -22.707031 1.828125 -23.46875 C 1.828125 -24.21875 2.070312 -24.835938 2.5625 -25.328125 C 3.050781 -25.816406 3.671875 -26.0625 4.421875 -26.0625 Z M 4.421875 -26.0625 "/></g></g></g><g fill="#000000" fill-opacity="1"><g transform="translate(198.718895, 27.616381)"><g><path d="M 1.875 -19.375 L 7.375 -19.375 L 12.984375 -7.953125 L 18.578125 -19.375 L 24.078125 -19.375 L 24.078125 0 L 19.59375 0 L 19.5625 -12.40625 L 14.625 -1.9375 L 11.359375 -1.9375 L 6.390625 -12.40625 L 6.390625 0 L 1.875 0 Z M 1.875 -19.375 "/></g></g></g><g clip-path="url(#3ae12282be)"><g transform="matrix(1, 0, 0, 1, 39, 33)"><g clip-path="url(#269c4e65f7)"><g fill="#a6a6a6" fill-opacity="1"><g transform="translate(1.357535, 22.329472)"><g><path d="M 16.21875 -2.609375 L 16.4375 -0.125 C 16.1875 -0.03125 15.90625 0.0507812 15.59375 0.125 C 15.28125 0.195312 14.921875 0.234375 14.515625 0.234375 C 13.867188 0.234375 13.3125 0.09375 12.84375 -0.1875 C 12.375 -0.46875 11.9375 -0.945312 11.53125 -1.625 L 8.375 -6.703125 L 5.671875 -3.65625 L 5.671875 -2.5 L 7.296875 -2.5 L 7.296875 -0.046875 C 7.066406 -0.0234375 6.742188 -0.0078125 6.328125 0 C 5.910156 0 5.535156 0 5.203125 0 L 3 0 C 2.675781 0 2.304688 0 1.890625 0 C 1.472656 -0.0078125 1.144531 -0.0234375 0.90625 -0.046875 L 0.90625 -2.5 L 2.515625 -2.5 L 2.515625 -12.890625 L 0.859375 -12.890625 L 0.859375 -15.375 L 5.125 -15.375 C 5.488281 -15.375 5.859375 -15.367188 6.234375 -15.359375 C 6.617188 -15.347656 6.945312 -15.335938 7.21875 -15.328125 L 7.21875 -12.890625 L 5.671875 -12.890625 L 5.671875 -7.734375 L 11.875 -15.375 L 15.625 -15.375 L 15.625 -12.90625 L 13.5 -12.90625 L 10.4375 -9.1875 L 14.046875 -3.265625 C 14.210938 -2.972656 14.382812 -2.769531 14.5625 -2.65625 C 14.75 -2.550781 14.972656 -2.5 15.234375 -2.5 C 15.484375 -2.5 15.671875 -2.503906 15.796875 -2.515625 C 15.929688 -2.535156 16.070312 -2.566406 16.21875 -2.609375 Z M 16.21875 -2.609375 "/></g></g></g><g fill="#a6a6a6" fill-opacity="1"><g transform="translate(19.487186, 22.329472)"><g><path d="M 10.28125 -15.375 L 14.734375 -2.453125 L 16.484375 -2.453125 L 16.484375 0 L 12.40625 0 L 11.296875 -3.328125 L 5.4375 -3.328125 L 4.3125 0 L 0.28125 0 L 0.28125 -2.453125 L 2 -2.453125 L 5.640625 -12.90625 L 4.0625 -12.90625 L 4.0625 -15.375 Z M 8.375 -11.96875 L 6.265625 -5.78125 L 10.453125 -5.78125 Z M 8.375 -11.96875 "/></g></g></g><g fill="#a6a6a6" fill-opacity="1"><g transform="translate(37.441456, 22.329472)"><g><path d="M 10.9375 -2.609375 L 10.9375 -6.078125 L 13.640625 -6.078125 L 13.640625 0 L 3 0 C 2.675781 0 2.304688 0 1.890625 0 C 1.472656 -0.0078125 1.144531 -0.0234375 0.90625 -0.046875 L 0.90625 -2.5 L 2.515625 -2.5 L 2.515625 -12.890625 L 0.859375 -12.890625 L 0.859375 -15.375 L 5.671875 -15.375 L 5.671875 -2.609375 Z M 10.9375 -2.609375 "/></g></g></g><g fill="#a6a6a6" fill-opacity="1"><g transform="translate(53.093908, 22.329472)"><g><path d="M 10.28125 -15.375 L 14.734375 -2.453125 L 16.484375 -2.453125 L 16.484375 0 L 12.40625 0 L 11.296875 -3.328125 L 5.4375 -3.328125 L 4.3125 0 L 0.28125 0 L 0.28125 -2.453125 L 2 -2.453125 L 5.640625 -12.90625 L 4.0625 -12.90625 L 4.0625 -15.375 Z M 8.375 -11.96875 L 6.265625 -5.78125 L 10.453125 -5.78125 Z M 8.375 -11.96875 "/></g></g></g><g fill="#a6a6a6" fill-opacity="1"><g transform="translate(70.368582, 22.329472)"><g><path d="M 11.359375 -8.015625 C 12.347656 -7.785156 13.132812 -7.332031 13.71875 -6.65625 C 14.300781 -5.988281 14.59375 -5.164062 14.59375 -4.1875 C 14.59375 -2.882812 14.097656 -1.859375 13.109375 -1.109375 C 12.117188 -0.367188 10.765625 0 9.046875 0 L 2.328125 0 L 2.328125 -12.890625 L 0.671875 -12.890625 L 0.671875 -15.375 L 8.765625 -15.375 C 10.378906 -15.375 11.640625 -15.03125 12.546875 -14.34375 C 13.453125 -13.65625 13.90625 -12.710938 13.90625 -11.515625 C 13.90625 -10.660156 13.679688 -9.929688 13.234375 -9.328125 C 12.785156 -8.734375 12.160156 -8.296875 11.359375 -8.015625 Z M 8.328125 -12.890625 L 5.5 -12.890625 L 5.5 -9.03125 L 8.4375 -9.03125 C 9.164062 -9.03125 9.726562 -9.191406 10.125 -9.515625 C 10.53125 -9.847656 10.734375 -10.328125 10.734375 -10.953125 C 10.734375 -11.597656 10.519531 -12.082031 10.09375 -12.40625 C 9.664062 -12.726562 9.078125 -12.890625 8.328125 -12.890625 Z M 5.5 -2.484375 L 8.765625 -2.484375 C 9.585938 -2.484375 10.234375 -2.648438 10.703125 -2.984375 C 11.179688 -3.316406 11.421875 -3.832031 11.421875 -4.53125 C 11.421875 -5.21875 11.179688 -5.738281 10.703125 -6.09375 C 10.234375 -6.445312 9.597656 -6.625 8.796875 -6.625 L 5.5 -6.625 Z M 5.5 -2.484375 "/></g></g></g><g fill="#a6a6a6" fill-opacity="1"><g transform="translate(86.393702, 22.329472)"><g><path d="M 10.28125 -15.375 L 14.734375 -2.453125 L 16.484375 -2.453125 L 16.484375 0 L 12.40625 0 L 11.296875 -3.328125 L 5.4375 -3.328125 L 4.3125 0 L 0.28125 0 L 0.28125 -2.453125 L 2 -2.453125 L 5.640625 -12.90625 L 4.0625 -12.90625 L 4.0625 -15.375 Z M 8.375 -11.96875 L 6.265625 -5.78125 L 10.453125 -5.78125 Z M 8.375 -11.96875 "/></g></g></g><g fill="#a6a6a6" fill-opacity="1"><g transform="translate(104.347973, 22.329472)"><g><path d="M 10.9375 -2.609375 L 10.9375 -6.078125 L 13.640625 -6.078125 L 13.640625 0 L 3 0 C 2.675781 0 2.304688 0 1.890625 0 C 1.472656 -0.0078125 1.144531 -0.0234375 0.90625 -0.046875 L 0.90625 -2.5 L 2.515625 -2.5 L 2.515625 -12.890625 L 0.859375 -12.890625 L 0.859375 -15.375 L 5.671875 -15.375 L 5.671875 -2.609375 Z M 10.9375 -2.609375 "/></g></g></g><g fill="#a6a6a6" fill-opacity="1"><g transform="translate(120.000424, 22.329472)"><g><path d="M 2.5625 -12.90625 L 0.984375 -12.90625 L 0.984375 -15.375 L 7.296875 -15.375 L 7.296875 -12.90625 L 5.71875 -12.90625 L 5.71875 -12.609375 L 5.75 -2.765625 L 5.75 -2.453125 L 7.296875 -2.453125 L 7.296875 0 L 0.984375 0 L 0.984375 -2.453125 L 2.5625 -2.453125 Z M 2.5625 -12.90625 "/></g></g></g><g fill="#a6a6a6" fill-opacity="1"><g transform="translate(129.602382, 22.329472)"><g><path d="M 16.21875 -2.609375 L 16.4375 -0.125 C 16.1875 -0.03125 15.90625 0.0507812 15.59375 0.125 C 15.28125 0.195312 14.921875 0.234375 14.515625 0.234375 C 13.867188 0.234375 13.3125 0.09375 12.84375 -0.1875 C 12.375 -0.46875 11.9375 -0.945312 11.53125 -1.625 L 8.375 -6.703125 L 5.671875 -3.65625 L 5.671875 -2.5 L 7.296875 -2.5 L 7.296875 -0.046875 C 7.066406 -0.0234375 6.742188 -0.0078125 6.328125 0 C 5.910156 0 5.535156 0 5.203125 0 L 3 0 C 2.675781 0 2.304688 0 1.890625 0 C 1.472656 -0.0078125 1.144531 -0.0234375 0.90625 -0.046875 L 0.90625 -2.5 L 2.515625 -2.5 L 2.515625 -12.890625 L 0.859375 -12.890625 L 0.859375 -15.375 L 5.125 -15.375 C 5.488281 -15.375 5.859375 -15.367188 6.234375 -15.359375 C 6.617188 -15.347656 6.945312 -15.335938 7.21875 -15.328125 L 7.21875 -12.890625 L 5.671875 -12.890625 L 5.671875 -7.734375 L 11.875 -15.375 L 15.625 -15.375 L 15.625 -12.90625 L 13.5 -12.90625 L 10.4375 -9.1875 L 14.046875 -3.265625 C 14.210938 -2.972656 14.382812 -2.769531 14.5625 -2.65625 C 14.75 -2.550781 14.972656 -2.5 15.234375 -2.5 C 15.484375 -2.5 15.671875 -2.503906 15.796875 -2.515625 C 15.929688 -2.535156 16.070312 -2.566406 16.21875 -2.609375 Z M 16.21875 -2.609375 "/></g></g></g></g></g></g></g></g><g clip-path="url(#40388148c8)"><path fill="#000000" d="M 72.082031 99.296875 C 52.761719 99.296875 33.441406 99.292969 14.121094 99.285156 C 13.082031 99.292969 12.054688 99.183594 11.039062 98.957031 C 10.285156 98.761719 9.59375 98.4375 8.964844 97.980469 C 6.820312 96.480469 6.429688 94.292969 7.984375 92.195312 C 10.558594 88.710938 13.207031 85.292969 15.839844 81.867188 C 16.308594 81.292969 16.535156 80.640625 16.519531 79.898438 C 16.492188 60.050781 16.484375 40.203125 16.496094 20.355469 C 16.496094 16.746094 18.554688 13.90625 21.851562 13.0625 C 22.867188 12.804688 23.953125 12.757812 25.011719 12.757812 C 40.050781 12.738281 55.089844 12.726562 70.128906 12.726562 C 86.597656 12.726562 103.0625 12.730469 119.527344 12.738281 C 123.066406 12.738281 125.875 14.492188 126.9375 17.496094 C 127.273438 18.460938 127.441406 19.449219 127.441406 20.46875 C 127.464844 40.199219 127.464844 59.925781 127.441406 79.652344 C 127.441406 80.4375 127.613281 81.058594 128.113281 81.683594 C 130.714844 84.964844 133.261719 88.277344 135.832031 91.574219 C 135.953125 91.722656 136.070312 91.878906 136.183594 92.035156 C 137.84375 94.277344 137.398438 96.675781 135.050781 98.183594 C 133.746094 99.011719 132.292969 99.304688 130.765625 99.304688 C 120.660156 99.296875 110.550781 99.296875 100.441406 99.304688 Z M 124.429688 79.667969 L 124.429688 78.941406 C 124.429688 59.484375 124.429688 40.023438 124.429688 20.566406 C 124.429688 17.480469 122.710938 15.773438 119.625 15.773438 C 95.152344 15.777344 70.683594 15.785156 46.222656 15.789062 C 38.847656 15.789062 31.476562 15.78125 24.101562 15.765625 C 22.175781 15.765625 20.675781 16.503906 19.921875 18.296875 C 19.597656 19.066406 19.539062 19.992188 19.539062 20.851562 C 19.523438 40.214844 19.523438 59.578125 19.539062 78.9375 C 19.539062 79.171875 19.5625 79.40625 19.578125 79.675781 Z M 113.820312 89.277344 C 114.160156 89.6875 114.410156 89.921875 114.578125 90.203125 C 115.140625 91.167969 115.949219 91.398438 117.042969 91.355469 C 119.433594 91.257812 121.832031 91.3125 124.222656 91.3125 C 125.519531 91.3125 126.207031 91.839844 126.199219 92.8125 C 126.199219 93.683594 125.492188 94.210938 124.289062 94.238281 C 123.855469 94.25 123.421875 94.246094 122.984375 94.246094 L 21.734375 94.246094 C 21.082031 94.246094 20.429688 94.273438 19.777344 94.21875 C 18.789062 94.140625 18.179688 93.3125 18.386719 92.40625 C 18.542969 91.722656 19.179688 91.316406 20.144531 91.3125 C 23.671875 91.3125 27.203125 91.3125 30.734375 91.3125 C 30.972656 91.3125 31.3125 91.367188 31.433594 91.238281 C 31.984375 90.65625 32.476562 90.019531 33.070312 89.308594 C 32.75 89.292969 32.609375 89.277344 32.464844 89.277344 C 29.417969 89.277344 26.371094 89.277344 23.324219 89.265625 C 22.351562 89.265625 21.710938 88.636719 21.71875 87.773438 C 21.726562 86.90625 22.320312 86.371094 23.296875 86.339844 C 23.972656 86.316406 24.664062 86.242188 25.328125 86.347656 C 27.09375 86.640625 28.375 86.058594 29.339844 84.546875 C 29.734375 83.917969 30.324219 83.410156 30.917969 82.742188 C 27.105469 82.742188 23.476562 82.753906 19.855469 82.722656 C 19.3125 82.6875 18.886719 82.890625 18.582031 83.339844 C 15.898438 86.855469 13.207031 90.359375 10.503906 93.863281 C 9.976562 94.550781 10.035156 95.058594 10.738281 95.578125 C 11.039062 95.800781 11.402344 96.027344 11.761719 96.078125 C 12.714844 96.234375 13.671875 96.320312 14.632812 96.335938 C 46.546875 96.335938 78.460938 96.332031 110.371094 96.320312 C 117.117188 96.320312 123.867188 96.359375 130.609375 96.320312 C 131.574219 96.292969 132.496094 96.078125 133.378906 95.675781 C 134.246094 95.289062 134.3125 94.5625 133.746094 93.835938 C 130.96875 90.300781 128.191406 86.761719 125.414062 83.226562 C 125.164062 82.863281 124.820312 82.695312 124.378906 82.726562 C 121.863281 82.753906 119.351562 82.742188 116.835938 82.742188 C 116.65625 82.742188 116.476562 82.761719 116.175781 82.777344 C 116.863281 83.5625 117.496094 84.222656 118.0625 84.941406 C 118.804688 85.894531 119.601562 86.664062 120.949219 86.34375 C 121.023438 86.335938 121.09375 86.339844 121.164062 86.359375 C 121.980469 86.464844 122.535156 87.035156 122.539062 87.78125 C 122.546875 88.527344 121.960938 89.179688 121.125 89.25 C 120.667969 89.289062 120.207031 89.269531 119.75 89.273438 Z M 52.886719 91.28125 L 84.96875 91.28125 C 84.648438 90.738281 84.335938 90.28125 84.101562 89.789062 C 83.902344 89.378906 83.632812 89.261719 83.191406 89.269531 C 81.429688 89.292969 79.667969 89.28125 77.902344 89.28125 C 70.199219 89.28125 62.492188 89.285156 54.789062 89.300781 C 54.503906 89.300781 54.113281 89.367188 53.964844 89.554688 C 53.566406 90.058594 53.273438 90.644531 52.886719 91.28125 Z M 54.21875 82.859375 C 54.121094 82.800781 54.082031 82.761719 54.046875 82.761719 C 50.785156 82.753906 47.527344 82.75 44.265625 82.753906 C 44.109375 82.753906 43.886719 82.785156 43.804688 82.886719 C 42.929688 83.992188 42.066406 85.109375 41.195312 86.25 C 41.347656 86.320312 41.390625 86.355469 41.429688 86.355469 C 44.882812 86.355469 48.335938 86.347656 51.789062 86.335938 C 51.957031 86.335938 52.207031 86.257812 52.28125 86.136719 C 52.945312 85.050781 53.578125 83.949219 54.21875 82.859375 Z M 70.679688 82.75 C 69.519531 82.75 68.429688 82.820312 67.34375 82.726562 C 66.449219 82.648438 65.972656 82.957031 65.652344 83.769531 C 65.308594 84.628906 64.851562 85.4375 64.421875 86.308594 L 70.675781 86.308594 Z M 97.441406 86.347656 C 96.707031 85.128906 96.042969 84.019531 95.363281 82.921875 C 95.265625 82.8125 95.140625 82.757812 94.996094 82.757812 C 93.460938 82.746094 91.925781 82.753906 90.273438 82.753906 C 90.972656 83.953125 91.605469 85.054688 92.261719 86.140625 C 92.371094 86.273438 92.515625 86.339844 92.6875 86.339844 C 94.222656 86.355469 95.757812 86.347656 97.445312 86.347656 Z M 31.902344 86.335938 C 33.039062 86.335938 33.988281 86.226562 34.902344 86.359375 C 36.5625 86.605469 37.699219 86.035156 38.496094 84.574219 C 38.84375 83.941406 39.375 83.410156 39.894531 82.75 C 38.289062 82.75 36.847656 82.742188 35.398438 82.757812 C 35.183594 82.765625 34.996094 82.84375 34.839844 82.996094 C 33.886719 84.050781 32.960938 85.125 31.902344 86.335938 Z M 73.945312 86.308594 L 79.871094 86.308594 C 79.226562 85.128906 78.632812 84.035156 78.027344 82.945312 C 77.964844 82.839844 77.875 82.78125 77.753906 82.761719 C 76.484375 82.75 75.214844 82.753906 73.941406 82.753906 Z M 88.597656 86.335938 C 87.902344 85.125 87.277344 84.023438 86.636719 82.925781 C 86.566406 82.828125 86.46875 82.769531 86.34375 82.761719 C 84.816406 82.75 83.28125 82.753906 81.636719 82.753906 C 82.292969 83.9375 82.875 85.011719 83.492188 86.066406 C 83.628906 86.234375 83.804688 86.320312 84.019531 86.328125 C 85.492188 86.347656 86.960938 86.335938 88.597656 86.335938 Z M 107.488281 82.746094 C 108.386719 83.96875 109.164062 85.039062 109.953125 86.09375 C 110.058594 86.230469 110.195312 86.3125 110.367188 86.332031 C 111.894531 86.347656 113.425781 86.34375 115.15625 86.34375 C 114.050781 85.089844 113.078125 83.972656 112.089844 82.863281 C 112 82.78125 111.894531 82.742188 111.769531 82.746094 C 110.398438 82.742188 109.03125 82.746094 107.488281 82.746094 Z M 106.199219 86.339844 C 105.316406 85.121094 104.523438 84.019531 103.710938 82.921875 C 103.613281 82.816406 103.492188 82.761719 103.347656 82.757812 C 101.960938 82.746094 100.574219 82.757812 99.046875 82.757812 C 99.796875 83.964844 100.472656 85.066406 101.164062 86.15625 C 101.253906 86.269531 101.375 86.332031 101.519531 86.339844 C 103.027344 86.34375 104.535156 86.339844 106.199219 86.339844 Z M 55.925781 86.339844 C 57.234375 86.339844 58.382812 86.257812 59.507812 86.367188 C 60.480469 86.457031 61.007812 86.144531 61.355469 85.238281 C 61.675781 84.402344 62.15625 83.632812 62.605469 82.753906 C 61.089844 82.753906 59.714844 82.746094 58.339844 82.765625 C 58.144531 82.769531 57.988281 82.851562 57.867188 83 C 57.222656 84.0625 56.609375 85.148438 55.933594 86.335938 Z M 102.691406 91.3125 C 102.347656 90.78125 102.039062 90.355469 101.789062 89.902344 C 101.539062 89.445312 101.195312 89.222656 100.628906 89.269531 C 99.910156 89.328125 99.175781 89.285156 98.460938 89.285156 L 96.183594 89.285156 C 96.617188 89.960938 96.945312 90.515625 97.308594 91.050781 C 97.402344 91.1875 97.53125 91.273438 97.695312 91.304688 C 99.324219 91.320312 100.949219 91.3125 102.691406 91.3125 Z M 35.492188 91.3125 C 37.230469 91.3125 38.847656 91.3125 40.457031 91.3125 C 40.578125 91.304688 40.679688 91.25 40.757812 91.15625 C 41.183594 90.585938 41.59375 89.996094 42.09375 89.308594 C 40.40625 89.308594 38.867188 89.308594 37.332031 89.316406 C 37.160156 89.328125 37.015625 89.398438 36.898438 89.523438 C 36.445312 90.066406 36.015625 90.636719 35.492188 91.308594 Z M 87.609375 89.28125 C 88.019531 89.988281 88.332031 90.550781 88.683594 91.097656 C 88.765625 91.21875 88.878906 91.285156 89.019531 91.300781 C 90.480469 91.316406 91.945312 91.3125 93.519531 91.3125 C 93.113281 90.65625 92.777344 90.078125 92.402344 89.53125 C 92.277344 89.382812 92.121094 89.304688 91.929688 89.292969 C 90.53125 89.273438 89.136719 89.28125 87.609375 89.28125 Z M 105.335938 89.28125 C 105.800781 89.980469 106.164062 90.542969 106.546875 91.089844 C 106.628906 91.207031 106.738281 91.277344 106.878906 91.300781 C 108.3125 91.316406 109.746094 91.3125 111.308594 91.3125 C 110.804688 90.632812 110.390625 90.050781 109.949219 89.492188 C 109.835938 89.367188 109.695312 89.300781 109.527344 89.292969 C 108.183594 89.273438 106.839844 89.28125 105.335938 89.28125 Z M 44.617188 91.3125 C 46.109375 91.3125 47.4375 91.3125 48.761719 91.3125 C 48.890625 91.3125 49.082031 91.273438 49.140625 91.183594 C 49.535156 90.59375 49.902344 89.984375 50.328125 89.296875 C 48.914062 89.296875 47.640625 89.289062 46.367188 89.308594 C 46.175781 89.324219 46.015625 89.410156 45.886719 89.558594 C 45.476562 90.089844 45.101562 90.644531 44.617188 91.316406 Z M 71.890625 76.347656 C 57.265625 76.347656 42.636719 76.347656 28.011719 76.347656 C 25.605469 76.347656 23.730469 74.867188 23.25 72.597656 C 23.183594 72.261719 23.15625 71.925781 23.164062 71.582031 C 23.164062 55.894531 23.167969 40.210938 23.171875 24.523438 C 23.171875 21.511719 25.253906 19.480469 28.335938 19.476562 C 42.359375 19.453125 56.382812 19.445312 70.402344 19.453125 C 85.242188 19.453125 100.089844 19.453125 114.933594 19.460938 C 115.675781 19.460938 116.449219 19.480469 117.15625 19.671875 C 117.65625 19.808594 118.121094 20.023438 118.554688 20.308594 C 118.984375 20.597656 119.359375 20.945312 119.679688 21.355469 C 119.996094 21.765625 120.242188 22.214844 120.414062 22.703125 C 120.585938 23.191406 120.675781 23.695312 120.683594 24.214844 C 120.738281 27.117188 120.71875 30.019531 120.71875 32.917969 C 120.71875 45.683594 120.71875 58.449219 120.71875 71.214844 C 120.71875 73.679688 119.414062 75.574219 117.261719 76.15625 C 116.625 76.304688 115.980469 76.371094 115.328125 76.355469 C 100.847656 76.367188 86.367188 76.371094 71.886719 76.363281 Z M 71.890625 73.371094 L 115.269531 73.371094 C 115.511719 73.371094 115.753906 73.371094 115.996094 73.347656 C 116.976562 73.253906 117.59375 72.621094 117.632812 71.648438 C 117.652344 71.3125 117.644531 70.972656 117.644531 70.632812 C 117.644531 56.320312 117.644531 42.007812 117.644531 27.695312 C 117.644531 26.609375 117.667969 25.519531 117.636719 24.433594 C 117.605469 23.347656 116.839844 22.589844 115.753906 22.523438 C 115.460938 22.503906 115.171875 22.507812 114.882812 22.507812 L 29.148438 22.507812 C 28.710938 22.5 28.277344 22.511719 27.839844 22.554688 C 27.625 22.578125 27.417969 22.640625 27.222656 22.738281 C 27.023438 22.835938 26.851562 22.964844 26.703125 23.125 C 26.550781 23.28125 26.433594 23.464844 26.347656 23.664062 C 26.261719 23.867188 26.210938 24.074219 26.199219 24.292969 C 26.167969 24.824219 26.171875 25.355469 26.171875 25.890625 C 26.171875 36.355469 26.171875 46.824219 26.171875 57.292969 C 26.171875 62.007812 26.179688 66.71875 26.191406 71.433594 C 26.191406 72.359375 26.652344 73.054688 27.425781 73.273438 C 27.804688 73.359375 28.1875 73.390625 28.574219 73.371094 C 43.015625 73.375 57.453125 73.375 71.890625 73.371094 Z M 71.890625 73.371094 " fill-opacity="1" fill-rule="nonzero"/></g><g clip-path="url(#292a37601d)"><path fill="#737373" d="M 49.421875 29.816406 L 45.5625 29.816406 L 45.5625 31.335938 L 49.421875 31.335938 Z M 50.714844 33.253906 L 38.148438 33.253906 L 38.148438 34.769531 L 50.714844 34.769531 Z M 67.851562 36.691406 L 61.789062 36.691406 L 61.789062 38.207031 L 67.851562 38.207031 Z M 46.1875 40.128906 L 38.148438 40.128906 L 38.148438 41.644531 L 46.1875 41.644531 Z M 55.578125 43.5625 L 38.148438 43.5625 L 38.148438 45.082031 L 55.578125 45.082031 Z M 66.816406 45.082031 L 84.246094 45.082031 L 84.246094 43.5625 L 66.816406 43.5625 Z M 79.664062 53.871094 L 79.664062 55.390625 L 91.082031 55.390625 L 91.082031 53.871094 Z M 51.082031 55.390625 L 78.148438 55.390625 L 78.148438 53.871094 L 51.082031 53.871094 Z M 38.148438 58.828125 L 49.316406 58.828125 L 49.316406 57.308594 L 38.148438 57.308594 L 38.148438 58.828125 " fill-opacity="1" fill-rule="nonzero"/></g><path fill="#545454" d="M 73.125 33.253906 L 60.554688 33.253906 L 60.554688 34.769531 L 73.125 34.769531 Z M 60.269531 36.691406 L 38.148438 36.691406 L 38.148438 38.207031 L 60.269531 38.207031 Z M 56.847656 48.515625 L 72.050781 48.515625 L 72.050781 47 L 56.847656 47 Z M 49.5625 53.871094 L 38.148438 53.871094 L 38.148438 55.390625 L 49.5625 55.390625 Z M 70.933594 57.308594 L 70.933594 58.828125 L 74.195312 58.828125 L 74.195312 57.308594 Z M 45.148438 62.261719 L 71.0625 62.261719 L 71.0625 60.746094 L 45.148438 60.746094 L 45.148438 62.261719 " fill-opacity="1" fill-rule="nonzero"/><g clip-path="url(#c6f1c4ac89)"><path fill="#b4b4b4" d="M 30.097656 27.898438 L 31.617188 27.898438 L 31.617188 26.378906 L 30.097656 26.378906 Z M 30.097656 31.335938 L 31.617188 31.335938 L 31.617188 29.816406 L 30.097656 29.816406 Z M 59.039062 33.253906 L 52.234375 33.253906 L 52.234375 34.769531 L 59.039062 34.769531 Z M 30.097656 34.769531 L 31.617188 34.769531 L 31.617188 33.253906 L 30.097656 33.253906 Z M 30.097656 38.207031 L 31.617188 38.207031 L 31.617188 36.691406 L 30.097656 36.691406 Z M 64.390625 40.128906 L 47.703125 40.128906 L 47.703125 41.644531 L 64.390625 41.644531 Z M 30.097656 41.644531 L 31.617188 41.644531 L 31.617188 40.128906 L 30.097656 40.128906 Z M 30.097656 45.082031 L 31.617188 45.082031 L 31.617188 43.5625 L 30.097656 43.5625 Z M 55.328125 47 L 38.148438 47 L 38.148438 48.515625 L 55.328125 48.515625 Z M 30.097656 48.515625 L 31.617188 48.515625 L 31.617188 47 L 30.097656 47 Z M 30.097656 51.953125 L 31.617188 51.953125 L 31.617188 50.4375 L 30.097656 50.4375 Z M 30.097656 55.390625 L 31.617188 55.390625 L 31.617188 53.871094 L 30.097656 53.871094 Z M 50.832031 57.308594 L 50.832031 58.828125 L 69.417969 58.828125 L 69.417969 57.308594 Z M 30.097656 58.828125 L 31.617188 58.828125 L 31.617188 57.308594 L 30.097656 57.308594 Z M 38.148438 62.261719 L 43.632812 62.261719 L 43.632812 60.746094 L 38.148438 60.746094 Z M 30.097656 62.261719 L 31.617188 62.261719 L 31.617188 60.746094 L 30.097656 60.746094 Z M 30.097656 65.699219 L 31.617188 65.699219 L 31.617188 64.183594 L 30.097656 64.183594 Z M 34.242188 69.734375 L 34.984375 69.734375 L 34.984375 25.089844 L 34.242188 25.089844 L 34.242188 69.734375 " fill-opacity="1" fill-rule="nonzero"/></g><g clip-path="url(#4a878387ac)"><path fill="#a6a6a6" d="M 44.042969 29.816406 L 36.324219 29.816406 L 36.324219 31.335938 L 44.042969 31.335938 Z M 69.367188 36.691406 L 69.367188 38.207031 L 78.808594 38.207031 L 78.808594 36.691406 Z M 57.09375 45.082031 L 65.296875 45.082031 L 65.296875 43.5625 L 57.09375 43.5625 Z M 36.324219 51.953125 L 44.785156 51.953125 L 44.785156 50.4375 L 36.324219 50.4375 Z M 41.738281 64.183594 L 36.324219 64.183594 L 36.324219 65.699219 L 41.738281 65.699219 Z M 41.128906 28.59375 C 41.191406 28.59375 41.253906 28.570312 41.300781 28.523438 L 43.574219 26.253906 C 43.667969 26.15625 43.667969 26 43.574219 25.902344 C 43.476562 25.808594 43.320312 25.808594 43.222656 25.902344 L 40.953125 28.171875 C 40.855469 28.269531 40.855469 28.425781 40.953125 28.523438 C 41 28.570312 41.0625 28.59375 41.128906 28.59375 Z M 39.242188 28.65625 C 39.289062 28.707031 39.351562 28.730469 39.417969 28.730469 C 39.480469 28.730469 39.542969 28.707031 39.589844 28.65625 C 39.6875 28.5625 39.6875 28.40625 39.59375 28.308594 L 38.496094 27.214844 L 39.589844 26.117188 C 39.6875 26.019531 39.6875 25.863281 39.589844 25.769531 C 39.496094 25.671875 39.339844 25.671875 39.242188 25.769531 L 37.972656 27.039062 C 37.875 27.136719 37.875 27.289062 37.972656 27.386719 Z M 45.351562 25.769531 C 45.253906 25.671875 45.097656 25.671875 45 25.769531 C 44.90625 25.863281 44.90625 26.023438 45 26.117188 L 46.097656 27.210938 L 45 28.308594 C 44.90625 28.40625 44.90625 28.5625 45 28.660156 C 45.050781 28.707031 45.113281 28.730469 45.175781 28.730469 C 45.238281 28.730469 45.300781 28.707031 45.351562 28.660156 L 46.621094 27.386719 C 46.667969 27.339844 46.691406 27.28125 46.691406 27.214844 C 46.691406 27.144531 46.667969 27.085938 46.621094 27.039062 Z M 45.351562 66.898438 C 45.253906 66.800781 45.097656 66.800781 45 66.898438 C 44.90625 66.992188 44.90625 67.148438 45 67.246094 L 46.097656 68.339844 L 45 69.4375 C 44.902344 69.535156 44.902344 69.691406 45 69.785156 C 45.050781 69.835938 45.113281 69.859375 45.175781 69.859375 C 45.238281 69.859375 45.300781 69.835938 45.351562 69.785156 L 46.621094 68.515625 C 46.667969 68.46875 46.691406 68.40625 46.691406 68.339844 C 46.691406 68.277344 46.667969 68.210938 46.621094 68.167969 Z M 39.59375 66.898438 C 39.496094 66.800781 39.339844 66.800781 39.242188 66.898438 L 39.242188 66.894531 L 37.972656 68.167969 C 37.875 68.261719 37.875 68.417969 37.972656 68.515625 L 39.242188 69.785156 C 39.289062 69.835938 39.355469 69.859375 39.417969 69.859375 C 39.480469 69.859375 39.542969 69.835938 39.59375 69.789062 C 39.6875 69.691406 39.6875 69.535156 39.59375 69.4375 L 38.496094 68.339844 L 39.59375 67.246094 C 39.6875 67.148438 39.6875 66.992188 39.59375 66.898438 Z M 43.222656 67.03125 L 40.953125 69.300781 C 40.855469 69.398438 40.855469 69.554688 40.953125 69.652344 C 41 69.699219 41.0625 69.722656 41.128906 69.722656 C 41.191406 69.722656 41.253906 69.699219 41.300781 69.652344 L 43.574219 67.382812 C 43.667969 67.285156 43.667969 67.128906 43.574219 67.03125 C 43.476562 66.933594 43.320312 66.933594 43.222656 67.03125 " fill-opacity="1" fill-rule="nonzero"/></g><g clip-path="url(#5b8bac7dfe)"><g transform="matrix(1, 0, 0, 1, 60, 25)"><g clip-path="url(#3ae59af1de)"><g clip-path="url(#0625ab9f54)"><path fill="#737373" d="M 42.246094 4.816406 L 46.105469 4.816406 L 46.105469 6.335938 L 42.246094 6.335938 Z M 40.949219 8.253906 L 53.519531 8.253906 L 53.519531 9.769531 L 40.949219 9.769531 Z M 23.816406 11.691406 L 29.878906 11.691406 L 29.878906 13.207031 L 23.816406 13.207031 Z M 45.480469 15.128906 L 53.519531 15.128906 L 53.519531 16.644531 L 45.480469 16.644531 Z M 36.089844 18.5625 L 53.519531 18.5625 L 53.519531 20.082031 L 36.089844 20.082031 Z M 24.851562 20.082031 L 7.421875 20.082031 L 7.421875 18.5625 L 24.851562 18.5625 Z M 12.003906 28.871094 L 12.003906 30.390625 L 0.585938 30.390625 L 0.585938 28.871094 Z M 40.585938 30.390625 L 13.519531 30.390625 L 13.519531 28.871094 L 40.585938 28.871094 Z M 53.519531 33.828125 L 42.351562 33.828125 L 42.351562 32.308594 L 53.519531 32.308594 L 53.519531 33.828125 " fill-opacity="1" fill-rule="nonzero"/></g><g clip-path="url(#5ddf20103e)"><path fill="#545454" d="M 18.542969 8.253906 L 31.113281 8.253906 L 31.113281 9.769531 L 18.542969 9.769531 Z M 31.394531 11.691406 L 53.519531 11.691406 L 53.519531 13.207031 L 31.394531 13.207031 Z M 34.820312 23.515625 L 19.613281 23.515625 L 19.613281 22 L 34.820312 22 Z M 42.105469 28.871094 L 53.519531 28.871094 L 53.519531 30.390625 L 42.105469 30.390625 Z M 20.734375 32.308594 L 20.734375 33.828125 L 17.472656 33.828125 L 17.472656 32.308594 Z M 46.515625 37.261719 L 20.601562 37.261719 L 20.601562 35.746094 L 46.515625 35.746094 L 46.515625 37.261719 " fill-opacity="1" fill-rule="nonzero"/></g><g clip-path="url(#3bff8c6a47)"><path fill="#b4b4b4" d="M 61.570312 2.898438 L 60.050781 2.898438 L 60.050781 1.378906 L 61.570312 1.378906 Z M 61.570312 6.335938 L 60.050781 6.335938 L 60.050781 4.816406 L 61.570312 4.816406 Z M 32.628906 8.253906 L 39.433594 8.253906 L 39.433594 9.769531 L 32.628906 9.769531 Z M 61.570312 9.769531 L 60.050781 9.769531 L 60.050781 8.253906 L 61.570312 8.253906 Z M 61.570312 13.207031 L 60.050781 13.207031 L 60.050781 11.691406 L 61.570312 11.691406 Z M 27.273438 15.128906 L 43.964844 15.128906 L 43.964844 16.644531 L 27.273438 16.644531 Z M 61.570312 16.644531 L 60.050781 16.644531 L 60.050781 15.128906 L 61.570312 15.128906 Z M 61.570312 20.082031 L 60.050781 20.082031 L 60.050781 18.5625 L 61.570312 18.5625 Z M 36.335938 22 L 53.519531 22 L 53.519531 23.515625 L 36.335938 23.515625 Z M 61.570312 23.515625 L 60.050781 23.515625 L 60.050781 22 L 61.570312 22 Z M 61.570312 26.953125 L 60.050781 26.953125 L 60.050781 25.4375 L 61.570312 25.4375 Z M 61.570312 30.390625 L 60.050781 30.390625 L 60.050781 28.871094 L 61.570312 28.871094 Z M 40.832031 32.308594 L 40.832031 33.828125 L 22.25 33.828125 L 22.25 32.308594 Z M 61.570312 33.828125 L 60.050781 33.828125 L 60.050781 32.308594 L 61.570312 32.308594 Z M 53.519531 37.261719 L 48.035156 37.261719 L 48.035156 35.746094 L 53.519531 35.746094 Z M 61.570312 37.261719 L 60.050781 37.261719 L 60.050781 35.746094 L 61.570312 35.746094 Z M 61.570312 40.699219 L 60.050781 40.699219 L 60.050781 39.183594 L 61.570312 39.183594 Z M 57.425781 44.734375 L 56.683594 44.734375 L 56.683594 0.0898438 L 57.425781 0.0898438 L 57.425781 44.734375 " fill-opacity="1" fill-rule="nonzero"/></g><g clip-path="url(#d77e17811a)"><path fill="#a6a6a6" d="M 47.621094 4.816406 L 55.339844 4.816406 L 55.339844 6.335938 L 47.621094 6.335938 Z M 22.296875 11.691406 L 22.296875 13.207031 L 12.859375 13.207031 L 12.859375 11.691406 Z M 34.574219 20.082031 L 26.367188 20.082031 L 26.367188 18.5625 L 34.574219 18.5625 Z M 55.339844 26.953125 L 46.882812 26.953125 L 46.882812 25.4375 L 55.339844 25.4375 Z M 49.929688 39.183594 L 55.339844 39.183594 L 55.339844 40.699219 L 49.929688 40.699219 Z M 50.539062 3.59375 C 50.476562 3.59375 50.414062 3.570312 50.363281 3.523438 L 48.09375 1.253906 C 47.996094 1.15625 47.996094 1 48.09375 0.902344 C 48.191406 0.808594 48.347656 0.808594 48.445312 0.902344 L 50.714844 3.171875 C 50.808594 3.269531 50.808594 3.425781 50.714844 3.523438 C 50.664062 3.570312 50.601562 3.59375 50.539062 3.59375 Z M 52.425781 3.65625 C 52.375 3.707031 52.3125 3.730469 52.25 3.730469 C 52.1875 3.730469 52.125 3.707031 52.074219 3.65625 C 51.976562 3.5625 51.976562 3.40625 52.074219 3.308594 L 53.171875 2.214844 L 52.074219 1.117188 C 51.980469 1.019531 51.980469 0.863281 52.074219 0.769531 C 52.171875 0.671875 52.328125 0.671875 52.425781 0.769531 L 53.695312 2.039062 C 53.792969 2.136719 53.792969 2.289062 53.695312 2.386719 Z M 46.316406 0.769531 C 46.414062 0.671875 46.570312 0.671875 46.664062 0.769531 C 46.761719 0.863281 46.761719 1.023438 46.664062 1.117188 L 45.570312 2.210938 L 46.664062 3.308594 C 46.761719 3.40625 46.761719 3.5625 46.664062 3.660156 C 46.617188 3.707031 46.554688 3.730469 46.492188 3.730469 C 46.425781 3.730469 46.363281 3.707031 46.316406 3.660156 L 45.046875 2.386719 C 45 2.339844 44.972656 2.28125 44.972656 2.214844 C 44.972656 2.144531 45 2.085938 45.046875 2.039062 Z M 46.316406 41.898438 C 46.414062 41.800781 46.570312 41.800781 46.664062 41.898438 C 46.761719 41.992188 46.761719 42.148438 46.664062 42.246094 L 45.570312 43.339844 L 46.664062 44.4375 C 46.761719 44.535156 46.761719 44.691406 46.664062 44.785156 C 46.617188 44.835938 46.554688 44.859375 46.492188 44.859375 C 46.425781 44.859375 46.363281 44.835938 46.316406 44.785156 L 45.046875 43.515625 C 45 43.46875 44.972656 43.40625 44.972656 43.339844 C 44.972656 43.277344 45 43.210938 45.046875 43.167969 Z M 52.074219 41.898438 C 52.171875 41.800781 52.328125 41.800781 52.425781 41.898438 L 52.425781 41.894531 L 53.695312 43.167969 C 53.792969 43.261719 53.792969 43.417969 53.695312 43.515625 L 52.425781 44.785156 C 52.375 44.835938 52.3125 44.859375 52.25 44.859375 C 52.1875 44.859375 52.125 44.835938 52.074219 44.789062 C 51.976562 44.691406 51.976562 44.535156 52.074219 44.4375 L 53.171875 43.339844 L 52.074219 42.246094 C 51.976562 42.148438 51.976562 41.992188 52.074219 41.898438 Z M 48.445312 42.03125 L 50.714844 44.300781 C 50.808594 44.398438 50.808594 44.554688 50.714844 44.652344 C 50.664062 44.699219 50.601562 44.722656 50.539062 44.722656 C 50.476562 44.722656 50.414062 44.699219 50.363281 44.652344 L 48.09375 42.382812 C 47.996094 42.285156 47.996094 42.128906 48.09375 42.03125 C 48.191406 41.933594 48.347656 41.933594 48.445312 42.03125 " fill-opacity="1" fill-rule="nonzero"/></g></g></g></g><g clip-path="url(#3a355244cd)"><path fill="#737373" d="M 86.023438 29.816406 L 82.164062 29.816406 L 82.164062 31.335938 L 86.023438 31.335938 Z M 87.320312 33.253906 L 74.75 33.253906 L 74.75 34.769531 L 87.320312 34.769531 Z M 104.453125 36.691406 L 98.390625 36.691406 L 98.390625 38.207031 L 104.453125 38.207031 Z M 82.789062 40.128906 L 74.75 40.128906 L 74.75 41.644531 L 82.789062 41.644531 Z M 92.179688 43.5625 L 74.75 43.5625 L 74.75 45.082031 L 92.179688 45.082031 Z M 103.417969 45.082031 L 120.847656 45.082031 L 120.847656 43.5625 L 103.417969 43.5625 Z M 116.265625 53.871094 L 116.265625 55.390625 L 127.683594 55.390625 L 127.683594 53.871094 Z M 87.683594 55.390625 L 114.75 55.390625 L 114.75 53.871094 L 87.683594 53.871094 Z M 74.75 58.828125 L 85.917969 58.828125 L 85.917969 57.308594 L 74.75 57.308594 L 74.75 58.828125 " fill-opacity="1" fill-rule="nonzero"/></g><g clip-path="url(#a8dde524b0)"><path fill="#b4b4b4" d="M 109.726562 33.253906 L 97.15625 33.253906 L 97.15625 34.769531 L 109.726562 34.769531 Z M 96.875 36.691406 L 74.75 36.691406 L 74.75 38.207031 L 96.875 38.207031 Z M 93.449219 48.515625 L 108.652344 48.515625 L 108.652344 47 L 93.449219 47 Z M 86.164062 53.871094 L 74.75 53.871094 L 74.75 55.390625 L 86.164062 55.390625 Z M 107.535156 57.308594 L 107.535156 58.828125 L 110.796875 58.828125 L 110.796875 57.308594 Z M 81.75 62.261719 L 107.667969 62.261719 L 107.667969 60.746094 L 81.75 60.746094 L 81.75 62.261719 " fill-opacity="1" fill-rule="nonzero"/></g><g clip-path="url(#9e82f09405)"><path fill="#b4b4b4" d="M 66.699219 27.898438 L 68.21875 27.898438 L 68.21875 26.378906 L 66.699219 26.378906 Z M 66.699219 31.335938 L 68.21875 31.335938 L 68.21875 29.816406 L 66.699219 29.816406 Z M 95.640625 33.253906 L 88.835938 33.253906 L 88.835938 34.769531 L 95.640625 34.769531 Z M 66.699219 34.769531 L 68.21875 34.769531 L 68.21875 33.253906 L 66.699219 33.253906 Z M 66.699219 38.207031 L 68.21875 38.207031 L 68.21875 36.691406 L 66.699219 36.691406 Z M 100.992188 40.128906 L 84.304688 40.128906 L 84.304688 41.644531 L 100.992188 41.644531 Z M 66.699219 41.644531 L 68.21875 41.644531 L 68.21875 40.128906 L 66.699219 40.128906 Z M 66.699219 45.082031 L 68.21875 45.082031 L 68.21875 43.5625 L 66.699219 43.5625 Z M 91.933594 47 L 74.75 47 L 74.75 48.515625 L 91.933594 48.515625 Z M 66.699219 48.515625 L 68.21875 48.515625 L 68.21875 47 L 66.699219 47 Z M 66.699219 51.953125 L 68.21875 51.953125 L 68.21875 50.4375 L 66.699219 50.4375 Z M 66.699219 55.390625 L 68.21875 55.390625 L 68.21875 53.871094 L 66.699219 53.871094 Z M 87.433594 57.308594 L 87.433594 58.828125 L 106.019531 58.828125 L 106.019531 57.308594 Z M 66.699219 58.828125 L 68.21875 58.828125 L 68.21875 57.308594 L 66.699219 57.308594 Z M 74.75 62.261719 L 80.234375 62.261719 L 80.234375 60.746094 L 74.75 60.746094 Z M 66.699219 62.261719 L 68.21875 62.261719 L 68.21875 60.746094 L 66.699219 60.746094 Z M 66.699219 65.699219 L 68.21875 65.699219 L 68.21875 64.183594 L 66.699219 64.183594 Z M 70.84375 69.734375 L 71.585938 69.734375 L 71.585938 25.089844 L 70.84375 25.089844 L 70.84375 69.734375 " fill-opacity="1" fill-rule="nonzero"/></g><g clip-path="url(#ecb8d3ea9f)"><path fill="#737373" d="M 80.644531 29.816406 L 72.925781 29.816406 L 72.925781 31.335938 L 80.644531 31.335938 Z M 105.96875 36.691406 L 105.96875 38.207031 L 115.410156 38.207031 L 115.410156 36.691406 Z M 93.695312 45.082031 L 101.898438 45.082031 L 101.898438 43.5625 L 93.695312 43.5625 Z M 72.925781 51.953125 L 81.386719 51.953125 L 81.386719 50.4375 L 72.925781 50.4375 Z M 78.339844 64.183594 L 72.925781 64.183594 L 72.925781 65.699219 L 78.339844 65.699219 Z M 77.730469 28.59375 C 77.792969 28.59375 77.855469 28.570312 77.90625 28.523438 L 80.175781 26.253906 C 80.269531 26.15625 80.269531 26 80.175781 25.902344 C 80.078125 25.808594 79.921875 25.808594 79.824219 25.902344 L 77.554688 28.171875 C 77.457031 28.269531 77.457031 28.425781 77.554688 28.523438 C 77.605469 28.570312 77.667969 28.59375 77.730469 28.59375 Z M 75.84375 28.65625 C 75.890625 28.707031 75.957031 28.730469 76.019531 28.730469 C 76.082031 28.730469 76.144531 28.707031 76.195312 28.65625 C 76.289062 28.5625 76.289062 28.40625 76.195312 28.308594 L 75.097656 27.214844 L 76.195312 26.117188 C 76.289062 26.019531 76.289062 25.863281 76.195312 25.769531 C 76.097656 25.671875 75.941406 25.671875 75.84375 25.769531 L 74.574219 27.039062 C 74.476562 27.136719 74.476562 27.289062 74.574219 27.386719 Z M 81.953125 25.769531 C 81.855469 25.671875 81.699219 25.671875 81.601562 25.769531 C 81.507812 25.863281 81.507812 26.023438 81.601562 26.117188 L 82.699219 27.210938 L 81.601562 28.308594 C 81.507812 28.40625 81.507812 28.5625 81.601562 28.660156 C 81.652344 28.707031 81.714844 28.730469 81.777344 28.730469 C 81.839844 28.730469 81.90625 28.707031 81.953125 28.660156 L 83.222656 27.386719 C 83.269531 27.339844 83.296875 27.28125 83.296875 27.214844 C 83.296875 27.144531 83.269531 27.085938 83.222656 27.039062 Z M 81.953125 66.898438 C 81.855469 66.800781 81.699219 66.800781 81.601562 66.898438 C 81.507812 66.992188 81.507812 67.148438 81.601562 67.246094 L 82.699219 68.339844 L 81.601562 69.4375 C 81.507812 69.535156 81.507812 69.691406 81.601562 69.785156 C 81.652344 69.835938 81.714844 69.859375 81.777344 69.859375 C 81.839844 69.859375 81.90625 69.835938 81.953125 69.785156 L 83.222656 68.515625 C 83.269531 68.46875 83.296875 68.40625 83.296875 68.339844 C 83.296875 68.277344 83.269531 68.210938 83.222656 68.167969 Z M 76.195312 66.898438 C 76.097656 66.800781 75.941406 66.800781 75.84375 66.898438 L 75.84375 66.894531 L 74.574219 68.167969 C 74.476562 68.261719 74.476562 68.417969 74.574219 68.515625 L 75.84375 69.785156 C 75.890625 69.835938 75.957031 69.859375 76.019531 69.859375 C 76.082031 69.859375 76.144531 69.835938 76.195312 69.789062 C 76.289062 69.691406 76.289062 69.535156 76.195312 69.4375 L 75.097656 68.339844 L 76.195312 67.246094 C 76.289062 67.148438 76.289062 66.992188 76.195312 66.898438 Z M 79.824219 67.03125 L 77.554688 69.300781 C 77.457031 69.398438 77.457031 69.554688 77.554688 69.652344 C 77.605469 69.699219 77.667969 69.722656 77.730469 69.722656 C 77.792969 69.722656 77.855469 69.699219 77.90625 69.652344 L 80.175781 67.382812 C 80.269531 67.285156 80.269531 67.128906 80.175781 67.03125 C 80.078125 66.933594 79.921875 66.933594 79.824219 67.03125 " fill-opacity="1" fill-rule="nonzero"/></g></svg>