<svg xmlns="http://www.w3.org/2000/svg" xmlns:xlink="http://www.w3.org/1999/xlink" width="400" zoomAndPan="magnify" viewBox="0 0 300 262.499992" height="350" preserveAspectRatio="xMidYMid meet" version="1.0"><defs><g/><clipPath id="45a1f26b75"><path d="M 51 40 L 228 40 L 228 72.347656 L 51 72.347656 Z M 51 40 " clip-rule="nonzero"/></clipPath><clipPath id="57bd106b91"><rect x="0" width="177" y="0" height="33"/></clipPath><clipPath id="fba42985d0"><rect x="0" width="274" y="0" height="73"/></clipPath><clipPath id="c787213187"><path d="M 1 0.855469 L 199 0.855469 L 199 132.21875 L 1 132.21875 Z M 1 0.855469 " clip-rule="nonzero"/></clipPath><clipPath id="2fd95a29c5"><path d="M 36.277344 19.605469 L 96 19.605469 L 96 87.554688 L 36.277344 87.554688 Z M 36.277344 19.605469 " clip-rule="nonzero"/></clipPath><clipPath id="a7421a39ca"><path d="M 45.5625 20.382812 L 110.195312 20.382812 L 110.195312 87.539062 L 45.5625 87.539062 Z M 45.5625 20.382812 " clip-rule="nonzero"/></clipPath><clipPath id="f8bef198cc"><path d="M 82.523438 19.605469 L 142.542969 19.605469 L 142.542969 87.554688 L 82.523438 87.554688 Z M 82.523438 19.605469 " clip-rule="nonzero"/></clipPath><clipPath id="cc56611340"><path d="M 0.523438 7 L 60.542969 7 L 60.542969 52 L 0.523438 52 Z M 0.523438 7 " clip-rule="nonzero"/></clipPath><clipPath id="24084474ef"><path d="M 26 13 L 60.542969 13 L 60.542969 58 L 26 58 Z M 26 13 " clip-rule="nonzero"/></clipPath><clipPath id="f6fb442133"><path d="M 33 0.605469 L 60.542969 0.605469 L 60.542969 68.554688 L 33 68.554688 Z M 33 0.605469 " clip-rule="nonzero"/></clipPath><clipPath id="adbc7109c9"><path d="M 19.089844 1.382812 L 60.542969 1.382812 L 60.542969 68.539062 L 19.089844 68.539062 Z M 19.089844 1.382812 " clip-rule="nonzero"/></clipPath><clipPath id="b73a92d2f1"><rect x="0" width="61" y="0" height="69"/></clipPath><clipPath id="4bba14c9f1"><path d="M 142.816406 26 L 162.066406 26 L 162.066406 71 L 142.816406 71 Z M 142.816406 26 " clip-rule="nonzero"/></clipPath><clipPath id="fc127b6bba"><path d="M 142.816406 32 L 159 32 L 159 77 L 142.816406 77 Z M 142.816406 32 " clip-rule="nonzero"/></clipPath><clipPath id="3e969c734c"><path d="M 142.816406 19.605469 L 152 19.605469 L 152 87.554688 L 142.816406 87.554688 Z M 142.816406 19.605469 " clip-rule="nonzero"/></clipPath><clipPath id="170dac7389"><path d="M 142.816406 20.382812 L 162.066406 20.382812 L 162.066406 87.539062 L 142.816406 87.539062 Z M 142.816406 20.382812 " clip-rule="nonzero"/></clipPath><clipPath id="8899c648dd"><rect x="0" width="200" y="0" height="133"/></clipPath></defs><g transform="matrix(1, 0, 0, 1, 13, 166)"><g clip-path="url(#fba42985d0)"><g fill="#000000" fill-opacity="1"><g transform="translate(0.994243, 33.011039)"><g><path d="M 2.28125 -23.578125 L 8.4375 -23.578125 L 8.4375 -13.921875 L 17.96875 -13.921875 L 17.96875 -23.578125 L 24.125 -23.578125 L 24.125 0 L 17.96875 0 L 17.96875 -9.078125 L 8.4375 -9.078125 L 8.4375 0 L 2.28125 0 Z M 2.28125 -23.578125 "/></g></g></g><g fill="#000000" fill-opacity="1"><g transform="translate(28.066641, 33.011039)"><g><path d="M 9.953125 -23.578125 L 16.28125 -23.578125 L 26.171875 0 L 19.609375 0 L 12.953125 -17.421875 L 6.15625 0 L -0.171875 0 Z M 5.890625 -8.875 L 19.640625 -8.875 L 19.640625 -4.234375 L 5.890625 -4.234375 Z M 5.890625 -8.875 "/></g></g></g><g fill="#000000" fill-opacity="1"><g transform="translate(54.735477, 33.011039)"><g><path d="M 2.28125 -23.578125 L 8.4375 -23.578125 L 8.4375 -5.1875 L 18.4375 -5.1875 L 18.4375 0 L 2.28125 0 Z M 2.28125 -23.578125 "/></g></g></g><g fill="#000000" fill-opacity="1"><g transform="translate(74.341984, 33.011039)"><g><path d="M 2.28125 -23.578125 L 8.4375 -23.578125 L 8.4375 0 L 2.28125 0 Z M 5.375 -31.71875 C 6.300781 -31.71875 7.054688 -31.421875 7.640625 -30.828125 C 8.222656 -30.234375 8.515625 -29.476562 8.515625 -28.5625 C 8.515625 -27.644531 8.222656 -26.890625 7.640625 -26.296875 C 7.054688 -25.703125 6.300781 -25.40625 5.375 -25.40625 C 4.457031 -25.40625 3.703125 -25.703125 3.109375 -26.296875 C 2.515625 -26.890625 2.21875 -27.644531 2.21875 -28.5625 C 2.21875 -29.476562 2.515625 -30.234375 3.109375 -30.828125 C 3.703125 -31.421875 4.457031 -31.71875 5.375 -31.71875 Z M 5.375 -31.71875 "/></g></g></g><g fill="#000000" fill-opacity="1"><g transform="translate(85.742723, 33.011039)"><g><path d="M 2.28125 -23.578125 L 8.4375 -23.578125 L 8.4375 -5.1875 L 18.4375 -5.1875 L 18.4375 0 L 2.28125 0 Z M 2.28125 -23.578125 "/></g></g></g><g fill="#000000" fill-opacity="1"><g transform="translate(105.349226, 33.011039)"><g/></g></g><g fill="#000000" fill-opacity="1"><g transform="translate(115.102086, 33.011039)"><g><path d="M 2.28125 -23.578125 L 8.4375 -23.578125 L 8.4375 0 L 2.28125 0 Z M 5.375 -31.71875 C 6.300781 -31.71875 7.054688 -31.421875 7.640625 -30.828125 C 8.222656 -30.234375 8.515625 -29.476562 8.515625 -28.5625 C 8.515625 -27.644531 8.222656 -26.890625 7.640625 -26.296875 C 7.054688 -25.703125 6.300781 -25.40625 5.375 -25.40625 C 4.457031 -25.40625 3.703125 -25.703125 3.109375 -26.296875 C 2.515625 -26.890625 2.21875 -27.644531 2.21875 -28.5625 C 2.21875 -29.476562 2.515625 -30.234375 3.109375 -30.828125 C 3.703125 -31.421875 4.457031 -31.71875 5.375 -31.71875 Z M 5.375 -31.71875 "/></g></g></g><g fill="#000000" fill-opacity="1"><g transform="translate(126.502833, 33.011039)"><g><path d="M 13.484375 -23.578125 C 15.285156 -23.578125 16.832031 -23.332031 18.125 -22.84375 C 19.425781 -22.351562 20.4375 -21.671875 21.15625 -20.796875 C 21.875 -19.921875 22.234375 -18.863281 22.234375 -17.625 C 22.234375 -16.394531 21.867188 -15.316406 21.140625 -14.390625 C 20.410156 -13.472656 19.429688 -12.847656 18.203125 -12.515625 C 19.679688 -12.222656 20.851562 -11.535156 21.71875 -10.453125 C 22.582031 -9.378906 23.015625 -8.082031 23.015625 -6.5625 C 23.015625 -5.21875 22.644531 -4.050781 21.90625 -3.0625 C 21.164062 -2.070312 20.113281 -1.3125 18.75 -0.78125 C 17.394531 -0.257812 15.785156 0 13.921875 0 L 2.28125 0 L 2.28125 -23.578125 Z M 13.15625 -14.203125 C 14.007812 -14.203125 14.679688 -14.40625 15.171875 -14.8125 C 15.660156 -15.226562 15.90625 -15.804688 15.90625 -16.546875 C 15.90625 -17.285156 15.660156 -17.859375 15.171875 -18.265625 C 14.679688 -18.671875 14.007812 -18.863281 13.15625 -18.84375 L 8.4375 -18.84375 L 8.4375 -14.203125 Z M 13.15625 -4.703125 C 14.226562 -4.703125 15.078125 -4.929688 15.703125 -5.390625 C 16.335938 -5.859375 16.65625 -6.492188 16.65625 -7.296875 C 16.65625 -8.054688 16.335938 -8.660156 15.703125 -9.109375 C 15.078125 -9.566406 14.226562 -9.78125 13.15625 -9.75 L 8.4375 -9.75 L 8.4375 -4.703125 Z M 13.15625 -4.703125 "/></g></g></g><g fill="#000000" fill-opacity="1"><g transform="translate(151.254751, 33.011039)"><g><path d="M 12.890625 -23.578125 C 16.023438 -23.578125 18.441406 -22.851562 20.140625 -21.40625 C 21.847656 -19.96875 22.703125 -17.9375 22.703125 -15.3125 C 22.703125 -12.550781 21.847656 -10.398438 20.140625 -8.859375 C 18.441406 -7.328125 16.023438 -6.5625 12.890625 -6.5625 L 8.4375 -6.5625 L 8.4375 0 L 2.28125 0 L 2.28125 -23.578125 Z M 12.890625 -11.40625 C 14.160156 -11.40625 15.140625 -11.71875 15.828125 -12.34375 C 16.515625 -12.96875 16.859375 -13.898438 16.859375 -15.140625 C 16.859375 -16.328125 16.515625 -17.222656 15.828125 -17.828125 C 15.140625 -18.429688 14.160156 -18.734375 12.890625 -18.734375 L 8.4375 -18.734375 L 8.4375 -11.40625 Z M 11.8125 -8.8125 L 17.796875 -8.8125 L 23.40625 0 L 16.453125 0 Z M 11.8125 -8.8125 "/></g></g></g><g fill="#000000" fill-opacity="1"><g transform="translate(176.275708, 33.011039)"><g><path d="M 9.953125 -23.578125 L 16.28125 -23.578125 L 26.171875 0 L 19.609375 0 L 12.953125 -17.421875 L 6.15625 0 L -0.171875 0 Z M 5.890625 -8.875 L 19.640625 -8.875 L 19.640625 -4.234375 L 5.890625 -4.234375 Z M 5.890625 -8.875 "/></g></g></g><g fill="#000000" fill-opacity="1"><g transform="translate(202.944552, 33.011039)"><g><path d="M 2.28125 -23.578125 L 8.4375 -23.578125 L 8.4375 -13.921875 L 17.96875 -13.921875 L 17.96875 -23.578125 L 24.125 -23.578125 L 24.125 0 L 17.96875 0 L 17.96875 -9.078125 L 8.4375 -9.078125 L 8.4375 0 L 2.28125 0 Z M 2.28125 -23.578125 "/></g></g></g><g fill="#000000" fill-opacity="1"><g transform="translate(230.016953, 33.011039)"><g><path d="M 2.28125 -23.578125 L 8.4375 -23.578125 L 8.4375 0 L 2.28125 0 Z M 5.375 -31.71875 C 6.300781 -31.71875 7.054688 -31.421875 7.640625 -30.828125 C 8.222656 -30.234375 8.515625 -29.476562 8.515625 -28.5625 C 8.515625 -27.644531 8.222656 -26.890625 7.640625 -26.296875 C 7.054688 -25.703125 6.300781 -25.40625 5.375 -25.40625 C 4.457031 -25.40625 3.703125 -25.703125 3.109375 -26.296875 C 2.515625 -26.890625 2.21875 -27.644531 2.21875 -28.5625 C 2.21875 -29.476562 2.515625 -30.234375 3.109375 -30.828125 C 3.703125 -31.421875 4.457031 -31.71875 5.375 -31.71875 Z M 5.375 -31.71875 "/></g></g></g><g fill="#000000" fill-opacity="1"><g transform="translate(241.417685, 33.011039)"><g><path d="M 2.28125 -23.578125 L 8.984375 -23.578125 L 15.8125 -9.6875 L 22.609375 -23.578125 L 29.296875 -23.578125 L 29.296875 0 L 23.84375 0 L 23.8125 -15.109375 L 17.796875 -2.359375 L 13.828125 -2.359375 L 7.765625 -15.109375 L 7.765625 0 L 2.28125 0 Z M 2.28125 -23.578125 "/></g></g></g><g clip-path="url(#45a1f26b75)"><g transform="matrix(1, 0, 0, 1, 51, 40)"><g clip-path="url(#57bd106b91)"><g fill="#a6a6a6" fill-opacity="1"><g transform="translate(0.926281, 25.515163)"><g><path d="M 13.4375 -6.109375 L 16.53125 -0.640625 C 16.644531 -0.472656 16.660156 -0.320312 16.578125 -0.1875 C 16.503906 -0.0625 16.363281 0 16.15625 0 L 12.453125 0 C 12.171875 0 11.96875 -0.125 11.84375 -0.375 L 7.59375 -8.484375 L 5.4375 -6.15625 L 5.4375 -5.84375 C 5.4375 -4.625 5.265625 -3.585938 4.921875 -2.734375 C 4.585938 -1.890625 4.113281 -1.195312 3.5 -0.65625 C 2.894531 -0.125 2.207031 0.269531 1.4375 0.53125 L 1.4375 -17.609375 C 1.4375 -17.960938 1.613281 -18.140625 1.96875 -18.140625 L 4.90625 -18.140625 C 5.257812 -18.140625 5.4375 -17.960938 5.4375 -17.609375 L 5.4375 -9.953125 L 5.59375 -9.953125 C 5.78125 -10.660156 6.050781 -11.351562 6.40625 -12.03125 C 6.757812 -12.71875 7.226562 -13.382812 7.8125 -14.03125 L 11.234375 -17.84375 C 11.421875 -18.039062 11.640625 -18.140625 11.890625 -18.140625 L 15.609375 -18.140625 C 15.835938 -18.140625 15.976562 -18.070312 16.03125 -17.9375 C 16.082031 -17.800781 16.03125 -17.644531 15.875 -17.46875 L 8.875 -9.875 C 9.800781 -9.625 10.648438 -9.1875 11.421875 -8.5625 C 12.203125 -7.9375 12.875 -7.117188 13.4375 -6.109375 Z M 13.4375 -6.109375 "/></g></g></g><g fill="#a6a6a6" fill-opacity="1"><g transform="translate(22.261818, 25.515163)"><g><path d="M 10.421875 -17.703125 L 16.859375 -0.609375 C 16.878906 -0.578125 16.890625 -0.539062 16.890625 -0.5 C 16.898438 -0.457031 16.90625 -0.425781 16.90625 -0.40625 C 16.90625 -0.289062 16.863281 -0.191406 16.78125 -0.109375 C 16.695312 -0.0351562 16.582031 0 16.4375 0 L 13.25 0 C 13.113281 0 12.992188 -0.03125 12.890625 -0.09375 C 12.796875 -0.15625 12.722656 -0.265625 12.671875 -0.421875 L 11.609375 -3.65625 L 10.640625 -3.65625 C 9.566406 -3.65625 8.675781 -3.859375 7.96875 -4.265625 C 7.269531 -4.679688 6.769531 -5.226562 6.46875 -5.90625 C 6.039062 -4.53125 5.503906 -3.398438 4.859375 -2.515625 C 4.210938 -1.628906 3.46875 -0.941406 2.625 -0.453125 C 1.78125 0.0234375 0.851562 0.351562 -0.15625 0.53125 L 6.71875 -17.703125 C 6.832031 -17.992188 7.035156 -18.140625 7.328125 -18.140625 L 9.8125 -18.140625 C 10.101562 -18.140625 10.304688 -17.992188 10.421875 -17.703125 Z M 8.59375 -12.859375 L 6.78125 -6.9375 L 10.53125 -6.9375 Z M 8.59375 -12.859375 "/></g></g></g><g fill="#a6a6a6" fill-opacity="1"><g transform="translate(43.8107, 25.515163)"><g><path d="M 2.09375 -3.625 L 11.15625 -3.625 C 11.507812 -3.625 11.6875 -3.445312 11.6875 -3.09375 L 11.6875 -0.53125 C 11.6875 -0.175781 11.507812 0 11.15625 0 L 1.96875 0 C 1.613281 0 1.4375 -0.175781 1.4375 -0.53125 L 1.4375 -17.609375 C 1.4375 -17.960938 1.613281 -18.140625 1.96875 -18.140625 L 4.90625 -18.140625 C 5.257812 -18.140625 5.4375 -17.960938 5.4375 -17.609375 L 5.4375 -9.734375 C 5.4375 -8.640625 5.296875 -7.691406 5.015625 -6.890625 C 4.734375 -6.085938 4.335938 -5.421875 3.828125 -4.890625 C 3.328125 -4.359375 2.75 -3.9375 2.09375 -3.625 Z M 2.09375 -3.625 "/></g></g></g><g fill="#a6a6a6" fill-opacity="1"><g transform="translate(60.159326, 25.515163)"><g><path d="M 10.421875 -17.703125 L 16.859375 -0.609375 C 16.878906 -0.578125 16.890625 -0.539062 16.890625 -0.5 C 16.898438 -0.457031 16.90625 -0.425781 16.90625 -0.40625 C 16.90625 -0.289062 16.863281 -0.191406 16.78125 -0.109375 C 16.695312 -0.0351562 16.582031 0 16.4375 0 L 13.25 0 C 13.113281 0 12.992188 -0.03125 12.890625 -0.09375 C 12.796875 -0.15625 12.722656 -0.265625 12.671875 -0.421875 L 11.609375 -3.65625 L 10.640625 -3.65625 C 9.566406 -3.65625 8.675781 -3.859375 7.96875 -4.265625 C 7.269531 -4.679688 6.769531 -5.226562 6.46875 -5.90625 C 6.039062 -4.53125 5.503906 -3.398438 4.859375 -2.515625 C 4.210938 -1.628906 3.46875 -0.941406 2.625 -0.453125 C 1.78125 0.0234375 0.851562 0.351562 -0.15625 0.53125 L 6.71875 -17.703125 C 6.832031 -17.992188 7.035156 -18.140625 7.328125 -18.140625 L 9.8125 -18.140625 C 10.101562 -18.140625 10.304688 -17.992188 10.421875 -17.703125 Z M 8.59375 -12.859375 L 6.78125 -6.9375 L 10.53125 -6.9375 Z M 8.59375 -12.859375 "/></g></g></g><g fill="#a6a6a6" fill-opacity="1"><g transform="translate(81.708209, 25.515163)"><g><path d="M 11.15625 -9.734375 C 12.25 -9.460938 13.082031 -8.914062 13.65625 -8.09375 C 14.238281 -7.28125 14.53125 -6.15625 14.53125 -4.71875 C 14.53125 -3.71875 14.304688 -2.84375 13.859375 -2.09375 C 13.421875 -1.34375 12.804688 -0.757812 12.015625 -0.34375 C 11.222656 0.0625 10.3125 0.265625 9.28125 0.265625 C 8.570312 0.265625 7.945312 0.125 7.40625 -0.15625 C 6.875 -0.445312 6.441406 -0.851562 6.109375 -1.375 C 5.773438 -1.894531 5.550781 -2.503906 5.4375 -3.203125 L 7.890625 -3.203125 C 8.796875 -3.203125 9.460938 -3.398438 9.890625 -3.796875 C 10.316406 -4.191406 10.53125 -4.722656 10.53125 -5.390625 C 10.53125 -6.046875 10.328125 -6.570312 9.921875 -6.96875 C 9.515625 -7.375 8.925781 -7.578125 8.15625 -7.578125 L 5.4375 -7.578125 L 5.4375 -4.984375 C 5.4375 -3.492188 5.085938 -2.265625 4.390625 -1.296875 C 3.703125 -0.335938 2.71875 0.269531 1.4375 0.53125 L 1.4375 -17.609375 C 1.4375 -17.960938 1.613281 -18.140625 1.96875 -18.140625 L 7.140625 -18.140625 C 9.117188 -18.140625 10.640625 -17.722656 11.703125 -16.890625 C 12.773438 -16.054688 13.3125 -14.875 13.3125 -13.34375 C 13.3125 -12.53125 13.117188 -11.796875 12.734375 -11.140625 C 12.347656 -10.492188 11.820312 -10.023438 11.15625 -9.734375 Z M 5.4375 -10.78125 L 7.140625 -10.78125 C 7.921875 -10.78125 8.488281 -10.945312 8.84375 -11.28125 C 9.207031 -11.613281 9.390625 -12.101562 9.390625 -12.75 C 9.390625 -13.382812 9.210938 -13.863281 8.859375 -14.1875 C 8.503906 -14.507812 7.929688 -14.671875 7.140625 -14.671875 L 5.4375 -14.671875 Z M 5.4375 -10.78125 "/></g></g></g><g fill="#a6a6a6" fill-opacity="1"><g transform="translate(101.203619, 25.515163)"><g><path d="M 10.421875 -17.703125 L 16.859375 -0.609375 C 16.878906 -0.578125 16.890625 -0.539062 16.890625 -0.5 C 16.898438 -0.457031 16.90625 -0.425781 16.90625 -0.40625 C 16.90625 -0.289062 16.863281 -0.191406 16.78125 -0.109375 C 16.695312 -0.0351562 16.582031 0 16.4375 0 L 13.25 0 C 13.113281 0 12.992188 -0.03125 12.890625 -0.09375 C 12.796875 -0.15625 12.722656 -0.265625 12.671875 -0.421875 L 11.609375 -3.65625 L 10.640625 -3.65625 C 9.566406 -3.65625 8.675781 -3.859375 7.96875 -4.265625 C 7.269531 -4.679688 6.769531 -5.226562 6.46875 -5.90625 C 6.039062 -4.53125 5.503906 -3.398438 4.859375 -2.515625 C 4.210938 -1.628906 3.46875 -0.941406 2.625 -0.453125 C 1.78125 0.0234375 0.851562 0.351562 -0.15625 0.53125 L 6.71875 -17.703125 C 6.832031 -17.992188 7.035156 -18.140625 7.328125 -18.140625 L 9.8125 -18.140625 C 10.101562 -18.140625 10.304688 -17.992188 10.421875 -17.703125 Z M 8.59375 -12.859375 L 6.78125 -6.9375 L 10.53125 -6.9375 Z M 8.59375 -12.859375 "/></g></g></g><g fill="#a6a6a6" fill-opacity="1"><g transform="translate(122.752502, 25.515163)"><g><path d="M 2.09375 -3.625 L 11.15625 -3.625 C 11.507812 -3.625 11.6875 -3.445312 11.6875 -3.09375 L 11.6875 -0.53125 C 11.6875 -0.175781 11.507812 0 11.15625 0 L 1.96875 0 C 1.613281 0 1.4375 -0.175781 1.4375 -0.53125 L 1.4375 -17.609375 C 1.4375 -17.960938 1.613281 -18.140625 1.96875 -18.140625 L 4.90625 -18.140625 C 5.257812 -18.140625 5.4375 -17.960938 5.4375 -17.609375 L 5.4375 -9.734375 C 5.4375 -8.640625 5.296875 -7.691406 5.015625 -6.890625 C 4.734375 -6.085938 4.335938 -5.421875 3.828125 -4.890625 C 3.328125 -4.359375 2.75 -3.9375 2.09375 -3.625 Z M 2.09375 -3.625 "/></g></g></g><g fill="#a6a6a6" fill-opacity="1"><g transform="translate(139.101128, 25.515163)"><g><path d="M 9.359375 -14.515625 L 7.3125 -14.515625 L 7.3125 -3.625 L 9.359375 -3.625 C 9.710938 -3.625 9.890625 -3.445312 9.890625 -3.09375 L 9.890625 -0.53125 C 9.890625 -0.175781 9.710938 0 9.359375 0 L 1.25 0 C 0.894531 0 0.71875 -0.175781 0.71875 -0.53125 L 0.71875 -3.09375 C 0.71875 -3.445312 0.894531 -3.625 1.25 -3.625 L 3.3125 -3.625 L 3.3125 -9.203125 C 3.3125 -10.597656 3.578125 -11.742188 4.109375 -12.640625 C 4.648438 -13.546875 5.359375 -14.171875 6.234375 -14.515625 L 1.25 -14.515625 C 0.894531 -14.515625 0.71875 -14.691406 0.71875 -15.046875 L 0.71875 -17.609375 C 0.71875 -17.960938 0.894531 -18.140625 1.25 -18.140625 L 9.359375 -18.140625 C 9.710938 -18.140625 9.890625 -17.960938 9.890625 -17.609375 L 9.890625 -15.046875 C 9.890625 -14.691406 9.710938 -14.515625 9.359375 -14.515625 Z M 9.359375 -14.515625 "/></g></g></g><g fill="#a6a6a6" fill-opacity="1"><g transform="translate(154.2497, 25.515163)"><g><path d="M 13.4375 -6.109375 L 16.53125 -0.640625 C 16.644531 -0.472656 16.660156 -0.320312 16.578125 -0.1875 C 16.503906 -0.0625 16.363281 0 16.15625 0 L 12.453125 0 C 12.171875 0 11.96875 -0.125 11.84375 -0.375 L 7.59375 -8.484375 L 5.4375 -6.15625 L 5.4375 -5.84375 C 5.4375 -4.625 5.265625 -3.585938 4.921875 -2.734375 C 4.585938 -1.890625 4.113281 -1.195312 3.5 -0.65625 C 2.894531 -0.125 2.207031 0.269531 1.4375 0.53125 L 1.4375 -17.609375 C 1.4375 -17.960938 1.613281 -18.140625 1.96875 -18.140625 L 4.90625 -18.140625 C 5.257812 -18.140625 5.4375 -17.960938 5.4375 -17.609375 L 5.4375 -9.953125 L 5.59375 -9.953125 C 5.78125 -10.660156 6.050781 -11.351562 6.40625 -12.03125 C 6.757812 -12.71875 7.226562 -13.382812 7.8125 -14.03125 L 11.234375 -17.84375 C 11.421875 -18.039062 11.640625 -18.140625 11.890625 -18.140625 L 15.609375 -18.140625 C 15.835938 -18.140625 15.976562 -18.070312 16.03125 -17.9375 C 16.082031 -17.800781 16.03125 -17.644531 15.875 -17.46875 L 8.875 -9.875 C 9.800781 -9.625 10.648438 -9.1875 11.421875 -8.5625 C 12.203125 -7.9375 12.875 -7.117188 13.4375 -6.109375 Z M 13.4375 -6.109375 "/></g></g></g></g></g></g></g></g><g transform="matrix(1, 0, 0, 1, 50, 22)"><g clip-path="url(#8899c648dd)"><g clip-path="url(#c787213187)"><path fill="#000000" d="M 99.949219 132.183594 C 70.652344 132.183594 41.347656 132.179688 12.046875 132.164062 C 10.46875 132.175781 8.914062 132.011719 7.375 131.671875 C 6.230469 131.375 5.179688 130.882812 4.226562 130.1875 C 0.976562 127.910156 0.378906 124.59375 2.738281 121.410156 C 6.644531 116.132812 10.660156 110.945312 14.65625 105.746094 C 15.367188 104.878906 15.707031 103.886719 15.683594 102.765625 C 15.640625 72.664062 15.632812 42.5625 15.648438 12.457031 C 15.648438 6.980469 18.769531 2.679688 23.769531 1.398438 C 25.308594 1.003906 26.960938 0.9375 28.5625 0.933594 C 51.371094 0.902344 74.179688 0.886719 96.992188 0.886719 C 121.964844 0.886719 146.941406 0.894531 171.914062 0.902344 C 177.277344 0.902344 181.535156 3.566406 183.152344 8.121094 C 183.65625 9.582031 183.910156 11.085938 183.910156 12.632812 C 183.949219 42.550781 183.949219 72.472656 183.910156 102.390625 C 183.910156 103.582031 184.171875 104.523438 184.933594 105.472656 C 188.878906 110.449219 192.738281 115.46875 196.640625 120.472656 C 196.820312 120.695312 197 120.9375 197.171875 121.171875 C 199.6875 124.570312 199.019531 128.210938 195.453125 130.492188 C 193.472656 131.753906 191.273438 132.195312 188.957031 132.195312 C 173.628906 132.183594 158.296875 132.183594 142.964844 132.195312 Z M 179.34375 102.414062 L 179.34375 101.3125 C 179.34375 71.800781 179.34375 42.289062 179.34375 12.777344 C 179.347656 8.097656 176.738281 5.507812 172.054688 5.507812 C 134.941406 5.515625 97.835938 5.523438 60.730469 5.535156 C 49.546875 5.535156 38.367188 5.519531 27.179688 5.496094 C 24.261719 5.496094 21.988281 6.613281 20.84375 9.335938 C 20.355469 10.503906 20.265625 11.90625 20.265625 13.207031 C 20.238281 42.574219 20.238281 71.941406 20.265625 101.308594 C 20.265625 101.660156 20.300781 102.019531 20.320312 102.421875 Z M 163.253906 116.988281 C 163.773438 117.613281 164.152344 117.964844 164.402344 118.394531 C 165.253906 119.859375 166.484375 120.203125 168.144531 120.136719 C 171.769531 119.992188 175.40625 120.074219 179.03125 120.074219 C 180.996094 120.074219 182.039062 120.875 182.027344 122.347656 C 182.027344 123.667969 180.957031 124.46875 179.136719 124.511719 C 178.476562 124.527344 177.816406 124.527344 177.15625 124.527344 L 23.59375 124.527344 C 22.601562 124.527344 21.613281 124.5625 20.625 124.484375 C 19.128906 124.363281 18.203125 123.105469 18.515625 121.734375 C 18.75 120.695312 19.71875 120.078125 21.179688 120.074219 C 26.53125 120.074219 31.886719 120.074219 37.242188 120.074219 C 37.605469 120.074219 38.121094 120.15625 38.300781 119.960938 C 39.136719 119.082031 39.882812 118.117188 40.785156 117.035156 C 40.296875 117.007812 40.085938 116.988281 39.867188 116.988281 C 35.25 116.988281 30.628906 116.988281 26.007812 116.972656 C 24.527344 116.972656 23.554688 116.015625 23.570312 114.707031 C 23.582031 113.394531 24.484375 112.582031 25.960938 112.53125 C 26.988281 112.5 28.039062 112.382812 29.042969 112.546875 C 31.71875 112.988281 33.664062 112.105469 35.125 109.8125 C 35.726562 108.859375 36.617188 108.089844 37.523438 107.074219 C 31.734375 107.074219 26.238281 107.097656 20.742188 107.050781 C 20.359375 107.023438 19.996094 107.09375 19.652344 107.257812 C 19.308594 107.425781 19.027344 107.667969 18.8125 107.984375 C 14.742188 113.3125 10.65625 118.632812 6.558594 123.941406 C 5.757812 124.984375 5.847656 125.753906 6.914062 126.542969 C 7.375 126.882812 7.921875 127.226562 8.46875 127.304688 C 9.910156 127.539062 11.363281 127.667969 12.824219 127.691406 C 61.222656 127.691406 109.625 127.683594 158.027344 127.671875 C 168.257812 127.671875 178.488281 127.730469 188.71875 127.671875 C 190.183594 127.625 191.582031 127.300781 192.914062 126.691406 C 194.234375 126.109375 194.335938 125.007812 193.476562 123.902344 C 189.261719 118.539062 185.050781 113.175781 180.839844 107.808594 C 180.664062 107.554688 180.433594 107.359375 180.15625 107.222656 C 179.875 107.089844 179.578125 107.03125 179.269531 107.054688 C 175.457031 107.09375 171.640625 107.074219 167.828125 107.078125 C 167.554688 107.078125 167.285156 107.105469 166.832031 107.132812 C 167.871094 108.320312 168.832031 109.320312 169.691406 110.410156 C 170.816406 111.855469 172.023438 113.023438 174.066406 112.535156 C 174.179688 112.527344 174.289062 112.535156 174.394531 112.5625 C 175.632812 112.722656 176.46875 113.589844 176.480469 114.722656 C 176.488281 115.851562 175.597656 116.835938 174.332031 116.945312 C 173.640625 117.003906 172.941406 116.976562 172.246094 116.980469 Z M 70.835938 120.027344 L 119.5 120.027344 C 119.011719 119.203125 118.535156 118.507812 118.179688 117.761719 C 117.878906 117.140625 117.472656 116.964844 116.800781 116.972656 C 114.128906 117.011719 111.453125 116.992188 108.777344 116.992188 C 97.09375 116.992188 85.410156 117.003906 73.722656 117.023438 C 73.296875 117.023438 72.699219 117.125 72.472656 117.410156 C 71.871094 118.171875 71.425781 119.0625 70.835938 120.027344 Z M 72.859375 107.25 C 72.710938 107.167969 72.65625 107.105469 72.597656 107.105469 C 67.652344 107.09375 62.710938 107.089844 57.761719 107.089844 C 57.527344 107.089844 57.191406 107.140625 57.066406 107.296875 C 55.734375 108.96875 54.425781 110.667969 53.105469 112.394531 C 53.339844 112.5 53.402344 112.554688 53.464844 112.554688 C 58.699219 112.554688 63.9375 112.542969 69.175781 112.523438 C 69.429688 112.523438 69.808594 112.410156 69.921875 112.222656 C 70.929688 110.582031 71.890625 108.910156 72.859375 107.25 Z M 97.824219 107.085938 C 96.066406 107.085938 94.410156 107.195312 92.765625 107.050781 C 91.410156 106.933594 90.691406 107.402344 90.199219 108.636719 C 89.683594 109.9375 88.984375 111.160156 88.332031 112.488281 L 97.816406 112.488281 Z M 138.417969 112.546875 C 137.296875 110.695312 136.296875 109.011719 135.261719 107.347656 C 135.113281 107.183594 134.925781 107.101562 134.703125 107.101562 C 132.378906 107.085938 130.050781 107.089844 127.542969 107.089844 C 128.601562 108.914062 129.5625 110.585938 130.554688 112.234375 C 130.726562 112.429688 130.941406 112.53125 131.203125 112.535156 C 133.53125 112.554688 135.863281 112.546875 138.417969 112.546875 Z M 39.011719 112.53125 C 40.734375 112.53125 42.175781 112.363281 43.566406 112.566406 C 46.082031 112.933594 47.804688 112.066406 49.015625 109.851562 C 49.539062 108.894531 50.347656 108.09375 51.136719 107.085938 C 48.699219 107.085938 46.515625 107.074219 44.316406 107.101562 C 43.988281 107.113281 43.707031 107.230469 43.472656 107.457031 C 42.023438 109.058594 40.617188 110.691406 39.011719 112.53125 Z M 102.777344 112.484375 L 111.765625 112.484375 C 110.789062 110.695312 109.890625 109.035156 108.96875 107.382812 C 108.875 107.226562 108.734375 107.132812 108.554688 107.105469 C 106.628906 107.085938 104.703125 107.09375 102.769531 107.09375 Z M 125 112.53125 C 123.949219 110.691406 123 109.019531 122.027344 107.359375 C 121.917969 107.203125 121.773438 107.121094 121.585938 107.105469 C 119.265625 107.085938 116.941406 107.09375 114.441406 107.09375 C 115.4375 108.890625 116.320312 110.519531 117.257812 112.121094 C 117.464844 112.371094 117.730469 112.503906 118.058594 112.511719 C 120.289062 112.542969 122.519531 112.53125 125 112.53125 Z M 153.652344 107.082031 C 155.011719 108.933594 156.191406 110.558594 157.394531 112.164062 C 157.550781 112.371094 157.757812 112.488281 158.015625 112.523438 C 160.335938 112.546875 162.65625 112.539062 165.277344 112.539062 C 163.605469 110.636719 162.128906 108.945312 160.632812 107.257812 C 160.492188 107.136719 160.332031 107.078125 160.148438 107.082031 C 158.066406 107.074219 155.992188 107.082031 153.648438 107.082031 Z M 151.699219 112.535156 C 150.355469 110.683594 149.152344 109.015625 147.921875 107.351562 C 147.773438 107.1875 147.589844 107.105469 147.371094 107.101562 C 145.269531 107.082031 143.164062 107.101562 140.851562 107.101562 C 141.984375 108.933594 143.007812 110.601562 144.058594 112.253906 C 144.199219 112.425781 144.378906 112.519531 144.601562 112.53125 C 146.882812 112.539062 149.171875 112.535156 151.695312 112.535156 Z M 75.453125 112.535156 C 77.433594 112.535156 79.171875 112.410156 80.878906 112.570312 C 82.355469 112.710938 83.15625 112.238281 83.683594 110.863281 C 84.167969 109.59375 84.898438 108.425781 85.582031 107.097656 C 83.28125 107.097656 81.195312 107.082031 79.109375 107.109375 C 78.816406 107.121094 78.578125 107.238281 78.390625 107.46875 C 77.414062 109.082031 76.484375 110.726562 75.457031 112.527344 Z M 146.378906 120.074219 C 145.855469 119.265625 145.386719 118.625 145.007812 117.933594 C 144.628906 117.242188 144.109375 116.902344 143.246094 116.972656 C 142.160156 117.0625 141.046875 117 139.960938 117.003906 L 136.503906 117.003906 C 137.164062 118.027344 137.660156 118.863281 138.210938 119.675781 C 138.351562 119.886719 138.546875 120.015625 138.800781 120.058594 C 141.269531 120.085938 143.734375 120.074219 146.378906 120.074219 Z M 44.457031 120.074219 C 47.097656 120.074219 49.546875 120.074219 51.988281 120.074219 C 52.171875 120.0625 52.324219 119.980469 52.441406 119.839844 C 53.089844 118.972656 53.714844 118.082031 54.46875 117.035156 C 51.910156 117.035156 49.578125 117.035156 47.25 117.046875 C 46.988281 117.0625 46.769531 117.167969 46.589844 117.363281 C 45.90625 118.183594 45.253906 119.050781 44.457031 120.070312 Z M 123.5 116.996094 C 124.125 118.066406 124.601562 118.917969 125.132812 119.75 C 125.253906 119.929688 125.425781 120.035156 125.644531 120.058594 C 127.859375 120.082031 130.078125 120.074219 132.464844 120.074219 C 131.851562 119.078125 131.339844 118.203125 130.769531 117.371094 C 130.582031 117.148438 130.34375 117.027344 130.050781 117.011719 C 127.929688 116.984375 125.816406 116.992188 123.5 116.992188 Z M 150.382812 116.996094 C 151.089844 118.054688 151.644531 118.90625 152.222656 119.738281 C 152.34375 119.917969 152.511719 120.023438 152.726562 120.058594 C 154.898438 120.082031 157.074219 120.074219 159.445312 120.074219 C 158.683594 119.042969 158.054688 118.160156 157.386719 117.316406 C 157.214844 117.125 157 117.023438 156.742188 117.007812 C 154.707031 116.984375 152.667969 116.992188 150.382812 116.992188 Z M 58.296875 120.074219 C 60.5625 120.074219 62.574219 120.074219 64.582031 120.074219 C 64.78125 120.074219 65.066406 120.015625 65.160156 119.878906 C 65.757812 118.984375 66.3125 118.0625 66.960938 117.019531 C 64.816406 117.019531 62.886719 117.003906 60.953125 117.035156 C 60.660156 117.0625 60.417969 117.1875 60.226562 117.410156 C 59.601562 118.21875 59.03125 119.058594 58.296875 120.082031 Z M 99.664062 97.375 C 77.476562 97.375 55.296875 97.375 33.113281 97.375 C 29.460938 97.375 26.617188 95.128906 25.890625 91.691406 C 25.792969 91.183594 25.75 90.667969 25.761719 90.152344 C 25.761719 66.359375 25.765625 42.570312 25.777344 18.777344 C 25.777344 14.207031 28.929688 11.128906 33.605469 11.121094 C 54.875 11.089844 76.140625 11.078125 97.402344 11.085938 C 119.914062 11.085938 142.425781 11.089844 164.941406 11.101562 C 166.070312 11.101562 167.238281 11.128906 168.3125 11.421875 C 169.074219 11.628906 169.78125 11.953125 170.433594 12.386719 C 171.089844 12.824219 171.65625 13.351562 172.140625 13.972656 C 172.621094 14.59375 172.996094 15.277344 173.257812 16.019531 C 173.515625 16.761719 173.652344 17.523438 173.667969 18.3125 C 173.75 22.710938 173.71875 27.113281 173.71875 31.511719 C 173.71875 50.871094 173.71875 70.230469 173.71875 89.59375 C 173.71875 93.332031 171.738281 96.203125 168.476562 97.085938 C 167.511719 97.316406 166.535156 97.414062 165.542969 97.390625 C 143.578125 97.40625 121.617188 97.410156 99.652344 97.402344 Z M 99.664062 92.863281 L 165.453125 92.863281 C 165.824219 92.863281 166.191406 92.863281 166.554688 92.828125 C 168.039062 92.683594 168.976562 91.726562 169.039062 90.253906 C 169.066406 89.738281 169.058594 89.226562 169.058594 88.710938 C 169.058594 67.003906 169.058594 45.296875 169.058594 23.589844 C 169.058594 21.941406 169.089844 20.292969 169.042969 18.644531 C 168.992188 16.996094 167.835938 15.847656 166.183594 15.746094 C 165.746094 15.714844 165.304688 15.722656 164.863281 15.722656 L 34.835938 15.722656 C 34.171875 15.707031 33.511719 15.730469 32.855469 15.789062 C 32.523438 15.828125 32.210938 15.921875 31.914062 16.070312 C 31.617188 16.21875 31.355469 16.414062 31.125 16.65625 C 30.898438 16.898438 30.71875 17.171875 30.585938 17.476562 C 30.457031 17.78125 30.382812 18.097656 30.363281 18.429688 C 30.316406 19.234375 30.324219 20.042969 30.324219 20.851562 C 30.324219 36.726562 30.324219 52.601562 30.324219 68.476562 C 30.324219 75.625 30.332031 82.777344 30.355469 89.925781 C 30.355469 91.328125 31.050781 92.386719 32.226562 92.714844 C 32.800781 92.84375 33.378906 92.894531 33.96875 92.863281 C 55.867188 92.867188 77.765625 92.867188 99.664062 92.863281 Z M 99.664062 92.863281 " fill-opacity="1" fill-rule="nonzero"/></g><path fill="#737373" d="M 65.582031 26.808594 L 59.730469 26.808594 L 59.730469 29.109375 L 65.582031 29.109375 Z M 67.546875 32.019531 L 48.484375 32.019531 L 48.484375 34.320312 L 67.546875 34.320312 Z M 93.535156 37.230469 L 84.339844 37.230469 L 84.339844 39.535156 L 93.535156 39.535156 Z M 60.675781 42.445312 L 48.484375 42.445312 L 48.484375 44.746094 L 60.675781 44.746094 Z M 74.917969 47.65625 L 48.484375 47.65625 L 48.484375 49.957031 L 74.917969 49.957031 Z M 91.964844 49.957031 L 118.398438 49.957031 L 118.398438 47.65625 L 91.964844 47.65625 Z M 111.453125 63.292969 L 111.453125 65.59375 L 128.765625 65.59375 L 128.765625 63.292969 Z M 68.101562 65.59375 L 109.152344 65.59375 L 109.152344 63.292969 L 68.101562 63.292969 Z M 48.484375 70.804688 L 65.425781 70.804688 L 65.425781 68.503906 L 48.484375 68.503906 L 48.484375 70.804688 " fill-opacity="1" fill-rule="nonzero"/><path fill="#545454" d="M 101.53125 32.019531 L 82.46875 32.019531 L 82.46875 34.320312 L 101.53125 34.320312 Z M 82.039062 37.230469 L 48.484375 37.230469 L 48.484375 39.535156 L 82.039062 39.535156 Z M 76.84375 55.167969 L 99.90625 55.167969 L 99.90625 52.867188 L 76.84375 52.867188 Z M 65.796875 63.292969 L 48.484375 63.292969 L 48.484375 65.59375 L 65.796875 65.59375 Z M 98.210938 68.503906 L 98.210938 70.804688 L 103.15625 70.804688 L 103.15625 68.503906 Z M 59.105469 76.015625 L 98.410156 76.015625 L 98.410156 73.714844 L 59.105469 73.714844 L 59.105469 76.015625 " fill-opacity="1" fill-rule="nonzero"/><g clip-path="url(#2fd95a29c5)"><path fill="#b4b4b4" d="M 36.277344 23.898438 L 38.578125 23.898438 L 38.578125 21.59375 L 36.277344 21.59375 Z M 36.277344 29.109375 L 38.578125 29.109375 L 38.578125 26.808594 L 36.277344 26.808594 Z M 80.167969 32.019531 L 69.847656 32.019531 L 69.847656 34.320312 L 80.167969 34.320312 Z M 36.277344 34.320312 L 38.578125 34.320312 L 38.578125 32.019531 L 36.277344 32.019531 Z M 36.277344 39.535156 L 38.578125 39.535156 L 38.578125 37.230469 L 36.277344 37.230469 Z M 88.289062 42.445312 L 62.976562 42.445312 L 62.976562 44.746094 L 88.289062 44.746094 Z M 36.277344 44.746094 L 38.578125 44.746094 L 38.578125 42.445312 L 36.277344 42.445312 Z M 36.277344 49.957031 L 38.578125 49.957031 L 38.578125 47.65625 L 36.277344 47.65625 Z M 74.542969 52.867188 L 48.484375 52.867188 L 48.484375 55.167969 L 74.542969 55.167969 Z M 36.277344 55.167969 L 38.578125 55.167969 L 38.578125 52.867188 L 36.277344 52.867188 Z M 36.277344 60.378906 L 38.578125 60.378906 L 38.578125 58.078125 L 36.277344 58.078125 Z M 36.277344 65.59375 L 38.578125 65.59375 L 38.578125 63.292969 L 36.277344 63.292969 Z M 67.726562 68.503906 L 67.726562 70.804688 L 95.910156 70.804688 L 95.910156 68.503906 Z M 36.277344 70.804688 L 38.578125 70.804688 L 38.578125 68.503906 L 36.277344 68.503906 Z M 48.484375 76.015625 L 56.804688 76.015625 L 56.804688 73.714844 L 48.484375 73.714844 Z M 36.277344 76.015625 L 38.578125 76.015625 L 38.578125 73.714844 L 36.277344 73.714844 Z M 36.277344 81.230469 L 38.578125 81.230469 L 38.578125 78.929688 L 36.277344 78.929688 Z M 42.5625 87.351562 L 43.6875 87.351562 L 43.6875 19.640625 L 42.5625 19.640625 L 42.5625 87.351562 " fill-opacity="1" fill-rule="nonzero"/></g><g clip-path="url(#a7421a39ca)"><path fill="#a6a6a6" d="M 57.429688 26.808594 L 45.722656 26.808594 L 45.722656 29.109375 L 57.429688 29.109375 Z M 95.835938 37.230469 L 95.835938 39.535156 L 110.152344 39.535156 L 110.152344 37.230469 Z M 77.21875 49.957031 L 89.664062 49.957031 L 89.664062 47.65625 L 77.21875 47.65625 Z M 45.722656 60.378906 L 58.554688 60.378906 L 58.554688 58.078125 L 45.722656 58.078125 Z M 53.929688 78.929688 L 45.722656 78.929688 L 45.722656 81.230469 L 53.929688 81.230469 Z M 53.003906 24.953125 C 53.101562 24.953125 53.199219 24.917969 53.269531 24.84375 L 56.714844 21.402344 C 56.859375 21.257812 56.859375 21.019531 56.714844 20.871094 C 56.566406 20.726562 56.328125 20.726562 56.183594 20.871094 L 52.742188 24.316406 C 52.59375 24.460938 52.59375 24.699219 52.742188 24.84375 C 52.8125 24.917969 52.910156 24.953125 53.003906 24.953125 Z M 50.144531 25.050781 C 50.21875 25.125 50.3125 25.160156 50.410156 25.160156 C 50.507812 25.160156 50.601562 25.125 50.675781 25.050781 C 50.824219 24.902344 50.824219 24.667969 50.675781 24.519531 L 49.015625 22.859375 L 50.675781 21.195312 C 50.820312 21.050781 50.820312 20.8125 50.675781 20.667969 C 50.53125 20.519531 50.292969 20.519531 50.144531 20.667969 L 48.21875 22.59375 C 48.074219 22.738281 48.074219 22.976562 48.21875 23.125 Z M 59.410156 20.667969 C 59.261719 20.519531 59.027344 20.519531 58.878906 20.667969 C 58.734375 20.8125 58.734375 21.050781 58.878906 21.199219 L 58.878906 21.195312 L 60.542969 22.855469 L 58.878906 24.519531 C 58.734375 24.664062 58.734375 24.902344 58.878906 25.050781 C 58.953125 25.125 59.050781 25.160156 59.144531 25.160156 C 59.242188 25.160156 59.335938 25.125 59.410156 25.050781 L 61.335938 23.125 C 61.40625 23.050781 61.445312 22.957031 61.445312 22.859375 C 61.445312 22.757812 61.40625 22.664062 61.335938 22.59375 Z M 59.410156 83.046875 C 59.261719 82.898438 59.027344 82.898438 58.878906 83.046875 C 58.734375 83.191406 58.734375 83.429688 58.878906 83.574219 L 60.542969 85.234375 L 58.878906 86.898438 C 58.734375 87.042969 58.734375 87.28125 58.878906 87.425781 C 58.953125 87.5 59.046875 87.539062 59.144531 87.539062 C 59.242188 87.539062 59.335938 87.5 59.410156 87.425781 L 61.335938 85.5 C 61.40625 85.429688 61.445312 85.335938 61.445312 85.234375 C 61.445312 85.136719 61.40625 85.039062 61.335938 84.96875 Z M 50.675781 83.046875 C 50.527344 82.898438 50.292969 82.898438 50.144531 83.046875 L 50.144531 83.042969 L 48.21875 84.96875 C 48.074219 85.117188 48.074219 85.355469 48.21875 85.5 L 50.144531 87.425781 C 50.21875 87.5 50.316406 87.535156 50.410156 87.535156 C 50.507812 87.535156 50.601562 87.5 50.675781 87.429688 C 50.824219 87.28125 50.824219 87.042969 50.675781 86.898438 L 49.011719 85.234375 L 50.675781 83.574219 C 50.824219 83.429688 50.824219 83.191406 50.675781 83.046875 Z M 56.183594 83.25 L 52.742188 86.691406 C 52.59375 86.835938 52.59375 87.074219 52.742188 87.222656 C 52.8125 87.296875 52.910156 87.332031 53.003906 87.332031 C 53.101562 87.332031 53.199219 87.296875 53.269531 87.222656 L 56.714844 83.78125 C 56.859375 83.632812 56.859375 83.394531 56.714844 83.25 C 56.566406 83.101562 56.328125 83.101562 56.183594 83.25 " fill-opacity="1" fill-rule="nonzero"/></g><g clip-path="url(#f8bef198cc)"><g transform="matrix(1, 0, 0, 1, 82, 19)"><g clip-path="url(#b73a92d2f1)"><g clip-path="url(#cc56611340)"><path fill="#737373" d="M 63.699219 7.808594 L 69.554688 7.808594 L 69.554688 10.109375 L 63.699219 10.109375 Z M 61.734375 13.019531 L 80.796875 13.019531 L 80.796875 15.320312 L 61.734375 15.320312 Z M 35.746094 18.230469 L 44.941406 18.230469 L 44.941406 20.535156 L 35.746094 20.535156 Z M 68.605469 23.445312 L 80.796875 23.445312 L 80.796875 25.746094 L 68.605469 25.746094 Z M 54.363281 28.65625 L 80.796875 28.65625 L 80.796875 30.957031 L 54.363281 30.957031 Z M 37.320312 30.957031 L 10.886719 30.957031 L 10.886719 28.65625 L 37.320312 28.65625 Z M 17.832031 44.292969 L 17.832031 46.59375 L 0.515625 46.59375 L 0.515625 44.292969 Z M 61.183594 46.59375 L 20.132812 46.59375 L 20.132812 44.292969 L 61.183594 44.292969 Z M 80.796875 51.804688 L 63.859375 51.804688 L 63.859375 49.503906 L 80.796875 49.503906 L 80.796875 51.804688 " fill-opacity="1" fill-rule="nonzero"/></g><g clip-path="url(#24084474ef)"><path fill="#545454" d="M 27.75 13.019531 L 46.8125 13.019531 L 46.8125 15.320312 L 27.75 15.320312 Z M 47.242188 18.230469 L 80.796875 18.230469 L 80.796875 20.535156 L 47.242188 20.535156 Z M 52.4375 36.167969 L 29.375 36.167969 L 29.375 33.867188 L 52.4375 33.867188 Z M 63.484375 44.292969 L 80.796875 44.292969 L 80.796875 46.59375 L 63.484375 46.59375 Z M 31.074219 49.503906 L 31.074219 51.804688 L 26.125 51.804688 L 26.125 49.503906 Z M 70.179688 57.015625 L 30.875 57.015625 L 30.875 54.714844 L 70.179688 54.714844 L 70.179688 57.015625 " fill-opacity="1" fill-rule="nonzero"/></g><g clip-path="url(#f6fb442133)"><path fill="#b4b4b4" d="M 93.007812 4.898438 L 90.707031 4.898438 L 90.707031 2.59375 L 93.007812 2.59375 Z M 93.007812 10.109375 L 90.707031 10.109375 L 90.707031 7.808594 L 93.007812 7.808594 Z M 49.117188 13.019531 L 59.433594 13.019531 L 59.433594 15.320312 L 49.117188 15.320312 Z M 93.007812 15.320312 L 90.707031 15.320312 L 90.707031 13.019531 L 93.007812 13.019531 Z M 93.007812 20.535156 L 90.707031 20.535156 L 90.707031 18.230469 L 93.007812 18.230469 Z M 40.996094 23.445312 L 66.304688 23.445312 L 66.304688 25.746094 L 40.996094 25.746094 Z M 93.007812 25.746094 L 90.707031 25.746094 L 90.707031 23.445312 L 93.007812 23.445312 Z M 93.007812 30.957031 L 90.707031 30.957031 L 90.707031 28.65625 L 93.007812 28.65625 Z M 54.738281 33.867188 L 80.796875 33.867188 L 80.796875 36.167969 L 54.738281 36.167969 Z M 93.007812 36.167969 L 90.707031 36.167969 L 90.707031 33.867188 L 93.007812 33.867188 Z M 93.007812 41.378906 L 90.707031 41.378906 L 90.707031 39.078125 L 93.007812 39.078125 Z M 93.007812 46.59375 L 90.707031 46.59375 L 90.707031 44.292969 L 93.007812 44.292969 Z M 61.558594 49.503906 L 61.558594 51.804688 L 33.375 51.804688 L 33.375 49.503906 Z M 93.007812 51.804688 L 90.707031 51.804688 L 90.707031 49.503906 L 93.007812 49.503906 Z M 80.796875 57.015625 L 72.480469 57.015625 L 72.480469 54.714844 L 80.796875 54.714844 Z M 93.007812 57.015625 L 90.707031 57.015625 L 90.707031 54.714844 L 93.007812 54.714844 Z M 93.007812 62.230469 L 90.707031 62.230469 L 90.707031 59.929688 L 93.007812 59.929688 Z M 86.722656 68.351562 L 85.597656 68.351562 L 85.597656 0.640625 L 86.722656 0.640625 L 86.722656 68.351562 " fill-opacity="1" fill-rule="nonzero"/></g><g clip-path="url(#adbc7109c9)"><path fill="#a6a6a6" d="M 71.855469 7.808594 L 83.5625 7.808594 L 83.5625 10.109375 L 71.855469 10.109375 Z M 33.449219 18.230469 L 33.449219 20.535156 L 19.128906 20.535156 L 19.128906 18.230469 Z M 52.0625 30.957031 L 39.621094 30.957031 L 39.621094 28.65625 L 52.0625 28.65625 Z M 83.5625 41.378906 L 70.730469 41.378906 L 70.730469 39.078125 L 83.5625 39.078125 Z M 75.351562 59.929688 L 83.5625 59.929688 L 83.5625 62.230469 L 75.351562 62.230469 Z M 76.277344 5.953125 C 76.183594 5.953125 76.085938 5.917969 76.011719 5.84375 L 72.570312 2.402344 C 72.425781 2.257812 72.425781 2.019531 72.570312 1.871094 C 72.71875 1.726562 72.953125 1.726562 73.101562 1.871094 L 76.542969 5.316406 C 76.691406 5.460938 76.691406 5.699219 76.542969 5.84375 C 76.46875 5.917969 76.375 5.953125 76.277344 5.953125 Z M 79.136719 6.050781 C 79.066406 6.125 78.96875 6.160156 78.871094 6.160156 C 78.777344 6.160156 78.679688 6.125 78.609375 6.050781 C 78.460938 5.902344 78.460938 5.667969 78.605469 5.519531 L 80.269531 3.859375 L 78.609375 2.195312 C 78.460938 2.050781 78.460938 1.8125 78.609375 1.667969 C 78.753906 1.519531 78.992188 1.519531 79.136719 1.667969 L 81.066406 3.59375 C 81.210938 3.738281 81.210938 3.976562 81.066406 4.125 Z M 69.875 1.667969 C 70.019531 1.519531 70.257812 1.519531 70.402344 1.667969 C 70.550781 1.8125 70.550781 2.050781 70.402344 2.199219 L 70.402344 2.195312 L 68.742188 3.855469 L 70.402344 5.519531 C 70.550781 5.664062 70.550781 5.902344 70.402344 6.050781 C 70.332031 6.125 70.234375 6.160156 70.136719 6.160156 C 70.042969 6.160156 69.945312 6.125 69.875 6.050781 L 67.945312 4.125 C 67.875 4.050781 67.835938 3.957031 67.835938 3.859375 C 67.835938 3.757812 67.875 3.664062 67.945312 3.59375 Z M 69.871094 64.046875 C 70.019531 63.898438 70.257812 63.898438 70.402344 64.046875 C 70.550781 64.191406 70.550781 64.429688 70.402344 64.574219 L 68.742188 66.234375 L 70.402344 67.898438 C 70.550781 68.042969 70.550781 68.28125 70.402344 68.425781 C 70.332031 68.5 70.234375 68.539062 70.136719 68.539062 C 70.042969 68.539062 69.945312 68.5 69.871094 68.425781 L 67.945312 66.5 C 67.875 66.429688 67.835938 66.335938 67.835938 66.234375 C 67.835938 66.136719 67.875 66.039062 67.945312 65.96875 Z M 78.605469 64.046875 C 78.753906 63.898438 78.992188 63.898438 79.136719 64.046875 L 79.136719 64.042969 L 81.066406 65.96875 C 81.210938 66.117188 81.210938 66.355469 81.066406 66.5 L 79.136719 68.425781 C 79.066406 68.5 78.96875 68.535156 78.871094 68.535156 C 78.777344 68.535156 78.679688 68.5 78.605469 68.429688 C 78.460938 68.28125 78.460938 68.042969 78.605469 67.898438 L 80.269531 66.234375 L 78.605469 64.574219 C 78.460938 64.429688 78.460938 64.191406 78.605469 64.046875 Z M 73.101562 64.25 L 76.542969 67.691406 C 76.691406 67.835938 76.691406 68.074219 76.542969 68.222656 C 76.46875 68.296875 76.375 68.332031 76.277344 68.332031 C 76.183594 68.332031 76.085938 68.296875 76.011719 68.222656 L 72.570312 64.78125 C 72.425781 64.632812 72.425781 64.394531 72.570312 64.25 C 72.714844 64.101562 72.953125 64.101562 73.101562 64.25 " fill-opacity="1" fill-rule="nonzero"/></g></g></g></g><g clip-path="url(#4bba14c9f1)"><path fill="#737373" d="M 121.097656 26.808594 L 115.242188 26.808594 L 115.242188 29.109375 L 121.097656 29.109375 Z M 123.0625 32.019531 L 103.996094 32.019531 L 103.996094 34.320312 L 123.0625 34.320312 Z M 149.046875 37.230469 L 139.855469 37.230469 L 139.855469 39.535156 L 149.046875 39.535156 Z M 116.191406 42.445312 L 103.996094 42.445312 L 103.996094 44.746094 L 116.191406 44.746094 Z M 130.433594 47.65625 L 103.996094 47.65625 L 103.996094 49.957031 L 130.433594 49.957031 Z M 147.476562 49.957031 L 173.910156 49.957031 L 173.910156 47.65625 L 147.476562 47.65625 Z M 166.964844 63.292969 L 166.964844 65.59375 L 184.28125 65.59375 L 184.28125 63.292969 Z M 123.613281 65.59375 L 164.664062 65.59375 L 164.664062 63.292969 L 123.613281 63.292969 Z M 103.996094 70.804688 L 120.9375 70.804688 L 120.9375 68.503906 L 103.996094 68.503906 L 103.996094 70.804688 " fill-opacity="1" fill-rule="nonzero"/></g><g clip-path="url(#fc127b6bba)"><path fill="#b4b4b4" d="M 157.046875 32.019531 L 137.984375 32.019531 L 137.984375 34.320312 L 157.046875 34.320312 Z M 137.550781 37.230469 L 103.996094 37.230469 L 103.996094 39.535156 L 137.550781 39.535156 Z M 132.359375 55.167969 L 155.417969 55.167969 L 155.417969 52.867188 L 132.359375 52.867188 Z M 121.3125 63.292969 L 103.996094 63.292969 L 103.996094 65.59375 L 121.3125 65.59375 Z M 153.722656 68.503906 L 153.722656 70.804688 L 158.671875 70.804688 L 158.671875 68.503906 Z M 114.617188 76.015625 L 153.921875 76.015625 L 153.921875 73.714844 L 114.617188 73.714844 L 114.617188 76.015625 " fill-opacity="1" fill-rule="nonzero"/></g><g clip-path="url(#3e969c734c)"><path fill="#b4b4b4" d="M 91.789062 23.898438 L 94.089844 23.898438 L 94.089844 21.59375 L 91.789062 21.59375 Z M 91.789062 29.109375 L 94.089844 29.109375 L 94.089844 26.808594 L 91.789062 26.808594 Z M 135.679688 32.019531 L 125.363281 32.019531 L 125.363281 34.320312 L 135.679688 34.320312 Z M 91.789062 34.320312 L 94.089844 34.320312 L 94.089844 32.019531 L 91.789062 32.019531 Z M 91.789062 39.535156 L 94.089844 39.535156 L 94.089844 37.230469 L 91.789062 37.230469 Z M 143.800781 42.445312 L 118.492188 42.445312 L 118.492188 44.746094 L 143.800781 44.746094 Z M 91.789062 44.746094 L 94.089844 44.746094 L 94.089844 42.445312 L 91.789062 42.445312 Z M 91.789062 49.957031 L 94.089844 49.957031 L 94.089844 47.65625 L 91.789062 47.65625 Z M 130.058594 52.867188 L 103.996094 52.867188 L 103.996094 55.167969 L 130.058594 55.167969 Z M 91.789062 55.167969 L 94.089844 55.167969 L 94.089844 52.867188 L 91.789062 52.867188 Z M 91.789062 60.378906 L 94.089844 60.378906 L 94.089844 58.078125 L 91.789062 58.078125 Z M 91.789062 65.59375 L 94.089844 65.59375 L 94.089844 63.292969 L 91.789062 63.292969 Z M 123.238281 68.503906 L 123.238281 70.804688 L 151.421875 70.804688 L 151.421875 68.503906 Z M 91.789062 70.804688 L 94.089844 70.804688 L 94.089844 68.503906 L 91.789062 68.503906 Z M 103.996094 76.015625 L 112.316406 76.015625 L 112.316406 73.714844 L 103.996094 73.714844 Z M 91.789062 76.015625 L 94.089844 76.015625 L 94.089844 73.714844 L 91.789062 73.714844 Z M 91.789062 81.230469 L 94.089844 81.230469 L 94.089844 78.929688 L 91.789062 78.929688 Z M 98.074219 87.351562 L 99.199219 87.351562 L 99.199219 19.640625 L 98.074219 19.640625 L 98.074219 87.351562 " fill-opacity="1" fill-rule="nonzero"/></g><g clip-path="url(#170dac7389)"><path fill="#737373" d="M 112.941406 26.808594 L 101.234375 26.808594 L 101.234375 29.109375 L 112.941406 29.109375 Z M 151.347656 37.230469 L 151.347656 39.535156 L 165.664062 39.535156 L 165.664062 37.230469 Z M 132.734375 49.957031 L 145.175781 49.957031 L 145.175781 47.65625 L 132.734375 47.65625 Z M 101.234375 60.378906 L 114.066406 60.378906 L 114.066406 58.078125 L 101.234375 58.078125 Z M 109.445312 78.929688 L 101.234375 78.929688 L 101.234375 81.230469 L 109.445312 81.230469 Z M 108.519531 24.953125 C 108.613281 24.953125 108.710938 24.917969 108.78125 24.84375 L 112.226562 21.402344 C 112.371094 21.257812 112.371094 21.019531 112.226562 20.871094 C 112.078125 20.726562 111.84375 20.726562 111.695312 20.871094 L 108.253906 24.316406 C 108.105469 24.460938 108.105469 24.699219 108.253906 24.84375 C 108.328125 24.917969 108.421875 24.953125 108.519531 24.953125 Z M 105.660156 25.050781 C 105.730469 25.125 105.828125 25.160156 105.925781 25.160156 C 106.019531 25.160156 106.117188 25.125 106.1875 25.050781 C 106.335938 24.902344 106.335938 24.667969 106.1875 24.519531 L 104.527344 22.859375 L 106.1875 21.195312 C 106.335938 21.050781 106.335938 20.8125 106.1875 20.667969 C 106.042969 20.519531 105.804688 20.519531 105.660156 20.667969 L 103.730469 22.59375 C 103.585938 22.738281 103.585938 22.976562 103.730469 23.125 Z M 114.921875 20.667969 C 114.777344 20.519531 114.539062 20.519531 114.394531 20.667969 C 114.246094 20.8125 114.246094 21.050781 114.394531 21.199219 L 114.394531 21.195312 L 116.054688 22.855469 L 114.394531 24.519531 C 114.246094 24.664062 114.246094 24.902344 114.394531 25.050781 C 114.464844 25.125 114.5625 25.160156 114.65625 25.160156 C 114.753906 25.160156 114.851562 25.125 114.921875 25.050781 L 116.847656 23.125 C 116.921875 23.050781 116.960938 22.957031 116.960938 22.859375 C 116.960938 22.757812 116.921875 22.664062 116.847656 22.59375 Z M 114.925781 83.046875 C 114.777344 82.898438 114.539062 82.898438 114.394531 83.046875 C 114.246094 83.191406 114.246094 83.429688 114.394531 83.574219 L 116.054688 85.234375 L 114.394531 86.898438 C 114.246094 87.042969 114.246094 87.28125 114.394531 87.425781 C 114.464844 87.5 114.5625 87.539062 114.65625 87.539062 C 114.753906 87.539062 114.851562 87.5 114.925781 87.425781 L 116.847656 85.5 C 116.921875 85.429688 116.960938 85.335938 116.960938 85.234375 C 116.960938 85.136719 116.921875 85.039062 116.847656 84.96875 Z M 106.1875 83.046875 C 106.042969 82.898438 105.804688 82.898438 105.660156 83.046875 L 105.660156 83.042969 L 103.730469 84.96875 C 103.585938 85.117188 103.585938 85.355469 103.730469 85.5 L 105.660156 87.425781 C 105.730469 87.5 105.828125 87.535156 105.925781 87.535156 C 106.019531 87.535156 106.117188 87.5 106.1875 87.429688 C 106.335938 87.28125 106.335938 87.042969 106.1875 86.898438 L 104.527344 85.234375 L 106.1875 83.574219 C 106.335938 83.429688 106.335938 83.191406 106.1875 83.046875 Z M 111.695312 83.25 L 108.253906 86.691406 C 108.105469 86.835938 108.105469 87.074219 108.253906 87.222656 C 108.328125 87.296875 108.421875 87.332031 108.519531 87.332031 C 108.613281 87.332031 108.710938 87.296875 108.785156 87.222656 L 112.226562 83.78125 C 112.371094 83.632812 112.371094 83.394531 112.226562 83.25 C 112.082031 83.101562 111.839844 83.101562 111.695312 83.25 " fill-opacity="1" fill-rule="nonzero"/></g></g></g></svg>