<svg xmlns="http://www.w3.org/2000/svg" xmlns:xlink="http://www.w3.org/1999/xlink" width="400" zoomAndPan="magnify" viewBox="0 0 300 262.499992" height="350" preserveAspectRatio="xMidYMid meet" version="1.0"><defs><clipPath id="8e22749f12"><path d="M 57.667969 61.773438 L 241.570312 61.773438 L 241.570312 166.625 L 57.667969 166.625 Z M 57.667969 61.773438 " clip-rule="nonzero"/></clipPath><clipPath id="7c33d78b9f"><path d="M 65.15625 61.773438 L 233.796875 61.773438 C 237.929688 61.773438 241.28125 65.125 241.28125 69.257812 L 241.28125 159.140625 C 241.28125 163.273438 237.929688 166.625 233.796875 166.625 L 65.15625 166.625 C 61.019531 166.625 57.667969 163.273438 57.667969 159.140625 L 57.667969 69.257812 C 57.667969 65.125 61.019531 61.773438 65.15625 61.773438 Z M 65.15625 61.773438 " clip-rule="nonzero"/></clipPath><clipPath id="b3b0e106c0"><path d="M 0.667969 0.773438 L 184.503906 0.773438 L 184.503906 105.625 L 0.667969 105.625 Z M 0.667969 0.773438 " clip-rule="nonzero"/></clipPath><clipPath id="95435267dd"><path d="M 8.15625 0.773438 L 176.796875 0.773438 C 180.929688 0.773438 184.28125 4.125 184.28125 8.257812 L 184.28125 98.140625 C 184.28125 102.273438 180.929688 105.625 176.796875 105.625 L 8.15625 105.625 C 4.019531 105.625 0.667969 102.273438 0.667969 98.140625 L 0.667969 8.257812 C 0.667969 4.125 4.019531 0.773438 8.15625 0.773438 Z M 8.15625 0.773438 " clip-rule="nonzero"/></clipPath><clipPath id="59df608bc2"><rect x="0" width="185" y="0" height="106"/></clipPath><clipPath id="65fa2394cb"><path d="M 1 1.175781 L 257 1.175781 L 257 170.871094 L 1 170.871094 Z M 1 1.175781 " clip-rule="nonzero"/></clipPath><clipPath id="01c048a6fa"><path d="M 62 34 L 166.640625 34 L 166.640625 92 L 62 92 Z M 62 34 " clip-rule="nonzero"/></clipPath><clipPath id="b3c8fcaf1a"><path d="M 46.683594 25.398438 L 124 25.398438 L 124 113 L 46.683594 113 Z M 46.683594 25.398438 " clip-rule="nonzero"/></clipPath><clipPath id="d1d69eef6b"><path d="M 58.679688 26.402344 L 142.167969 26.402344 L 142.167969 113.152344 L 58.679688 113.152344 Z M 58.679688 26.402344 " clip-rule="nonzero"/></clipPath><clipPath id="5bac21c15f"><path d="M 106.421875 25.398438 L 183.957031 25.398438 L 183.957031 113.171875 L 106.421875 113.171875 Z M 106.421875 25.398438 " clip-rule="nonzero"/></clipPath><clipPath id="fe8d254303"><path d="M 0.421875 9 L 77.957031 9 L 77.957031 67 L 0.421875 67 Z M 0.421875 9 " clip-rule="nonzero"/></clipPath><clipPath id="d97235186e"><path d="M 33 16 L 77.957031 16 L 77.957031 74 L 33 74 Z M 33 16 " clip-rule="nonzero"/></clipPath><clipPath id="23337c5783"><path d="M 42 0.398438 L 77.957031 0.398438 L 77.957031 88 L 42 88 Z M 42 0.398438 " clip-rule="nonzero"/></clipPath><clipPath id="99c67b5f24"><path d="M 24.40625 1.402344 L 77.957031 1.402344 L 77.957031 88.152344 L 24.40625 88.152344 Z M 24.40625 1.402344 " clip-rule="nonzero"/></clipPath><clipPath id="28c44f70c7"><rect x="0" width="78" y="0" height="89"/></clipPath><clipPath id="2805a78c3c"><path d="M 184.308594 34 L 209.175781 34 L 209.175781 92 L 184.308594 92 Z M 184.308594 34 " clip-rule="nonzero"/></clipPath><clipPath id="000d1fc8ba"><path d="M 184.308594 41 L 205 41 L 205 99 L 184.308594 99 Z M 184.308594 41 " clip-rule="nonzero"/></clipPath><clipPath id="a005548cae"><path d="M 184.308594 25.398438 L 196 25.398438 L 196 113 L 184.308594 113 Z M 184.308594 25.398438 " clip-rule="nonzero"/></clipPath><clipPath id="8a1d561d43"><path d="M 184.308594 26.402344 L 209.175781 26.402344 L 209.175781 113.152344 L 184.308594 113.152344 Z M 184.308594 26.402344 " clip-rule="nonzero"/></clipPath><clipPath id="1f72556cc9"><rect x="0" width="258" y="0" height="172"/></clipPath></defs><g clip-path="url(#8e22749f12)"><g clip-path="url(#7c33d78b9f)"><g transform="matrix(1, 0, 0, 1, 57, 61)"><g clip-path="url(#59df608bc2)"><g clip-path="url(#b3b0e106c0)"><g clip-path="url(#95435267dd)"><path fill="#ffffff" d="M 0.667969 0.773438 L 184.160156 0.773438 L 184.160156 105.625 L 0.667969 105.625 Z M 0.667969 0.773438 " fill-opacity="1" fill-rule="nonzero"/></g></g></g></g></g></g><g transform="matrix(1, 0, 0, 1, 21, 45)"><g clip-path="url(#1f72556cc9)"><g clip-path="url(#65fa2394cb)"><path fill="#000000" d="M 128.9375 170.824219 C 91.085938 170.824219 53.234375 170.816406 15.382812 170.800781 C 13.347656 170.8125 11.335938 170.601562 9.347656 170.160156 C 7.871094 169.78125 6.515625 169.140625 5.28125 168.246094 C 1.082031 165.304688 0.3125 161.019531 3.359375 156.910156 C 8.40625 150.085938 13.589844 143.386719 18.753906 136.675781 C 19.671875 135.554688 20.113281 134.269531 20.082031 132.824219 C 20.027344 93.9375 20.015625 55.050781 20.039062 16.164062 C 20.039062 9.089844 24.066406 3.53125 30.527344 1.878906 C 32.515625 1.371094 34.648438 1.28125 36.71875 1.277344 C 66.179688 1.238281 95.648438 1.21875 125.113281 1.21875 C 157.375 1.21875 189.636719 1.226562 221.894531 1.238281 C 228.824219 1.238281 234.324219 4.675781 236.410156 10.5625 C 237.066406 12.449219 237.394531 14.390625 237.394531 16.390625 C 237.441406 55.039062 237.441406 93.691406 237.394531 132.339844 C 237.394531 133.875 237.730469 135.089844 238.714844 136.320312 C 243.8125 142.746094 248.800781 149.234375 253.839844 155.699219 C 254.070312 155.980469 254.300781 156.292969 254.527344 156.597656 C 257.777344 160.988281 256.910156 165.691406 252.304688 168.640625 C 249.746094 170.269531 246.902344 170.835938 243.910156 170.835938 C 224.109375 170.820312 204.308594 170.820312 184.503906 170.835938 Z M 231.496094 132.367188 L 231.496094 130.949219 C 231.496094 92.824219 231.496094 54.699219 231.496094 16.578125 C 231.5 10.53125 228.125 7.1875 222.082031 7.1875 C 174.136719 7.199219 126.203125 7.210938 78.273438 7.222656 C 63.828125 7.222656 49.382812 7.203125 34.933594 7.167969 C 31.164062 7.167969 28.226562 8.617188 26.75 12.132812 C 26.113281 13.640625 26 15.453125 26 17.132812 C 25.96875 55.070312 25.96875 93.003906 26 130.9375 C 26 131.394531 26.046875 131.855469 26.070312 132.378906 Z M 210.710938 151.191406 C 211.378906 152 211.871094 152.457031 212.195312 153.007812 C 213.292969 154.902344 214.878906 155.347656 217.027344 155.261719 C 221.707031 155.074219 226.40625 155.183594 231.089844 155.183594 C 233.628906 155.183594 234.976562 156.21875 234.960938 158.121094 C 234.960938 159.824219 233.578125 160.859375 231.222656 160.914062 C 230.371094 160.933594 229.519531 160.933594 228.667969 160.933594 L 30.296875 160.933594 C 29.019531 160.933594 27.742188 160.980469 26.464844 160.878906 C 24.53125 160.71875 23.335938 159.097656 23.738281 157.324219 C 24.046875 155.984375 25.296875 155.1875 27.179688 155.183594 C 34.09375 155.183594 41.011719 155.183594 47.929688 155.183594 C 48.398438 155.183594 49.066406 155.289062 49.300781 155.035156 C 50.378906 153.898438 51.34375 152.652344 52.507812 151.257812 C 51.878906 151.222656 51.601562 151.195312 51.324219 151.195312 C 45.355469 151.195312 39.386719 151.195312 33.417969 151.171875 C 31.507812 151.171875 30.25 149.941406 30.265625 148.246094 C 30.285156 146.550781 31.449219 145.5 33.359375 145.4375 C 34.683594 145.394531 36.039062 145.246094 37.339844 145.457031 C 40.796875 146.027344 43.308594 144.890625 45.195312 141.921875 C 45.976562 140.695312 47.125 139.699219 48.292969 138.386719 C 40.820312 138.386719 33.714844 138.414062 26.613281 138.355469 C 26.121094 138.320312 25.652344 138.410156 25.207031 138.628906 C 24.761719 138.84375 24.402344 139.15625 24.121094 139.5625 C 18.863281 146.449219 13.589844 153.316406 8.296875 160.175781 C 7.261719 161.523438 7.375 162.519531 8.753906 163.535156 C 9.347656 163.976562 10.054688 164.417969 10.761719 164.523438 C 12.625 164.824219 14.5 164.992188 16.386719 165.023438 C 78.910156 165.023438 141.433594 165.011719 203.957031 164.992188 C 217.171875 164.992188 230.390625 165.074219 243.601562 164.992188 C 245.496094 164.9375 247.304688 164.515625 249.027344 163.730469 C 250.730469 162.976562 250.863281 161.550781 249.75 160.128906 C 244.308594 153.199219 238.867188 146.269531 233.425781 139.335938 C 233.199219 139.007812 232.902344 138.753906 232.542969 138.582031 C 232.179688 138.40625 231.796875 138.332031 231.398438 138.363281 C 226.472656 138.414062 221.546875 138.386719 216.617188 138.394531 C 216.269531 138.394531 215.917969 138.425781 215.328125 138.460938 C 216.675781 139.996094 217.917969 141.289062 219.023438 142.699219 C 220.480469 144.566406 222.039062 146.070312 224.679688 145.445312 C 224.820312 145.429688 224.960938 145.441406 225.101562 145.476562 C 226.703125 145.6875 227.78125 146.804688 227.792969 148.265625 C 227.804688 149.726562 226.65625 151 225.023438 151.140625 C 224.128906 151.214844 223.226562 151.183594 222.324219 151.183594 Z M 91.328125 155.121094 L 154.1875 155.121094 C 153.558594 154.054688 152.945312 153.160156 152.484375 152.195312 C 152.09375 151.390625 151.570312 151.164062 150.703125 151.175781 C 147.25 151.222656 143.796875 151.199219 140.339844 151.199219 C 125.246094 151.199219 110.152344 151.214844 95.054688 151.242188 C 94.503906 151.242188 93.734375 151.371094 93.441406 151.738281 C 92.660156 152.726562 92.085938 153.875 91.328125 155.121094 Z M 93.9375 138.617188 C 93.746094 138.507812 93.675781 138.425781 93.601562 138.425781 C 87.214844 138.414062 80.828125 138.410156 74.4375 138.410156 C 74.132812 138.410156 73.699219 138.472656 73.539062 138.675781 C 71.820312 140.835938 70.128906 143.03125 68.425781 145.261719 C 68.726562 145.398438 68.804688 145.46875 68.882812 145.46875 C 75.648438 145.46875 82.414062 145.453125 89.183594 145.429688 C 89.511719 145.429688 90 145.277344 90.144531 145.039062 C 91.449219 142.917969 92.6875 140.757812 93.941406 138.617188 Z M 126.191406 138.40625 C 123.917969 138.40625 121.78125 138.542969 119.652344 138.359375 C 117.902344 138.207031 116.972656 138.8125 116.339844 140.40625 C 115.671875 142.085938 114.769531 143.667969 113.929688 145.382812 L 126.179688 145.382812 Z M 178.625 145.457031 C 177.179688 143.066406 175.886719 140.890625 174.550781 138.738281 C 174.359375 138.527344 174.117188 138.421875 173.832031 138.425781 C 170.824219 138.402344 167.820312 138.410156 164.582031 138.410156 C 165.949219 140.761719 167.1875 142.921875 168.472656 145.050781 C 168.691406 145.308594 168.96875 145.4375 169.304688 145.441406 C 172.316406 145.46875 175.324219 145.457031 178.628906 145.457031 Z M 50.214844 145.4375 C 52.445312 145.4375 54.304688 145.21875 56.097656 145.480469 C 59.351562 145.957031 61.578125 144.839844 63.140625 141.976562 C 63.816406 140.742188 64.863281 139.703125 65.878906 138.40625 C 62.730469 138.40625 59.910156 138.386719 57.070312 138.425781 C 56.644531 138.4375 56.28125 138.589844 55.976562 138.886719 C 54.105469 140.949219 52.289062 143.058594 50.21875 145.4375 Z M 132.585938 145.375 L 144.199219 145.375 C 142.9375 143.066406 141.777344 140.921875 140.585938 138.789062 C 140.464844 138.585938 140.285156 138.464844 140.050781 138.429688 C 137.5625 138.40625 135.078125 138.414062 132.578125 138.414062 Z M 161.296875 145.4375 C 159.9375 143.0625 158.707031 140.902344 157.453125 138.753906 C 157.3125 138.554688 157.125 138.445312 156.882812 138.425781 C 153.886719 138.40625 150.882812 138.414062 147.652344 138.414062 C 148.941406 140.730469 150.082031 142.839844 151.292969 144.90625 C 151.5625 145.230469 151.90625 145.402344 152.328125 145.414062 C 155.210938 145.453125 158.089844 145.4375 161.292969 145.4375 Z M 198.304688 138.394531 C 200.0625 140.792969 201.585938 142.890625 203.136719 144.960938 C 203.34375 145.226562 203.613281 145.382812 203.945312 145.425781 C 206.941406 145.457031 209.941406 145.445312 213.324219 145.445312 C 211.164062 142.988281 209.253906 140.804688 207.324219 138.625 C 207.144531 138.46875 206.933594 138.394531 206.695312 138.398438 C 204.007812 138.390625 201.332031 138.394531 198.304688 138.394531 Z M 195.78125 145.441406 C 194.046875 143.050781 192.492188 140.894531 190.90625 138.746094 C 190.710938 138.535156 190.476562 138.429688 190.191406 138.421875 C 187.476562 138.398438 184.757812 138.421875 181.769531 138.421875 C 183.234375 140.789062 184.558594 142.945312 185.914062 145.078125 C 186.09375 145.304688 186.328125 145.421875 186.617188 145.4375 C 189.5625 145.449219 192.519531 145.441406 195.78125 145.441406 Z M 97.289062 145.441406 C 99.847656 145.441406 102.097656 145.28125 104.300781 145.488281 C 106.207031 145.671875 107.242188 145.058594 107.921875 143.28125 C 108.546875 141.644531 109.492188 140.132812 110.371094 138.417969 C 107.40625 138.417969 104.707031 138.398438 102.011719 138.4375 C 101.632812 138.449219 101.324219 138.601562 101.085938 138.894531 C 99.824219 140.980469 98.621094 143.109375 97.296875 145.429688 Z M 188.910156 155.183594 C 188.234375 154.136719 187.628906 153.308594 187.136719 152.414062 C 186.648438 151.523438 185.980469 151.085938 184.863281 151.175781 C 183.460938 151.292969 182.023438 151.210938 180.621094 151.214844 L 176.15625 151.214844 C 177.007812 152.535156 177.648438 153.617188 178.359375 154.667969 C 178.542969 154.941406 178.796875 155.105469 179.121094 155.164062 C 182.308594 155.199219 185.496094 155.183594 188.910156 155.183594 Z M 57.25 155.183594 C 60.660156 155.183594 63.828125 155.183594 66.980469 155.183594 C 67.21875 155.164062 67.414062 155.0625 67.566406 154.878906 C 68.402344 153.757812 69.207031 152.605469 70.183594 151.257812 C 66.878906 151.257812 63.867188 151.257812 60.859375 151.273438 C 60.519531 151.292969 60.238281 151.429688 60.007812 151.679688 C 59.121094 152.738281 58.28125 153.859375 57.25 155.179688 Z M 159.355469 151.203125 C 160.167969 152.585938 160.777344 153.6875 161.464844 154.761719 C 161.625 154.996094 161.84375 155.128906 162.125 155.160156 C 164.988281 155.1875 167.851562 155.179688 170.9375 155.179688 C 170.144531 153.894531 169.484375 152.765625 168.746094 151.691406 C 168.507812 151.402344 168.199219 151.246094 167.820312 151.226562 C 165.082031 151.1875 162.347656 151.203125 159.355469 151.203125 Z M 194.085938 151.203125 C 194.996094 152.574219 195.710938 153.675781 196.460938 154.746094 C 196.617188 154.976562 196.835938 155.117188 197.113281 155.160156 C 199.917969 155.1875 202.726562 155.179688 205.789062 155.179688 C 204.804688 153.847656 203.992188 152.710938 203.128906 151.617188 C 202.90625 151.371094 202.628906 151.242188 202.300781 151.222656 C 199.667969 151.191406 197.03125 151.203125 194.085938 151.203125 Z M 75.128906 155.183594 C 78.054688 155.183594 80.652344 155.183594 83.25 155.183594 C 83.503906 155.183594 83.875 155.105469 83.992188 154.925781 C 84.765625 153.773438 85.484375 152.582031 86.320312 151.234375 C 83.550781 151.234375 81.054688 151.214844 78.558594 151.257812 C 78.179688 151.289062 77.867188 151.453125 77.621094 151.742188 C 76.816406 152.785156 76.074219 153.871094 75.125 155.191406 Z M 128.5625 125.859375 C 99.90625 125.859375 71.25 125.859375 42.597656 125.859375 C 37.878906 125.859375 34.207031 122.957031 33.265625 118.515625 C 33.140625 117.859375 33.085938 117.195312 33.097656 116.527344 C 33.097656 85.792969 33.105469 55.0625 33.117188 24.328125 C 33.117188 18.425781 37.191406 14.449219 43.230469 14.441406 C 70.707031 14.398438 98.179688 14.382812 125.644531 14.394531 C 154.726562 14.394531 183.808594 14.398438 212.890625 14.410156 C 214.347656 14.410156 215.859375 14.449219 217.246094 14.828125 C 218.226562 15.09375 219.140625 15.511719 219.984375 16.074219 C 220.832031 16.636719 221.566406 17.320312 222.1875 18.125 C 222.8125 18.925781 223.292969 19.804688 223.628906 20.765625 C 223.96875 21.722656 224.144531 22.710938 224.160156 23.726562 C 224.265625 29.410156 224.226562 35.09375 224.230469 40.777344 C 224.230469 65.789062 224.230469 90.796875 224.230469 115.804688 C 224.230469 120.636719 221.671875 124.34375 217.457031 125.484375 C 216.210938 125.78125 214.945312 125.910156 213.667969 125.878906 C 185.292969 125.898438 156.921875 125.90625 128.554688 125.894531 Z M 128.5625 120.03125 L 213.554688 120.03125 C 214.027344 120.03125 214.503906 120.03125 214.972656 119.984375 C 216.894531 119.796875 218.101562 118.5625 218.183594 116.65625 C 218.21875 115.996094 218.207031 115.332031 218.207031 114.667969 C 218.207031 86.628906 218.207031 58.589844 218.207031 30.546875 C 218.207031 28.417969 218.25 26.285156 218.1875 24.15625 C 218.125 22.027344 216.628906 20.542969 214.496094 20.410156 C 213.929688 20.375 213.359375 20.386719 212.792969 20.386719 L 44.820312 20.386719 C 43.964844 20.363281 43.113281 20.390625 42.261719 20.46875 C 41.835938 20.519531 41.429688 20.640625 41.046875 20.832031 C 40.664062 21.023438 40.324219 21.273438 40.03125 21.585938 C 39.734375 21.898438 39.503906 22.253906 39.335938 22.648438 C 39.164062 23.039062 39.070312 23.453125 39.042969 23.878906 C 38.980469 24.917969 38.992188 25.964844 38.992188 27.007812 C 38.992188 47.515625 38.992188 68.019531 38.992188 88.527344 C 38.992188 97.765625 39.007812 107 39.035156 116.234375 C 39.035156 118.046875 39.933594 119.414062 41.449219 119.839844 C 42.191406 120.003906 42.941406 120.070312 43.699219 120.03125 C 71.992188 120.035156 100.28125 120.035156 128.5625 120.03125 Z M 128.5625 120.03125 " fill-opacity="1" fill-rule="nonzero"/></g><g clip-path="url(#01c048a6fa)"><path fill="#737373" d="M 84.542969 34.703125 L 76.980469 34.703125 L 76.980469 37.675781 L 84.542969 37.675781 Z M 87.078125 41.433594 L 62.453125 41.433594 L 62.453125 44.40625 L 87.078125 44.40625 Z M 120.648438 48.167969 L 108.773438 48.167969 L 108.773438 51.140625 L 120.648438 51.140625 Z M 78.203125 54.902344 L 62.453125 54.902344 L 62.453125 57.875 L 78.203125 57.875 Z M 96.601562 61.632812 L 62.453125 61.632812 L 62.453125 64.605469 L 96.601562 64.605469 Z M 118.621094 64.605469 L 152.765625 64.605469 L 152.765625 61.632812 L 118.621094 61.632812 Z M 143.792969 81.832031 L 143.792969 84.804688 L 166.160156 84.804688 L 166.160156 81.832031 Z M 87.792969 84.804688 L 140.820312 84.804688 L 140.820312 81.832031 L 87.792969 81.832031 Z M 62.453125 91.535156 L 84.335938 91.535156 L 84.335938 88.5625 L 62.453125 88.5625 L 62.453125 91.535156 " fill-opacity="1" fill-rule="nonzero"/></g><path fill="#545454" d="M 130.980469 41.433594 L 106.355469 41.433594 L 106.355469 44.40625 L 130.980469 44.40625 Z M 105.800781 48.167969 L 62.453125 48.167969 L 62.453125 51.140625 L 105.800781 51.140625 Z M 99.089844 71.339844 L 128.878906 71.339844 L 128.878906 68.367188 L 99.089844 68.367188 Z M 84.820312 81.832031 L 62.453125 81.832031 L 62.453125 84.804688 L 84.820312 84.804688 Z M 126.6875 88.5625 L 126.6875 91.535156 L 133.078125 91.535156 L 133.078125 88.5625 Z M 76.171875 98.269531 L 126.945312 98.269531 L 126.945312 95.296875 L 76.171875 95.296875 L 76.171875 98.269531 " fill-opacity="1" fill-rule="nonzero"/><g clip-path="url(#b3c8fcaf1a)"><path fill="#b4b4b4" d="M 46.683594 30.941406 L 49.65625 30.941406 L 49.65625 27.96875 L 46.683594 27.96875 Z M 46.683594 37.675781 L 49.65625 37.675781 L 49.65625 34.703125 L 46.683594 34.703125 Z M 103.382812 41.433594 L 90.050781 41.433594 L 90.050781 44.40625 L 103.382812 44.40625 Z M 46.683594 44.40625 L 49.65625 44.40625 L 49.65625 41.433594 L 46.683594 41.433594 Z M 46.683594 51.140625 L 49.65625 51.140625 L 49.65625 48.167969 L 46.683594 48.167969 Z M 113.871094 54.902344 L 81.175781 54.902344 L 81.175781 57.875 L 113.871094 57.875 Z M 46.683594 57.875 L 49.65625 57.875 L 49.65625 54.902344 L 46.683594 54.902344 Z M 46.683594 64.605469 L 49.65625 64.605469 L 49.65625 61.632812 L 46.683594 61.632812 Z M 96.117188 68.367188 L 62.453125 68.367188 L 62.453125 71.339844 L 96.117188 71.339844 Z M 46.683594 71.339844 L 49.65625 71.339844 L 49.65625 68.367188 L 46.683594 68.367188 Z M 46.683594 78.070312 L 49.65625 78.070312 L 49.65625 75.097656 L 46.683594 75.097656 Z M 46.683594 84.804688 L 49.65625 84.804688 L 49.65625 81.832031 L 46.683594 81.832031 Z M 87.308594 88.5625 L 87.308594 91.535156 L 123.714844 91.535156 L 123.714844 88.5625 Z M 46.683594 91.535156 L 49.65625 91.535156 L 49.65625 88.5625 L 46.683594 88.5625 Z M 62.453125 98.269531 L 73.199219 98.269531 L 73.199219 95.296875 L 62.453125 95.296875 Z M 46.683594 98.269531 L 49.65625 98.269531 L 49.65625 95.296875 L 46.683594 95.296875 Z M 46.683594 105.003906 L 49.65625 105.003906 L 49.65625 102.03125 L 46.683594 102.03125 Z M 54.804688 112.910156 L 56.253906 112.910156 L 56.253906 25.441406 L 54.804688 25.441406 L 54.804688 112.910156 " fill-opacity="1" fill-rule="nonzero"/></g><g clip-path="url(#d1d69eef6b)"><path fill="#a6a6a6" d="M 74.007812 34.703125 L 58.882812 34.703125 L 58.882812 37.675781 L 74.007812 37.675781 Z M 123.621094 48.167969 L 123.621094 51.140625 L 142.113281 51.140625 L 142.113281 48.167969 Z M 99.574219 64.605469 L 115.648438 64.605469 L 115.648438 61.632812 L 99.574219 61.632812 Z M 58.882812 78.070312 L 75.460938 78.070312 L 75.460938 75.097656 L 58.882812 75.097656 Z M 69.488281 102.03125 L 58.882812 102.03125 L 58.882812 105.003906 L 69.488281 105.003906 Z M 68.292969 32.308594 C 68.417969 32.308594 68.542969 32.261719 68.636719 32.167969 L 73.082031 27.71875 C 73.269531 27.53125 73.269531 27.222656 73.082031 27.035156 C 72.894531 26.84375 72.585938 26.84375 72.398438 27.035156 L 67.949219 31.480469 C 67.761719 31.671875 67.761719 31.976562 67.949219 32.167969 C 68.046875 32.261719 68.167969 32.308594 68.292969 32.308594 Z M 64.601562 32.429688 C 64.695312 32.527344 64.816406 32.574219 64.941406 32.574219 C 65.066406 32.574219 65.1875 32.527344 65.285156 32.429688 C 65.472656 32.242188 65.472656 31.9375 65.285156 31.746094 L 63.136719 29.601562 L 65.285156 27.453125 C 65.472656 27.265625 65.472656 26.957031 65.285156 26.769531 C 65.09375 26.578125 64.789062 26.578125 64.601562 26.769531 L 62.109375 29.257812 C 61.921875 29.445312 61.921875 29.753906 62.109375 29.941406 Z M 76.566406 26.769531 C 76.378906 26.578125 76.070312 26.578125 75.882812 26.769531 C 75.695312 26.957031 75.695312 27.265625 75.882812 27.457031 L 75.882812 27.453125 L 78.027344 29.597656 L 75.882812 31.746094 C 75.695312 31.933594 75.695312 32.242188 75.882812 32.433594 C 75.976562 32.527344 76.101562 32.574219 76.222656 32.574219 C 76.347656 32.574219 76.472656 32.527344 76.566406 32.433594 L 79.054688 29.941406 C 79.148438 29.851562 79.195312 29.730469 79.195312 29.601562 C 79.195312 29.46875 79.148438 29.347656 79.054688 29.257812 Z M 76.566406 107.347656 C 76.378906 107.15625 76.070312 107.15625 75.882812 107.347656 C 75.695312 107.535156 75.695312 107.84375 75.882812 108.03125 L 78.027344 110.179688 L 75.882812 112.324219 C 75.691406 112.511719 75.691406 112.820312 75.882812 113.007812 C 75.976562 113.105469 76.101562 113.152344 76.222656 113.152344 C 76.347656 113.152344 76.472656 113.105469 76.566406 113.007812 L 79.054688 110.519531 C 79.148438 110.429688 79.195312 110.304688 79.195312 110.179688 C 79.195312 110.046875 79.148438 109.925781 79.054688 109.835938 Z M 65.285156 107.347656 C 65.09375 107.15625 64.789062 107.15625 64.601562 107.347656 L 62.109375 109.835938 C 61.921875 110.023438 61.921875 110.332031 62.109375 110.519531 L 64.601562 113.007812 C 64.695312 113.101562 64.816406 113.148438 64.941406 113.148438 C 65.066406 113.148438 65.1875 113.105469 65.285156 113.011719 C 65.472656 112.820312 65.472656 112.511719 65.285156 112.324219 L 63.136719 110.179688 L 65.285156 108.03125 C 65.472656 107.84375 65.472656 107.535156 65.285156 107.347656 Z M 72.398438 107.613281 L 67.949219 112.058594 C 67.761719 112.246094 67.761719 112.554688 67.949219 112.742188 C 68.046875 112.839844 68.167969 112.886719 68.292969 112.886719 C 68.417969 112.886719 68.542969 112.839844 68.636719 112.742188 L 73.082031 108.296875 C 73.269531 108.105469 73.269531 107.800781 73.082031 107.613281 C 72.894531 107.421875 72.585938 107.421875 72.398438 107.613281 " fill-opacity="1" fill-rule="nonzero"/></g><g clip-path="url(#5bac21c15f)"><g transform="matrix(1, 0, 0, 1, 106, 25)"><g clip-path="url(#28c44f70c7)"><g clip-path="url(#fe8d254303)"><path fill="#737373" d="M 82.035156 9.703125 L 89.597656 9.703125 L 89.597656 12.675781 L 82.035156 12.675781 Z M 79.496094 16.433594 L 104.121094 16.433594 L 104.121094 19.40625 L 79.496094 19.40625 Z M 45.925781 23.167969 L 57.804688 23.167969 L 57.804688 26.140625 L 45.925781 26.140625 Z M 88.371094 29.902344 L 104.121094 29.902344 L 104.121094 32.875 L 88.371094 32.875 Z M 69.972656 36.632812 L 104.121094 36.632812 L 104.121094 39.605469 L 69.972656 39.605469 Z M 47.957031 39.605469 L 13.808594 39.605469 L 13.808594 36.632812 L 47.957031 36.632812 Z M 22.78125 56.832031 L 22.78125 59.804688 L 0.414062 59.804688 L 0.414062 56.832031 Z M 78.78125 59.804688 L 25.753906 59.804688 L 25.753906 56.832031 L 78.78125 56.832031 Z M 104.121094 66.535156 L 82.238281 66.535156 L 82.238281 63.5625 L 104.121094 63.5625 L 104.121094 66.535156 " fill-opacity="1" fill-rule="nonzero"/></g><g clip-path="url(#d97235186e)"><path fill="#545454" d="M 35.597656 16.433594 L 60.222656 16.433594 L 60.222656 19.40625 L 35.597656 19.40625 Z M 60.777344 23.167969 L 104.121094 23.167969 L 104.121094 26.140625 L 60.777344 26.140625 Z M 67.488281 46.339844 L 37.695312 46.339844 L 37.695312 43.367188 L 67.488281 43.367188 Z M 81.757812 56.832031 L 104.121094 56.832031 L 104.121094 59.804688 L 81.757812 59.804688 Z M 39.886719 63.5625 L 39.886719 66.535156 L 33.496094 66.535156 L 33.496094 63.5625 Z M 90.402344 73.269531 L 39.632812 73.269531 L 39.632812 70.296875 L 90.402344 70.296875 L 90.402344 73.269531 " fill-opacity="1" fill-rule="nonzero"/></g><g clip-path="url(#23337c5783)"><path fill="#b4b4b4" d="M 119.890625 5.941406 L 116.917969 5.941406 L 116.917969 2.96875 L 119.890625 2.96875 Z M 119.890625 12.675781 L 116.917969 12.675781 L 116.917969 9.703125 L 119.890625 9.703125 Z M 63.195312 16.433594 L 76.523438 16.433594 L 76.523438 19.40625 L 63.195312 19.40625 Z M 119.890625 19.40625 L 116.917969 19.40625 L 116.917969 16.433594 L 119.890625 16.433594 Z M 119.890625 26.140625 L 116.917969 26.140625 L 116.917969 23.167969 L 119.890625 23.167969 Z M 52.703125 29.902344 L 85.398438 29.902344 L 85.398438 32.875 L 52.703125 32.875 Z M 119.890625 32.875 L 116.917969 32.875 L 116.917969 29.902344 L 119.890625 29.902344 Z M 119.890625 39.605469 L 116.917969 39.605469 L 116.917969 36.632812 L 119.890625 36.632812 Z M 70.457031 43.367188 L 104.121094 43.367188 L 104.121094 46.339844 L 70.457031 46.339844 Z M 119.890625 46.339844 L 116.917969 46.339844 L 116.917969 43.367188 L 119.890625 43.367188 Z M 119.890625 53.070312 L 116.917969 53.070312 L 116.917969 50.097656 L 119.890625 50.097656 Z M 119.890625 59.804688 L 116.917969 59.804688 L 116.917969 56.832031 L 119.890625 56.832031 Z M 79.269531 63.5625 L 79.269531 66.535156 L 42.859375 66.535156 L 42.859375 63.5625 Z M 119.890625 66.535156 L 116.917969 66.535156 L 116.917969 63.5625 L 119.890625 63.5625 Z M 104.121094 73.269531 L 93.375 73.269531 L 93.375 70.296875 L 104.121094 70.296875 Z M 119.890625 73.269531 L 116.917969 73.269531 L 116.917969 70.296875 L 119.890625 70.296875 Z M 119.890625 80.003906 L 116.917969 80.003906 L 116.917969 77.03125 L 119.890625 77.03125 Z M 111.773438 87.910156 L 110.320312 87.910156 L 110.320312 0.441406 L 111.773438 0.441406 L 111.773438 87.910156 " fill-opacity="1" fill-rule="nonzero"/></g><g clip-path="url(#99c67b5f24)"><path fill="#a6a6a6" d="M 92.570312 9.703125 L 107.691406 9.703125 L 107.691406 12.675781 L 92.570312 12.675781 Z M 42.953125 23.167969 L 42.953125 26.140625 L 24.460938 26.140625 L 24.460938 23.167969 Z M 67.003906 39.605469 L 50.929688 39.605469 L 50.929688 36.632812 L 67.003906 36.632812 Z M 107.691406 53.070312 L 91.117188 53.070312 L 91.117188 50.097656 L 107.691406 50.097656 Z M 97.085938 77.03125 L 107.691406 77.03125 L 107.691406 80.003906 L 97.085938 80.003906 Z M 98.28125 7.308594 C 98.15625 7.308594 98.035156 7.261719 97.941406 7.167969 L 93.492188 2.71875 C 93.304688 2.53125 93.304688 2.222656 93.492188 2.035156 C 93.683594 1.84375 93.988281 1.84375 94.179688 2.035156 L 98.625 6.480469 C 98.8125 6.671875 98.8125 6.976562 98.625 7.167969 C 98.53125 7.261719 98.40625 7.308594 98.28125 7.308594 Z M 101.976562 7.429688 C 101.882812 7.527344 101.757812 7.574219 101.632812 7.574219 C 101.511719 7.574219 101.386719 7.527344 101.292969 7.429688 C 101.101562 7.242188 101.101562 6.9375 101.289062 6.746094 L 103.4375 4.601562 L 101.292969 2.453125 C 101.101562 2.265625 101.101562 1.957031 101.292969 1.769531 C 101.480469 1.578125 101.789062 1.578125 101.976562 1.769531 L 104.464844 4.257812 C 104.652344 4.445312 104.652344 4.753906 104.464844 4.941406 Z M 90.007812 1.769531 C 90.199219 1.578125 90.503906 1.578125 90.695312 1.769531 C 90.882812 1.957031 90.882812 2.265625 90.695312 2.457031 L 90.695312 2.453125 L 88.546875 4.597656 L 90.695312 6.746094 C 90.882812 6.933594 90.882812 7.242188 90.695312 7.433594 C 90.597656 7.527344 90.472656 7.574219 90.351562 7.574219 C 90.226562 7.574219 90.101562 7.527344 90.007812 7.433594 L 87.519531 4.941406 C 87.429688 4.851562 87.378906 4.730469 87.378906 4.601562 C 87.378906 4.46875 87.429688 4.347656 87.519531 4.257812 Z M 90.007812 82.347656 C 90.199219 82.15625 90.503906 82.15625 90.695312 82.347656 C 90.882812 82.535156 90.882812 82.84375 90.695312 83.03125 L 88.546875 85.179688 L 90.695312 87.324219 C 90.882812 87.511719 90.882812 87.820312 90.695312 88.007812 C 90.597656 88.105469 90.476562 88.152344 90.351562 88.152344 C 90.226562 88.152344 90.101562 88.105469 90.007812 88.007812 L 87.519531 85.519531 C 87.429688 85.429688 87.378906 85.304688 87.378906 85.179688 C 87.378906 85.046875 87.429688 84.925781 87.519531 84.835938 Z M 101.289062 82.347656 C 101.480469 82.15625 101.789062 82.15625 101.976562 82.347656 L 104.464844 84.835938 C 104.652344 85.023438 104.652344 85.332031 104.464844 85.519531 L 101.976562 88.007812 C 101.882812 88.101562 101.757812 88.148438 101.632812 88.148438 C 101.507812 88.148438 101.386719 88.105469 101.289062 88.011719 C 101.101562 87.820312 101.101562 87.511719 101.289062 87.324219 L 103.4375 85.179688 L 101.289062 83.03125 C 101.101562 82.84375 101.101562 82.535156 101.289062 82.347656 Z M 94.179688 82.613281 L 98.625 87.058594 C 98.8125 87.246094 98.8125 87.554688 98.625 87.742188 C 98.53125 87.839844 98.40625 87.886719 98.28125 87.886719 C 98.15625 87.886719 98.035156 87.839844 97.941406 87.742188 L 93.492188 83.296875 C 93.304688 83.105469 93.304688 82.800781 93.492188 82.613281 C 93.679688 82.421875 93.988281 82.421875 94.179688 82.613281 " fill-opacity="1" fill-rule="nonzero"/></g></g></g></g><g clip-path="url(#2805a78c3c)"><path fill="#737373" d="M 156.253906 34.703125 L 148.691406 34.703125 L 148.691406 37.675781 L 156.253906 37.675781 Z M 158.789062 41.433594 L 134.164062 41.433594 L 134.164062 44.40625 L 158.789062 44.40625 Z M 192.359375 48.167969 L 180.480469 48.167969 L 180.480469 51.140625 L 192.359375 51.140625 Z M 149.914062 54.902344 L 134.164062 54.902344 L 134.164062 57.875 L 149.914062 57.875 Z M 168.3125 61.632812 L 134.164062 61.632812 L 134.164062 64.605469 L 168.3125 64.605469 Z M 190.328125 64.605469 L 224.476562 64.605469 L 224.476562 61.632812 L 190.328125 61.632812 Z M 215.503906 81.832031 L 215.503906 84.804688 L 237.871094 84.804688 L 237.871094 81.832031 Z M 159.503906 84.804688 L 212.53125 84.804688 L 212.53125 81.832031 L 159.503906 81.832031 Z M 134.164062 91.535156 L 156.046875 91.535156 L 156.046875 88.5625 L 134.164062 88.5625 L 134.164062 91.535156 " fill-opacity="1" fill-rule="nonzero"/></g><g clip-path="url(#000d1fc8ba)"><path fill="#b4b4b4" d="M 202.691406 41.433594 L 178.066406 41.433594 L 178.066406 44.40625 L 202.691406 44.40625 Z M 177.507812 48.167969 L 134.164062 48.167969 L 134.164062 51.140625 L 177.507812 51.140625 Z M 170.800781 71.339844 L 200.589844 71.339844 L 200.589844 68.367188 L 170.800781 68.367188 Z M 156.53125 81.832031 L 134.164062 81.832031 L 134.164062 84.804688 L 156.53125 84.804688 Z M 198.398438 88.5625 L 198.398438 91.535156 L 204.789062 91.535156 L 204.789062 88.5625 Z M 147.882812 98.269531 L 198.65625 98.269531 L 198.65625 95.296875 L 147.882812 95.296875 L 147.882812 98.269531 " fill-opacity="1" fill-rule="nonzero"/></g><g clip-path="url(#a005548cae)"><path fill="#b4b4b4" d="M 118.394531 30.941406 L 121.367188 30.941406 L 121.367188 27.96875 L 118.394531 27.96875 Z M 118.394531 37.675781 L 121.367188 37.675781 L 121.367188 34.703125 L 118.394531 34.703125 Z M 175.089844 41.433594 L 161.761719 41.433594 L 161.761719 44.40625 L 175.089844 44.40625 Z M 118.394531 44.40625 L 121.367188 44.40625 L 121.367188 41.433594 L 118.394531 41.433594 Z M 118.394531 51.140625 L 121.367188 51.140625 L 121.367188 48.167969 L 118.394531 48.167969 Z M 185.582031 54.902344 L 152.886719 54.902344 L 152.886719 57.875 L 185.582031 57.875 Z M 118.394531 57.875 L 121.367188 57.875 L 121.367188 54.902344 L 118.394531 54.902344 Z M 118.394531 64.605469 L 121.367188 64.605469 L 121.367188 61.632812 L 118.394531 61.632812 Z M 167.828125 68.367188 L 134.164062 68.367188 L 134.164062 71.339844 L 167.828125 71.339844 Z M 118.394531 71.339844 L 121.367188 71.339844 L 121.367188 68.367188 L 118.394531 68.367188 Z M 118.394531 78.070312 L 121.367188 78.070312 L 121.367188 75.097656 L 118.394531 75.097656 Z M 118.394531 84.804688 L 121.367188 84.804688 L 121.367188 81.832031 L 118.394531 81.832031 Z M 159.019531 88.5625 L 159.019531 91.535156 L 195.425781 91.535156 L 195.425781 88.5625 Z M 118.394531 91.535156 L 121.367188 91.535156 L 121.367188 88.5625 L 118.394531 88.5625 Z M 134.164062 98.269531 L 144.910156 98.269531 L 144.910156 95.296875 L 134.164062 95.296875 Z M 118.394531 98.269531 L 121.367188 98.269531 L 121.367188 95.296875 L 118.394531 95.296875 Z M 118.394531 105.003906 L 121.367188 105.003906 L 121.367188 102.03125 L 118.394531 102.03125 Z M 126.511719 112.910156 L 127.964844 112.910156 L 127.964844 25.441406 L 126.511719 25.441406 L 126.511719 112.910156 " fill-opacity="1" fill-rule="nonzero"/></g><g clip-path="url(#8a1d561d43)"><path fill="#737373" d="M 145.71875 34.703125 L 130.59375 34.703125 L 130.59375 37.675781 L 145.71875 37.675781 Z M 195.332031 48.167969 L 195.332031 51.140625 L 213.824219 51.140625 L 213.824219 48.167969 Z M 171.28125 64.605469 L 187.355469 64.605469 L 187.355469 61.632812 L 171.28125 61.632812 Z M 130.59375 78.070312 L 147.171875 78.070312 L 147.171875 75.097656 L 130.59375 75.097656 Z M 141.199219 102.03125 L 130.59375 102.03125 L 130.59375 105.003906 L 141.199219 105.003906 Z M 140.003906 32.308594 C 140.128906 32.308594 140.25 32.261719 140.34375 32.167969 L 144.792969 27.71875 C 144.980469 27.53125 144.980469 27.222656 144.792969 27.035156 C 144.605469 26.84375 144.296875 26.84375 144.105469 27.035156 L 139.660156 31.480469 C 139.472656 31.671875 139.472656 31.976562 139.660156 32.167969 C 139.757812 32.261719 139.878906 32.308594 140.003906 32.308594 Z M 136.308594 32.429688 C 136.402344 32.527344 136.527344 32.574219 136.652344 32.574219 C 136.773438 32.574219 136.898438 32.527344 136.996094 32.429688 C 137.183594 32.242188 137.183594 31.9375 136.996094 31.746094 L 134.847656 29.601562 L 136.996094 27.453125 C 137.183594 27.265625 137.183594 26.957031 136.996094 26.769531 C 136.804688 26.578125 136.5 26.578125 136.308594 26.769531 L 133.820312 29.257812 C 133.632812 29.445312 133.632812 29.753906 133.820312 29.941406 Z M 148.277344 26.769531 C 148.085938 26.578125 147.78125 26.578125 147.59375 26.769531 C 147.40625 26.957031 147.40625 27.265625 147.59375 27.457031 L 147.59375 27.453125 L 149.738281 29.597656 L 147.59375 31.746094 C 147.40625 31.933594 147.40625 32.242188 147.59375 32.433594 C 147.6875 32.527344 147.8125 32.574219 147.933594 32.574219 C 148.058594 32.574219 148.183594 32.527344 148.277344 32.433594 L 150.765625 29.941406 C 150.859375 29.851562 150.90625 29.730469 150.90625 29.601562 C 150.90625 29.46875 150.859375 29.347656 150.765625 29.257812 Z M 148.277344 107.347656 C 148.085938 107.15625 147.78125 107.15625 147.59375 107.347656 C 147.40625 107.535156 147.40625 107.84375 147.59375 108.03125 L 149.738281 110.179688 L 147.59375 112.324219 C 147.402344 112.511719 147.402344 112.820312 147.59375 113.007812 C 147.6875 113.105469 147.808594 113.152344 147.933594 113.152344 C 148.058594 113.152344 148.183594 113.105469 148.277344 113.007812 L 150.765625 110.519531 C 150.859375 110.429688 150.90625 110.304688 150.90625 110.179688 C 150.90625 110.046875 150.859375 109.925781 150.765625 109.835938 Z M 136.996094 107.347656 C 136.804688 107.15625 136.5 107.15625 136.308594 107.347656 L 133.820312 109.835938 C 133.632812 110.023438 133.632812 110.332031 133.820312 110.519531 L 136.308594 113.007812 C 136.402344 113.101562 136.527344 113.148438 136.652344 113.148438 C 136.777344 113.148438 136.898438 113.105469 136.996094 113.011719 C 137.183594 112.820312 137.183594 112.511719 136.996094 112.324219 L 134.847656 110.179688 L 136.996094 108.03125 C 137.183594 107.84375 137.183594 107.535156 136.996094 107.347656 Z M 144.105469 107.613281 L 139.660156 112.058594 C 139.472656 112.246094 139.472656 112.554688 139.660156 112.742188 C 139.757812 112.839844 139.878906 112.886719 140.003906 112.886719 C 140.128906 112.886719 140.25 112.839844 140.347656 112.742188 L 144.792969 108.296875 C 144.980469 108.105469 144.980469 107.800781 144.792969 107.613281 C 144.605469 107.421875 144.296875 107.421875 144.105469 107.613281 " fill-opacity="1" fill-rule="nonzero"/></g></g></g></svg>