<svg xmlns="http://www.w3.org/2000/svg" xmlns:xlink="http://www.w3.org/1999/xlink" width="400" zoomAndPan="magnify" viewBox="0 0 300 262.499992" height="350" preserveAspectRatio="xMidYMid meet" version="1.0"><defs><clipPath id="4df8532e34"><path d="M 244.703125 152.675781 L 290.90625 152.675781 L 290.90625 187.570312 L 244.703125 187.570312 Z M 244.703125 152.675781 " clip-rule="nonzero"/></clipPath><clipPath id="a4ce075851"><path d="M 267.761719 152.675781 L 290.816406 187.570312 L 244.703125 187.570312 Z M 267.761719 152.675781 " clip-rule="nonzero"/></clipPath><clipPath id="a895aed97f"><path d="M 0.703125 0.675781 L 46.90625 0.675781 L 46.90625 35.570312 L 0.703125 35.570312 Z M 0.703125 0.675781 " clip-rule="nonzero"/></clipPath><clipPath id="ef5ec2c0b4"><path d="M 23.761719 0.675781 L 46.816406 35.570312 L 0.703125 35.570312 Z M 23.761719 0.675781 " clip-rule="nonzero"/></clipPath><clipPath id="9471f8fd7c"><rect x="0" width="47" y="0" height="36"/></clipPath><clipPath id="4a946adaea"><path d="M 26.910156 152.675781 L 267.761719 152.675781 L 267.761719 191.324219 L 26.910156 191.324219 Z M 26.910156 152.675781 " clip-rule="nonzero"/></clipPath><clipPath id="f45fa0de09"><path d="M 0.910156 0.675781 L 241.761719 0.675781 L 241.761719 39.324219 L 0.910156 39.324219 Z M 0.910156 0.675781 " clip-rule="nonzero"/></clipPath><clipPath id="ef5f1528ee"><rect x="0" width="242" y="0" height="40"/></clipPath><clipPath id="bcd9015309"><path d="M 3.851562 152.675781 L 50 152.675781 L 50 187.570312 L 3.851562 187.570312 Z M 3.851562 152.675781 " clip-rule="nonzero"/></clipPath><clipPath id="61f2dd354b"><path d="M 26.910156 152.675781 L 49.96875 187.570312 L 3.851562 187.570312 Z M 26.910156 152.675781 " clip-rule="nonzero"/></clipPath><clipPath id="15e11d533c"><path d="M 0.851562 0.675781 L 46.984375 0.675781 L 46.984375 35.570312 L 0.851562 35.570312 Z M 0.851562 0.675781 " clip-rule="nonzero"/></clipPath><clipPath id="af9136900d"><path d="M 23.910156 0.675781 L 46.96875 35.570312 L 0.851562 35.570312 Z M 23.910156 0.675781 " clip-rule="nonzero"/></clipPath><clipPath id="4366ef86a5"><rect x="0" width="47" y="0" height="36"/></clipPath><clipPath id="b5d38c57b5"><path d="M 29.113281 4.976562 L 264.789062 4.976562 L 264.789062 157.71875 L 29.113281 157.71875 Z M 29.113281 4.976562 " clip-rule="nonzero"/></clipPath><clipPath id="ab0afdd03d"><path d="M 38.097656 4.976562 L 255.605469 4.976562 C 257.988281 4.976562 260.269531 5.921875 261.957031 7.605469 C 263.640625 9.292969 264.585938 11.578125 264.585938 13.957031 L 264.585938 148.734375 C 264.585938 151.117188 263.640625 153.402344 261.957031 155.085938 C 260.269531 156.769531 257.988281 157.71875 255.605469 157.71875 L 38.097656 157.71875 C 35.714844 157.71875 33.429688 156.769531 31.742188 155.085938 C 30.058594 153.402344 29.113281 151.117188 29.113281 148.734375 L 29.113281 13.957031 C 29.113281 11.578125 30.058594 9.292969 31.742188 7.605469 C 33.429688 5.921875 35.714844 4.976562 38.097656 4.976562 Z M 38.097656 4.976562 " clip-rule="nonzero"/></clipPath><clipPath id="53f4d00e5f"><path d="M 0.113281 0.976562 L 235.617188 0.976562 L 235.617188 153.71875 L 0.113281 153.71875 Z M 0.113281 0.976562 " clip-rule="nonzero"/></clipPath><clipPath id="387101783a"><path d="M 9.097656 0.976562 L 226.605469 0.976562 C 228.988281 0.976562 231.269531 1.921875 232.957031 3.605469 C 234.640625 5.292969 235.585938 7.578125 235.585938 9.957031 L 235.585938 144.734375 C 235.585938 147.117188 234.640625 149.402344 232.957031 151.085938 C 231.269531 152.769531 228.988281 153.71875 226.605469 153.71875 L 9.097656 153.71875 C 6.714844 153.71875 4.429688 152.769531 2.742188 151.085938 C 1.058594 149.402344 0.113281 147.117188 0.113281 144.734375 L 0.113281 9.957031 C 0.113281 7.578125 1.058594 5.292969 2.742188 3.605469 C 4.429688 1.921875 6.714844 0.976562 9.097656 0.976562 Z M 9.097656 0.976562 " clip-rule="nonzero"/></clipPath><clipPath id="6da3ab01f8"><rect x="0" width="236" y="0" height="154"/></clipPath><clipPath id="78ac5cb666"><path d="M 41.957031 18.238281 L 251 18.238281 L 251 137.53125 L 41.957031 137.53125 Z M 41.957031 18.238281 " clip-rule="nonzero"/></clipPath><clipPath id="974173c335"><path d="M 49.441406 18.238281 L 243.363281 18.238281 C 247.496094 18.238281 250.847656 21.589844 250.847656 25.726562 L 250.847656 130.042969 C 250.847656 134.179688 247.496094 137.53125 243.363281 137.53125 L 49.441406 137.53125 C 45.308594 137.53125 41.957031 134.179688 41.957031 130.042969 L 41.957031 25.726562 C 41.957031 21.589844 45.308594 18.238281 49.441406 18.238281 Z M 49.441406 18.238281 " clip-rule="nonzero"/></clipPath><clipPath id="57ecafb933"><path d="M 0.957031 0.238281 L 209.960938 0.238281 L 209.960938 119.53125 L 0.957031 119.53125 Z M 0.957031 0.238281 " clip-rule="nonzero"/></clipPath><clipPath id="dd1855f653"><path d="M 8.441406 0.238281 L 202.363281 0.238281 C 206.496094 0.238281 209.847656 3.589844 209.847656 7.726562 L 209.847656 112.042969 C 209.847656 116.179688 206.496094 119.53125 202.363281 119.53125 L 8.441406 119.53125 C 4.308594 119.53125 0.957031 116.179688 0.957031 112.042969 L 0.957031 7.726562 C 0.957031 3.589844 4.308594 0.238281 8.441406 0.238281 Z M 8.441406 0.238281 " clip-rule="nonzero"/></clipPath><clipPath id="91e180de12"><rect x="0" width="210" y="0" height="120"/></clipPath><clipPath id="d53bdba5d9"><path d="M 1 0.496094 L 293 0.496094 L 293 193.554688 L 1 193.554688 Z M 1 0.496094 " clip-rule="nonzero"/></clipPath><clipPath id="a44a3b6430"><path d="M 71 38 L 189.824219 38 L 189.824219 104 L 71 104 Z M 71 38 " clip-rule="nonzero"/></clipPath><clipPath id="31f433d793"><path d="M 53.351562 28.054688 L 141 28.054688 L 141 127.914062 L 53.351562 127.914062 Z M 53.351562 28.054688 " clip-rule="nonzero"/></clipPath><clipPath id="6cd1b2c57c"><path d="M 67 29.195312 L 161.984375 29.195312 L 161.984375 127.890625 L 67 127.890625 Z M 67 29.195312 " clip-rule="nonzero"/></clipPath><clipPath id="e416e2d3ea"><path d="M 121.3125 28.054688 L 209.523438 28.054688 L 209.523438 127.914062 L 121.3125 127.914062 Z M 121.3125 28.054688 " clip-rule="nonzero"/></clipPath><clipPath id="1c2aa6775b"><path d="M 0.3125 10 L 88.523438 10 L 88.523438 76 L 0.3125 76 Z M 0.3125 10 " clip-rule="nonzero"/></clipPath><clipPath id="f65ee9024a"><path d="M 37 18 L 88.523438 18 L 88.523438 83 L 37 83 Z M 37 18 " clip-rule="nonzero"/></clipPath><clipPath id="9f00619a2a"><path d="M 48 0.0546875 L 88.523438 0.0546875 L 88.523438 99.914062 L 48 99.914062 Z M 48 0.0546875 " clip-rule="nonzero"/></clipPath><clipPath id="33e3cedb62"><path d="M 27.601562 1.195312 L 88.523438 1.195312 L 88.523438 99.890625 L 27.601562 99.890625 Z M 27.601562 1.195312 " clip-rule="nonzero"/></clipPath><clipPath id="9d01f6567d"><rect x="0" width="89" y="0" height="100"/></clipPath><clipPath id="f3b5ff464e"><path d="M 209.921875 38 L 238.214844 38 L 238.214844 104 L 209.921875 104 Z M 209.921875 38 " clip-rule="nonzero"/></clipPath><clipPath id="c2273aff3d"><path d="M 209.921875 46 L 234 46 L 234 111 L 209.921875 111 Z M 209.921875 46 " clip-rule="nonzero"/></clipPath><clipPath id="c7f94112c9"><path d="M 209.921875 28.054688 L 223 28.054688 L 223 127.914062 L 209.921875 127.914062 Z M 209.921875 28.054688 " clip-rule="nonzero"/></clipPath><clipPath id="5090b7c573"><path d="M 209.921875 29.195312 L 238.214844 29.195312 L 238.214844 127.890625 L 209.921875 127.890625 Z M 209.921875 29.195312 " clip-rule="nonzero"/></clipPath><clipPath id="f4207c5059"><rect x="0" width="294" y="0" height="194"/></clipPath></defs><g transform="matrix(1, 0, 0, 1, 3, 34)"><g clip-path="url(#f4207c5059)"><g clip-path="url(#4df8532e34)"><g clip-path="url(#a4ce075851)"><g transform="matrix(1, 0, 0, 1, 244, 152)"><g clip-path="url(#9471f8fd7c)"><g clip-path="url(#a895aed97f)"><g clip-path="url(#ef5ec2c0b4)"><path fill="#ffffff" d="M 0.703125 0.675781 L 46.773438 0.675781 L 46.773438 35.570312 L 0.703125 35.570312 Z M 0.703125 0.675781 " fill-opacity="1" fill-rule="nonzero"/></g></g></g></g></g></g><g clip-path="url(#4a946adaea)"><g transform="matrix(1, 0, 0, 1, 26, 152)"><g clip-path="url(#ef5f1528ee)"><g clip-path="url(#f45fa0de09)"><path fill="#ffffff" d="M 0.910156 0.675781 L 241.703125 0.675781 L 241.703125 39.324219 L 0.910156 39.324219 Z M 0.910156 0.675781 " fill-opacity="1" fill-rule="nonzero"/></g></g></g></g><g clip-path="url(#bcd9015309)"><g clip-path="url(#61f2dd354b)"><g transform="matrix(1, 0, 0, 1, 3, 152)"><g clip-path="url(#4366ef86a5)"><g clip-path="url(#15e11d533c)"><g clip-path="url(#af9136900d)"><path fill="#ffffff" d="M 0.851562 0.675781 L 46.921875 0.675781 L 46.921875 35.570312 L 0.851562 35.570312 Z M 0.851562 0.675781 " fill-opacity="1" fill-rule="nonzero"/></g></g></g></g></g></g><g clip-path="url(#b5d38c57b5)"><g clip-path="url(#ab0afdd03d)"><g transform="matrix(1, 0, 0, 1, 29, 4)"><g clip-path="url(#6da3ab01f8)"><g clip-path="url(#53f4d00e5f)"><g clip-path="url(#387101783a)"><path fill="#ffffff" d="M 0.113281 0.976562 L 235.789062 0.976562 L 235.789062 153.71875 L 0.113281 153.71875 Z M 0.113281 0.976562 " fill-opacity="1" fill-rule="nonzero"/></g></g></g></g></g></g><g clip-path="url(#78ac5cb666)"><g clip-path="url(#974173c335)"><g transform="matrix(1, 0, 0, 1, 41, 18)"><g clip-path="url(#91e180de12)"><g clip-path="url(#57ecafb933)"><g clip-path="url(#dd1855f653)"><path fill="#ffffff" d="M 0.957031 0.238281 L 209.714844 0.238281 L 209.714844 119.53125 L 0.957031 119.53125 Z M 0.957031 0.238281 " fill-opacity="1" fill-rule="nonzero"/></g></g></g></g></g></g><g clip-path="url(#d53bdba5d9)"><path fill="#000000" d="M 146.929688 193.503906 C 103.867188 193.503906 60.804688 193.496094 17.742188 193.476562 C 15.425781 193.492188 13.136719 193.25 10.871094 192.746094 C 9.191406 192.316406 7.648438 191.589844 6.246094 190.570312 C 1.46875 187.222656 0.59375 182.351562 4.058594 177.671875 C 9.800781 169.910156 15.699219 162.289062 21.574219 154.652344 C 22.617188 153.378906 23.121094 151.917969 23.082031 150.269531 C 23.027344 106.03125 23.007812 61.789062 23.035156 17.550781 C 23.035156 9.5 27.621094 3.175781 34.96875 1.296875 C 37.230469 0.71875 39.65625 0.617188 42.011719 0.613281 C 75.53125 0.566406 109.054688 0.546875 142.578125 0.546875 C 179.28125 0.546875 215.984375 0.554688 252.6875 0.566406 C 260.570312 0.566406 266.828125 4.480469 269.199219 11.175781 C 269.945312 13.324219 270.320312 15.53125 270.320312 17.804688 C 270.375 61.777344 270.375 105.75 270.320312 149.71875 C 270.320312 151.464844 270.703125 152.851562 271.820312 154.246094 C 277.617188 161.558594 283.292969 168.9375 289.027344 176.292969 C 289.292969 176.617188 289.554688 176.972656 289.808594 177.320312 C 293.507812 182.3125 292.519531 187.664062 287.28125 191.019531 C 284.371094 192.871094 281.136719 193.515625 277.730469 193.515625 C 255.203125 193.5 232.675781 193.5 210.144531 193.515625 Z M 263.605469 149.753906 L 263.605469 148.136719 C 263.605469 104.761719 263.605469 61.390625 263.605469 18.019531 C 263.613281 11.140625 259.773438 7.335938 252.894531 7.335938 C 198.351562 7.347656 143.816406 7.359375 89.289062 7.375 C 72.855469 7.375 56.417969 7.355469 39.984375 7.316406 C 35.691406 7.316406 32.351562 8.960938 30.671875 12.960938 C 29.949219 14.679688 29.820312 16.738281 29.820312 18.652344 C 29.78125 61.8125 29.78125 104.96875 29.820312 148.125 C 29.820312 148.648438 29.871094 149.171875 29.902344 149.765625 Z M 239.960938 171.167969 C 240.722656 172.085938 241.28125 172.605469 241.648438 173.234375 C 242.902344 175.390625 244.703125 175.894531 247.144531 175.800781 C 252.472656 175.585938 257.816406 175.707031 263.148438 175.707031 C 266.035156 175.707031 267.566406 176.886719 267.550781 179.046875 C 267.550781 180.988281 265.976562 182.164062 263.300781 182.230469 C 262.328125 182.253906 261.359375 182.25 260.390625 182.25 L 34.710938 182.25 C 33.253906 182.25 31.796875 182.304688 30.347656 182.1875 C 28.148438 182.007812 26.789062 180.160156 27.246094 178.144531 C 27.59375 176.621094 29.019531 175.710938 31.160156 175.707031 C 39.027344 175.707031 46.898438 175.707031 54.769531 175.707031 C 55.300781 175.707031 56.0625 175.828125 56.328125 175.539062 C 57.554688 174.246094 58.652344 172.828125 59.976562 171.242188 C 59.261719 171.203125 58.945312 171.171875 58.628906 171.171875 C 51.839844 171.171875 45.046875 171.171875 38.257812 171.148438 C 36.082031 171.148438 34.652344 169.742188 34.671875 167.816406 C 34.691406 165.890625 36.019531 164.691406 38.191406 164.621094 C 39.699219 164.574219 41.242188 164.402344 42.71875 164.644531 C 46.652344 165.292969 49.511719 163.996094 51.65625 160.621094 C 52.542969 159.226562 53.851562 158.089844 55.183594 156.601562 C 46.675781 156.601562 38.597656 156.632812 30.519531 156.566406 C 29.957031 156.523438 29.421875 156.628906 28.917969 156.875 C 28.410156 157.117188 28 157.472656 27.683594 157.9375 C 21.699219 165.769531 15.699219 173.585938 9.675781 181.390625 C 8.5 182.921875 8.628906 184.054688 10.195312 185.210938 C 10.871094 185.710938 11.679688 186.214844 12.484375 186.332031 C 14.601562 186.679688 16.734375 186.867188 18.882812 186.902344 C 90.011719 186.902344 161.144531 186.890625 232.277344 186.871094 C 247.3125 186.871094 262.351562 186.960938 277.382812 186.871094 C 279.535156 186.804688 281.59375 186.324219 283.550781 185.429688 C 285.492188 184.574219 285.640625 182.953125 284.375 181.335938 C 278.183594 173.453125 271.996094 165.566406 265.804688 157.679688 C 265.546875 157.304688 265.210938 157.019531 264.796875 156.820312 C 264.386719 156.621094 263.953125 156.539062 263.496094 156.570312 C 257.890625 156.628906 252.289062 156.601562 246.679688 156.605469 C 246.28125 156.605469 245.886719 156.644531 245.214844 156.683594 C 246.746094 158.429688 248.160156 159.902344 249.417969 161.503906 C 251.074219 163.628906 252.851562 165.34375 255.851562 164.628906 C 256.015625 164.613281 256.175781 164.625 256.332031 164.664062 C 258.152344 164.902344 259.382812 166.175781 259.394531 167.839844 C 259.410156 169.5 258.101562 170.949219 256.242188 171.109375 C 255.226562 171.195312 254.199219 171.15625 253.175781 171.160156 Z M 104.140625 175.636719 L 175.65625 175.636719 C 174.9375 174.425781 174.242188 173.40625 173.714844 172.3125 C 173.273438 171.394531 172.679688 171.136719 171.691406 171.148438 C 167.761719 171.203125 163.835938 171.175781 159.902344 171.175781 C 142.730469 171.175781 125.558594 171.191406 108.382812 171.222656 C 107.753906 171.222656 106.878906 171.375 106.546875 171.789062 C 105.660156 172.910156 105.003906 174.21875 104.140625 175.636719 Z M 107.109375 156.863281 C 106.894531 156.734375 106.8125 156.644531 106.730469 156.644531 C 99.464844 156.628906 92.195312 156.625 84.925781 156.625 C 84.582031 156.625 84.085938 156.699219 83.90625 156.925781 C 81.949219 159.386719 80.023438 161.882812 78.082031 164.421875 C 78.425781 164.578125 78.515625 164.65625 78.609375 164.65625 C 86.304688 164.65625 94 164.640625 101.699219 164.613281 C 102.074219 164.613281 102.628906 164.441406 102.796875 164.167969 C 104.277344 161.753906 105.6875 159.296875 107.113281 156.863281 Z M 143.804688 156.621094 C 141.21875 156.621094 138.785156 156.777344 136.367188 156.566406 C 134.375 156.394531 133.316406 157.085938 132.597656 158.894531 C 131.835938 160.808594 130.8125 162.609375 129.855469 164.558594 L 143.792969 164.558594 Z M 203.457031 164.644531 C 201.816406 161.921875 200.339844 159.449219 198.824219 157 C 198.605469 156.757812 198.328125 156.640625 198.003906 156.640625 C 194.585938 156.617188 191.164062 156.625 187.480469 156.625 C 189.035156 159.304688 190.445312 161.761719 191.90625 164.183594 C 192.15625 164.472656 192.472656 164.621094 192.855469 164.625 C 196.277344 164.65625 199.703125 164.644531 203.460938 164.644531 Z M 57.367188 164.617188 C 59.902344 164.617188 62.023438 164.375 64.0625 164.671875 C 67.761719 165.214844 70.292969 163.941406 72.074219 160.683594 C 72.84375 159.277344 74.03125 158.097656 75.191406 156.621094 C 71.605469 156.621094 68.398438 156.601562 65.164062 156.640625 C 64.683594 156.65625 64.269531 156.832031 63.921875 157.167969 C 61.796875 159.515625 59.730469 161.914062 57.371094 164.617188 Z M 151.082031 164.550781 L 164.289062 164.550781 C 162.859375 161.925781 161.535156 159.484375 160.183594 157.054688 C 160.042969 156.824219 159.839844 156.691406 159.570312 156.648438 C 156.742188 156.621094 153.914062 156.628906 151.070312 156.628906 Z M 183.742188 164.617188 C 182.195312 161.917969 180.796875 159.460938 179.371094 157.015625 C 179.210938 156.792969 178.996094 156.667969 178.722656 156.644531 C 175.3125 156.621094 171.894531 156.628906 168.222656 156.628906 C 169.6875 159.269531 170.984375 161.664062 172.363281 164.015625 C 172.667969 164.386719 173.058594 164.578125 173.539062 164.59375 C 176.816406 164.636719 180.09375 164.617188 183.738281 164.617188 Z M 225.847656 156.609375 C 227.847656 159.335938 229.582031 161.722656 231.347656 164.078125 C 231.578125 164.382812 231.886719 164.558594 232.265625 164.609375 C 235.671875 164.644531 239.085938 164.632812 242.9375 164.632812 C 240.476562 161.835938 238.304688 159.347656 236.105469 156.871094 C 235.902344 156.691406 235.664062 156.605469 235.394531 156.613281 C 232.335938 156.605469 229.289062 156.609375 225.84375 156.609375 Z M 222.976562 164.625 C 221.003906 161.90625 219.234375 159.453125 217.429688 157.007812 C 217.210938 156.769531 216.9375 156.648438 216.617188 156.640625 C 213.527344 156.613281 210.4375 156.640625 207.035156 156.640625 C 208.703125 159.332031 210.207031 161.785156 211.75 164.210938 C 211.953125 164.46875 212.21875 164.605469 212.546875 164.621094 C 215.902344 164.636719 219.265625 164.625 222.972656 164.625 Z M 110.921875 164.625 C 113.832031 164.625 116.390625 164.445312 118.902344 164.679688 C 121.070312 164.886719 122.246094 164.191406 123.019531 162.167969 C 123.730469 160.304688 124.804688 158.585938 125.808594 156.632812 C 122.433594 156.632812 119.363281 156.613281 116.296875 156.65625 C 115.867188 156.667969 115.515625 156.84375 115.242188 157.179688 C 113.808594 159.550781 112.441406 161.972656 110.933594 164.613281 Z M 215.15625 175.707031 C 214.386719 174.519531 213.699219 173.574219 213.144531 172.558594 C 212.585938 171.542969 211.824219 171.046875 210.554688 171.148438 C 208.957031 171.28125 207.324219 171.1875 205.726562 171.191406 L 200.648438 171.191406 C 201.617188 172.695312 202.347656 173.925781 203.15625 175.121094 C 203.363281 175.433594 203.652344 175.621094 204.019531 175.6875 C 207.648438 175.726562 211.273438 175.707031 215.15625 175.707031 Z M 65.371094 175.707031 C 69.253906 175.707031 72.855469 175.707031 76.441406 175.707031 C 76.710938 175.6875 76.933594 175.570312 77.105469 175.363281 C 78.058594 174.089844 78.976562 172.777344 80.085938 171.242188 C 76.324219 171.242188 72.898438 171.242188 69.480469 171.261719 C 69.09375 171.28125 68.769531 171.4375 68.507812 171.722656 C 67.5 172.929688 66.542969 174.203125 65.371094 175.703125 Z M 181.535156 171.183594 C 182.457031 172.753906 183.152344 174.007812 183.933594 175.230469 C 184.117188 175.496094 184.367188 175.648438 184.6875 175.683594 C 187.941406 175.714844 191.203125 175.707031 194.710938 175.707031 C 193.808594 174.246094 193.058594 172.957031 192.21875 171.734375 C 191.945312 171.40625 191.59375 171.226562 191.167969 171.203125 C 188.050781 171.164062 184.941406 171.179688 181.535156 171.179688 Z M 221.046875 171.183594 C 222.085938 172.742188 222.894531 173.992188 223.75 175.210938 C 223.929688 175.476562 224.175781 175.632812 224.492188 175.683594 C 227.683594 175.714844 230.878906 175.707031 234.359375 175.707031 C 233.242188 174.1875 232.320312 172.894531 231.335938 171.652344 C 231.082031 171.371094 230.769531 171.222656 230.390625 171.203125 C 227.398438 171.167969 224.398438 171.179688 221.046875 171.179688 Z M 85.710938 175.707031 C 89.039062 175.707031 91.996094 175.707031 94.953125 175.707031 C 95.238281 175.707031 95.664062 175.617188 95.796875 175.417969 C 96.675781 174.105469 97.492188 172.75 98.445312 171.214844 C 95.292969 171.214844 92.453125 171.195312 89.617188 171.242188 C 89.183594 171.277344 88.828125 171.460938 88.546875 171.792969 C 87.628906 172.980469 86.789062 174.214844 85.710938 175.71875 Z M 146.503906 142.347656 C 113.902344 142.347656 81.300781 142.347656 48.703125 142.347656 C 43.332031 142.347656 39.15625 139.046875 38.085938 133.992188 C 37.941406 133.246094 37.878906 132.492188 37.894531 131.730469 C 37.894531 96.765625 37.902344 61.800781 37.917969 26.835938 C 37.917969 20.121094 42.550781 15.597656 49.421875 15.585938 C 80.683594 15.542969 111.9375 15.523438 143.183594 15.535156 C 176.265625 15.535156 209.351562 15.542969 242.441406 15.554688 C 244.097656 15.554688 245.816406 15.597656 247.394531 16.03125 C 247.949219 16.179688 248.488281 16.375 249.011719 16.613281 C 249.535156 16.851562 250.035156 17.128906 250.511719 17.445312 C 250.988281 17.765625 251.4375 18.121094 251.859375 18.511719 C 252.28125 18.902344 252.667969 19.324219 253.019531 19.777344 C 253.371094 20.230469 253.6875 20.710938 253.960938 21.214844 C 254.234375 21.71875 254.46875 22.242188 254.660156 22.78125 C 254.851562 23.324219 254.996094 23.878906 255.097656 24.445312 C 255.199219 25.007812 255.253906 25.578125 255.261719 26.152344 C 255.382812 32.621094 255.335938 39.085938 255.339844 45.550781 C 255.339844 74.003906 255.339844 102.457031 255.339844 130.910156 C 255.339844 136.40625 252.429688 140.625 247.632812 141.921875 C 246.21875 142.257812 244.78125 142.40625 243.324219 142.367188 C 211.042969 142.394531 178.765625 142.398438 146.492188 142.386719 Z M 146.503906 135.71875 L 243.195312 135.71875 C 243.734375 135.71875 244.273438 135.71875 244.8125 135.660156 C 246.996094 135.453125 248.367188 134.046875 248.460938 131.878906 C 248.5 131.125 248.488281 130.371094 248.488281 129.617188 C 248.488281 97.714844 248.488281 65.8125 248.488281 33.914062 C 248.488281 31.488281 248.535156 29.0625 248.464844 26.640625 C 248.394531 24.21875 246.695312 22.53125 244.269531 22.378906 C 243.621094 22.335938 242.976562 22.351562 242.328125 22.351562 L 51.230469 22.351562 C 50.257812 22.324219 49.289062 22.359375 48.320312 22.449219 C 47.835938 22.503906 47.375 22.640625 46.9375 22.859375 C 46.5 23.078125 46.117188 23.363281 45.78125 23.71875 C 45.445312 24.074219 45.183594 24.476562 44.988281 24.921875 C 44.796875 25.371094 44.6875 25.839844 44.660156 26.328125 C 44.589844 27.507812 44.601562 28.699219 44.601562 29.882812 C 44.601562 53.214844 44.601562 76.546875 44.601562 99.875 C 44.601562 110.382812 44.617188 120.890625 44.648438 131.398438 C 44.648438 133.460938 45.671875 135.015625 47.394531 135.5 C 48.238281 135.6875 49.09375 135.761719 49.957031 135.71875 C 82.144531 135.722656 114.324219 135.722656 146.503906 135.71875 Z M 146.503906 135.71875 " fill-opacity="1" fill-rule="nonzero"/></g><g clip-path="url(#a44a3b6430)"><path fill="#737373" d="M 96.421875 38.636719 L 87.816406 38.636719 L 87.816406 42.019531 L 96.421875 42.019531 Z M 99.308594 46.296875 L 71.292969 46.296875 L 71.292969 49.679688 L 99.308594 49.679688 Z M 137.5 53.957031 L 123.988281 53.957031 L 123.988281 57.339844 L 137.5 57.339844 Z M 89.210938 61.617188 L 71.292969 61.617188 L 71.292969 65 L 89.210938 65 Z M 110.140625 69.277344 L 71.292969 69.277344 L 71.292969 72.660156 L 110.140625 72.660156 Z M 135.191406 72.660156 L 174.039062 72.660156 L 174.039062 69.277344 L 135.191406 69.277344 Z M 163.832031 92.257812 L 163.832031 95.640625 L 189.277344 95.640625 L 189.277344 92.257812 Z M 100.117188 95.640625 L 160.449219 95.640625 L 160.449219 92.257812 L 100.117188 92.257812 Z M 71.292969 103.300781 L 96.1875 103.300781 L 96.1875 99.917969 L 71.292969 99.917969 L 71.292969 103.300781 " fill-opacity="1" fill-rule="nonzero"/></g><path fill="#545454" d="M 149.253906 46.296875 L 121.238281 46.296875 L 121.238281 49.679688 L 149.253906 49.679688 Z M 120.605469 53.957031 L 71.292969 53.957031 L 71.292969 57.339844 L 120.605469 57.339844 Z M 112.972656 80.320312 L 146.863281 80.320312 L 146.863281 76.9375 L 112.972656 76.9375 Z M 96.734375 92.257812 L 71.292969 92.257812 L 71.292969 95.640625 L 96.734375 95.640625 Z M 144.371094 99.917969 L 144.371094 103.300781 L 151.640625 103.300781 L 151.640625 99.917969 Z M 86.898438 110.957031 L 144.660156 110.957031 L 144.660156 107.578125 L 86.898438 107.578125 L 86.898438 110.957031 " fill-opacity="1" fill-rule="nonzero"/><g clip-path="url(#31f433d793)"><path fill="#b4b4b4" d="M 53.351562 34.363281 L 56.734375 34.363281 L 56.734375 30.980469 L 53.351562 30.980469 Z M 53.351562 42.019531 L 56.734375 42.019531 L 56.734375 38.636719 L 53.351562 38.636719 Z M 117.855469 46.296875 L 102.691406 46.296875 L 102.691406 49.679688 L 117.855469 49.679688 Z M 53.351562 49.679688 L 56.734375 49.679688 L 56.734375 46.296875 L 53.351562 46.296875 Z M 53.351562 57.339844 L 56.734375 57.339844 L 56.734375 53.957031 L 53.351562 53.957031 Z M 129.789062 61.617188 L 92.589844 61.617188 L 92.589844 65 L 129.789062 65 Z M 53.351562 65 L 56.734375 65 L 56.734375 61.617188 L 53.351562 61.617188 Z M 53.351562 72.660156 L 56.734375 72.660156 L 56.734375 69.277344 L 53.351562 69.277344 Z M 109.589844 76.9375 L 71.292969 76.9375 L 71.292969 80.320312 L 109.589844 80.320312 Z M 53.351562 80.320312 L 56.734375 80.320312 L 56.734375 76.9375 L 53.351562 76.9375 Z M 53.351562 87.976562 L 56.734375 87.976562 L 56.734375 84.597656 L 53.351562 84.597656 Z M 53.351562 95.640625 L 56.734375 95.640625 L 56.734375 92.257812 L 53.351562 92.257812 Z M 99.566406 99.917969 L 99.566406 103.300781 L 140.988281 103.300781 L 140.988281 99.917969 Z M 53.351562 103.300781 L 56.734375 103.300781 L 56.734375 99.917969 L 53.351562 99.917969 Z M 71.292969 110.957031 L 83.515625 110.957031 L 83.515625 107.578125 L 71.292969 107.578125 Z M 53.351562 110.957031 L 56.734375 110.957031 L 56.734375 107.578125 L 53.351562 107.578125 Z M 53.351562 118.617188 L 56.734375 118.617188 L 56.734375 115.234375 L 53.351562 115.234375 Z M 62.585938 127.613281 L 64.238281 127.613281 L 64.238281 28.101562 L 62.585938 28.101562 L 62.585938 127.613281 " fill-opacity="1" fill-rule="nonzero"/></g><g clip-path="url(#6cd1b2c57c)"><path fill="#a6a6a6" d="M 84.433594 38.636719 L 67.230469 38.636719 L 67.230469 42.019531 L 84.433594 42.019531 Z M 140.878906 53.957031 L 140.878906 57.339844 L 161.921875 57.339844 L 161.921875 53.957031 Z M 113.519531 72.660156 L 131.808594 72.660156 L 131.808594 69.277344 L 113.519531 69.277344 Z M 67.230469 87.976562 L 86.089844 87.976562 L 86.089844 84.597656 L 67.230469 84.597656 Z M 79.296875 115.234375 L 67.230469 115.234375 L 67.230469 118.617188 L 79.296875 118.617188 Z M 77.933594 35.914062 C 78.078125 35.914062 78.21875 35.863281 78.324219 35.753906 L 83.382812 30.695312 C 83.597656 30.480469 83.597656 30.128906 83.382812 29.917969 C 83.167969 29.699219 82.820312 29.699219 82.605469 29.917969 L 77.546875 34.976562 C 77.332031 35.191406 77.332031 35.539062 77.546875 35.753906 C 77.652344 35.863281 77.792969 35.914062 77.933594 35.914062 Z M 73.734375 36.054688 C 73.839844 36.164062 73.980469 36.214844 74.121094 36.214844 C 74.261719 36.214844 74.402344 36.164062 74.511719 36.054688 C 74.726562 35.839844 74.726562 35.492188 74.511719 35.277344 L 72.070312 32.835938 L 74.511719 30.394531 C 74.726562 30.175781 74.726562 29.828125 74.511719 29.613281 C 74.296875 29.398438 73.945312 29.398438 73.734375 29.613281 L 70.898438 32.445312 C 70.6875 32.660156 70.6875 33.007812 70.898438 33.222656 Z M 87.347656 29.613281 C 87.132812 29.398438 86.78125 29.398438 86.570312 29.613281 C 86.355469 29.828125 86.355469 30.179688 86.570312 30.394531 L 86.570312 30.390625 L 89.011719 32.832031 L 86.570312 35.277344 C 86.355469 35.492188 86.355469 35.839844 86.570312 36.058594 C 86.675781 36.164062 86.816406 36.214844 86.957031 36.214844 C 87.097656 36.214844 87.242188 36.164062 87.347656 36.058594 L 90.179688 33.222656 C 90.285156 33.121094 90.339844 32.980469 90.339844 32.835938 C 90.339844 32.683594 90.285156 32.546875 90.179688 32.445312 Z M 87.347656 121.285156 C 87.132812 121.070312 86.78125 121.070312 86.570312 121.285156 C 86.355469 121.5 86.355469 121.851562 86.570312 122.066406 L 89.011719 124.507812 L 86.570312 126.949219 C 86.351562 127.164062 86.351562 127.511719 86.570312 127.726562 C 86.675781 127.835938 86.816406 127.890625 86.957031 127.890625 C 87.097656 127.890625 87.242188 127.835938 87.347656 127.726562 L 90.179688 124.894531 C 90.285156 124.792969 90.339844 124.652344 90.339844 124.507812 C 90.339844 124.359375 90.285156 124.21875 90.179688 124.117188 Z M 74.511719 121.285156 C 74.296875 121.070312 73.945312 121.070312 73.734375 121.285156 L 70.898438 124.117188 C 70.6875 124.332031 70.6875 124.679688 70.898438 124.894531 L 73.734375 127.726562 C 73.839844 127.835938 73.980469 127.886719 74.121094 127.886719 C 74.265625 127.886719 74.402344 127.835938 74.511719 127.730469 C 74.726562 127.511719 74.726562 127.164062 74.511719 126.949219 L 72.070312 124.507812 L 74.511719 122.066406 C 74.726562 121.851562 74.726562 121.5 74.511719 121.285156 Z M 82.605469 121.585938 L 77.546875 126.648438 C 77.332031 126.859375 77.332031 127.210938 77.546875 127.425781 C 77.652344 127.535156 77.792969 127.585938 77.933594 127.585938 C 78.078125 127.585938 78.21875 127.535156 78.324219 127.425781 L 83.382812 122.367188 C 83.597656 122.152344 83.597656 121.804688 83.382812 121.585938 C 83.167969 121.371094 82.820312 121.371094 82.605469 121.585938 " fill-opacity="1" fill-rule="nonzero"/></g><g clip-path="url(#e416e2d3ea)"><g transform="matrix(1, 0, 0, 1, 121, 28)"><g clip-path="url(#9d01f6567d)"><g clip-path="url(#1c2aa6775b)"><path fill="#737373" d="M 93.164062 10.636719 L 101.765625 10.636719 L 101.765625 14.019531 L 93.164062 14.019531 Z M 90.273438 18.296875 L 118.292969 18.296875 L 118.292969 21.679688 L 90.273438 21.679688 Z M 52.082031 25.957031 L 65.597656 25.957031 L 65.597656 29.339844 L 52.082031 29.339844 Z M 100.371094 33.617188 L 118.292969 33.617188 L 118.292969 37 L 100.371094 37 Z M 79.441406 41.277344 L 118.292969 41.277344 L 118.292969 44.660156 L 79.441406 44.660156 Z M 54.390625 44.660156 L 15.542969 44.660156 L 15.542969 41.277344 L 54.390625 41.277344 Z M 25.753906 64.257812 L 25.753906 67.640625 L 0.304688 67.640625 L 0.304688 64.257812 Z M 89.464844 67.640625 L 29.132812 67.640625 L 29.132812 64.257812 L 89.464844 64.257812 Z M 118.292969 75.300781 L 93.394531 75.300781 L 93.394531 71.917969 L 118.292969 71.917969 L 118.292969 75.300781 " fill-opacity="1" fill-rule="nonzero"/></g><g clip-path="url(#f65ee9024a)"><path fill="#545454" d="M 40.332031 18.296875 L 68.34375 18.296875 L 68.34375 21.679688 L 40.332031 21.679688 Z M 68.976562 25.957031 L 118.292969 25.957031 L 118.292969 29.339844 L 68.976562 29.339844 Z M 76.613281 52.320312 L 42.71875 52.320312 L 42.71875 48.9375 L 76.613281 48.9375 Z M 92.847656 64.257812 L 118.292969 64.257812 L 118.292969 67.640625 L 92.847656 67.640625 Z M 45.210938 71.917969 L 45.210938 75.300781 L 37.941406 75.300781 L 37.941406 71.917969 Z M 102.683594 82.957031 L 44.921875 82.957031 L 44.921875 79.578125 L 102.683594 79.578125 L 102.683594 82.957031 " fill-opacity="1" fill-rule="nonzero"/></g><g clip-path="url(#9f00619a2a)"><path fill="#b4b4b4" d="M 136.230469 6.363281 L 132.851562 6.363281 L 132.851562 2.980469 L 136.230469 2.980469 Z M 136.230469 14.019531 L 132.851562 14.019531 L 132.851562 10.636719 L 136.230469 10.636719 Z M 71.730469 18.296875 L 86.894531 18.296875 L 86.894531 21.679688 L 71.730469 21.679688 Z M 136.230469 21.679688 L 132.851562 21.679688 L 132.851562 18.296875 L 136.230469 18.296875 Z M 136.230469 29.339844 L 132.851562 29.339844 L 132.851562 25.957031 L 136.230469 25.957031 Z M 59.792969 33.617188 L 96.992188 33.617188 L 96.992188 37 L 59.792969 37 Z M 136.230469 37 L 132.851562 37 L 132.851562 33.617188 L 136.230469 33.617188 Z M 136.230469 44.660156 L 132.851562 44.660156 L 132.851562 41.277344 L 136.230469 41.277344 Z M 79.992188 48.9375 L 118.292969 48.9375 L 118.292969 52.320312 L 79.992188 52.320312 Z M 136.230469 52.320312 L 132.851562 52.320312 L 132.851562 48.9375 L 136.230469 48.9375 Z M 136.230469 59.976562 L 132.851562 59.976562 L 132.851562 56.597656 L 136.230469 56.597656 Z M 136.230469 67.640625 L 132.851562 67.640625 L 132.851562 64.257812 L 136.230469 64.257812 Z M 90.015625 71.917969 L 90.015625 75.300781 L 48.59375 75.300781 L 48.59375 71.917969 Z M 136.230469 75.300781 L 132.851562 75.300781 L 132.851562 71.917969 L 136.230469 71.917969 Z M 118.292969 82.957031 L 106.066406 82.957031 L 106.066406 79.578125 L 118.292969 79.578125 Z M 136.230469 82.957031 L 132.851562 82.957031 L 132.851562 79.578125 L 136.230469 79.578125 Z M 136.230469 90.617188 L 132.851562 90.617188 L 132.851562 87.234375 L 136.230469 87.234375 Z M 126.996094 99.613281 L 125.34375 99.613281 L 125.34375 0.101562 L 126.996094 0.101562 L 126.996094 99.613281 " fill-opacity="1" fill-rule="nonzero"/></g><g clip-path="url(#33e3cedb62)"><path fill="#a6a6a6" d="M 105.148438 10.636719 L 122.351562 10.636719 L 122.351562 14.019531 L 105.148438 14.019531 Z M 48.703125 25.957031 L 48.703125 29.339844 L 27.660156 29.339844 L 27.660156 25.957031 Z M 76.0625 44.660156 L 57.773438 44.660156 L 57.773438 41.277344 L 76.0625 41.277344 Z M 122.351562 59.976562 L 103.496094 59.976562 L 103.496094 56.597656 L 122.351562 56.597656 Z M 110.289062 87.234375 L 122.351562 87.234375 L 122.351562 90.617188 L 110.289062 90.617188 Z M 111.648438 7.914062 C 111.507812 7.914062 111.367188 7.863281 111.257812 7.753906 L 106.199219 2.695312 C 105.984375 2.480469 105.984375 2.128906 106.199219 1.917969 C 106.414062 1.699219 106.761719 1.699219 106.980469 1.917969 L 112.035156 6.976562 C 112.253906 7.191406 112.253906 7.539062 112.035156 7.753906 C 111.929688 7.863281 111.789062 7.914062 111.648438 7.914062 Z M 115.851562 8.054688 C 115.742188 8.164062 115.601562 8.214844 115.460938 8.214844 C 115.320312 8.214844 115.179688 8.164062 115.070312 8.054688 C 114.855469 7.839844 114.855469 7.492188 115.070312 7.277344 L 117.511719 4.835938 L 115.070312 2.394531 C 114.855469 2.175781 114.855469 1.828125 115.070312 1.613281 C 115.285156 1.398438 115.636719 1.398438 115.851562 1.613281 L 118.683594 4.445312 C 118.898438 4.660156 118.898438 5.007812 118.683594 5.222656 Z M 102.234375 1.613281 C 102.449219 1.398438 102.800781 1.398438 103.015625 1.613281 C 103.226562 1.828125 103.226562 2.179688 103.015625 2.394531 L 103.015625 2.390625 L 100.574219 4.832031 L 103.015625 7.277344 C 103.226562 7.492188 103.226562 7.839844 103.015625 8.058594 C 102.90625 8.164062 102.765625 8.214844 102.625 8.214844 C 102.484375 8.214844 102.34375 8.164062 102.234375 8.058594 L 99.402344 5.222656 C 99.300781 5.121094 99.242188 4.980469 99.242188 4.835938 C 99.242188 4.683594 99.300781 4.546875 99.402344 4.445312 Z M 102.234375 93.285156 C 102.449219 93.070312 102.800781 93.070312 103.015625 93.285156 C 103.226562 93.5 103.226562 93.851562 103.015625 94.066406 L 100.574219 96.507812 L 103.015625 98.949219 C 103.230469 99.164062 103.230469 99.511719 103.015625 99.726562 C 102.90625 99.835938 102.765625 99.890625 102.625 99.890625 C 102.484375 99.890625 102.34375 99.835938 102.234375 99.726562 L 99.402344 96.894531 C 99.300781 96.792969 99.242188 96.652344 99.242188 96.507812 C 99.242188 96.359375 99.300781 96.21875 99.402344 96.117188 Z M 115.070312 93.285156 C 115.285156 93.070312 115.636719 93.070312 115.851562 93.285156 L 118.683594 96.117188 C 118.898438 96.332031 118.898438 96.679688 118.683594 96.894531 L 115.851562 99.726562 C 115.742188 99.835938 115.601562 99.886719 115.460938 99.886719 C 115.320312 99.886719 115.179688 99.835938 115.070312 99.730469 C 114.855469 99.511719 114.855469 99.164062 115.070312 98.949219 L 117.515625 96.507812 L 115.070312 94.066406 C 114.855469 93.851562 114.855469 93.5 115.070312 93.285156 Z M 106.980469 93.585938 L 112.035156 98.648438 C 112.253906 98.859375 112.253906 99.210938 112.035156 99.425781 C 111.929688 99.535156 111.789062 99.585938 111.648438 99.585938 C 111.507812 99.585938 111.367188 99.535156 111.257812 99.425781 L 106.199219 94.367188 C 105.984375 94.152344 105.984375 93.804688 106.199219 93.585938 C 106.414062 93.371094 106.761719 93.371094 106.980469 93.585938 " fill-opacity="1" fill-rule="nonzero"/></g></g></g></g><g clip-path="url(#f3b5ff464e)"><path fill="#737373" d="M 178.003906 38.636719 L 169.402344 38.636719 L 169.402344 42.019531 L 178.003906 42.019531 Z M 180.890625 46.296875 L 152.875 46.296875 L 152.875 49.679688 L 180.890625 49.679688 Z M 219.082031 53.957031 L 205.570312 53.957031 L 205.570312 57.339844 L 219.082031 57.339844 Z M 170.792969 61.617188 L 152.875 61.617188 L 152.875 65 L 170.792969 65 Z M 191.726562 69.277344 L 152.875 69.277344 L 152.875 72.660156 L 191.726562 72.660156 Z M 216.773438 72.660156 L 255.621094 72.660156 L 255.621094 69.277344 L 216.773438 69.277344 Z M 245.414062 92.257812 L 245.414062 95.640625 L 270.859375 95.640625 L 270.859375 92.257812 Z M 181.703125 95.640625 L 242.03125 95.640625 L 242.03125 92.257812 L 181.703125 92.257812 Z M 152.875 103.300781 L 177.769531 103.300781 L 177.769531 99.917969 L 152.875 99.917969 L 152.875 103.300781 " fill-opacity="1" fill-rule="nonzero"/></g><g clip-path="url(#c2273aff3d)"><path fill="#b4b4b4" d="M 230.835938 46.296875 L 202.820312 46.296875 L 202.820312 49.679688 L 230.835938 49.679688 Z M 202.1875 53.957031 L 152.875 53.957031 L 152.875 57.339844 L 202.1875 57.339844 Z M 194.554688 80.320312 L 228.445312 80.320312 L 228.445312 76.9375 L 194.554688 76.9375 Z M 178.320312 92.257812 L 152.875 92.257812 L 152.875 95.640625 L 178.320312 95.640625 Z M 225.953125 99.917969 L 225.953125 103.300781 L 233.222656 103.300781 L 233.222656 99.917969 Z M 168.484375 110.957031 L 226.246094 110.957031 L 226.246094 107.578125 L 168.484375 107.578125 L 168.484375 110.957031 " fill-opacity="1" fill-rule="nonzero"/></g><g clip-path="url(#c7f94112c9)"><path fill="#b4b4b4" d="M 134.933594 34.363281 L 138.316406 34.363281 L 138.316406 30.980469 L 134.933594 30.980469 Z M 134.933594 42.019531 L 138.316406 42.019531 L 138.316406 38.636719 L 134.933594 38.636719 Z M 199.4375 46.296875 L 184.273438 46.296875 L 184.273438 49.679688 L 199.4375 49.679688 Z M 134.933594 49.679688 L 138.316406 49.679688 L 138.316406 46.296875 L 134.933594 46.296875 Z M 134.933594 57.339844 L 138.316406 57.339844 L 138.316406 53.957031 L 134.933594 53.957031 Z M 211.371094 61.617188 L 174.175781 61.617188 L 174.175781 65 L 211.371094 65 Z M 134.933594 65 L 138.316406 65 L 138.316406 61.617188 L 134.933594 61.617188 Z M 134.933594 72.660156 L 138.316406 72.660156 L 138.316406 69.277344 L 134.933594 69.277344 Z M 191.171875 76.9375 L 152.875 76.9375 L 152.875 80.320312 L 191.171875 80.320312 Z M 134.933594 80.320312 L 138.316406 80.320312 L 138.316406 76.9375 L 134.933594 76.9375 Z M 134.933594 87.976562 L 138.316406 87.976562 L 138.316406 84.597656 L 134.933594 84.597656 Z M 134.933594 95.640625 L 138.316406 95.640625 L 138.316406 92.257812 L 134.933594 92.257812 Z M 181.152344 99.917969 L 181.152344 103.300781 L 222.574219 103.300781 L 222.574219 99.917969 Z M 134.933594 103.300781 L 138.316406 103.300781 L 138.316406 99.917969 L 134.933594 99.917969 Z M 152.875 110.957031 L 165.101562 110.957031 L 165.101562 107.578125 L 152.875 107.578125 Z M 134.933594 110.957031 L 138.316406 110.957031 L 138.316406 107.578125 L 134.933594 107.578125 Z M 134.933594 118.617188 L 138.316406 118.617188 L 138.316406 115.234375 L 134.933594 115.234375 Z M 144.171875 127.613281 L 145.824219 127.613281 L 145.824219 28.101562 L 144.171875 28.101562 L 144.171875 127.613281 " fill-opacity="1" fill-rule="nonzero"/></g><g clip-path="url(#5090b7c573)"><path fill="#737373" d="M 166.019531 38.636719 L 148.8125 38.636719 L 148.8125 42.019531 L 166.019531 42.019531 Z M 222.464844 53.957031 L 222.464844 57.339844 L 243.503906 57.339844 L 243.503906 53.957031 Z M 195.105469 72.660156 L 213.390625 72.660156 L 213.390625 69.277344 L 195.105469 69.277344 Z M 148.8125 87.976562 L 167.671875 87.976562 L 167.671875 84.597656 L 148.8125 84.597656 Z M 160.878906 115.234375 L 148.8125 115.234375 L 148.8125 118.617188 L 160.878906 118.617188 Z M 159.519531 35.914062 C 159.660156 35.914062 159.800781 35.863281 159.90625 35.753906 L 164.96875 30.695312 C 165.183594 30.480469 165.183594 30.128906 164.96875 29.917969 C 164.753906 29.699219 164.402344 29.699219 164.1875 29.917969 L 159.128906 34.976562 C 158.914062 35.191406 158.914062 35.539062 159.128906 35.753906 C 159.238281 35.863281 159.378906 35.914062 159.519531 35.914062 Z M 155.316406 36.054688 C 155.421875 36.164062 155.5625 36.214844 155.707031 36.214844 C 155.84375 36.214844 155.988281 36.164062 156.09375 36.054688 C 156.3125 35.839844 156.3125 35.492188 156.097656 35.277344 L 153.652344 32.835938 L 156.09375 30.394531 C 156.308594 30.175781 156.308594 29.828125 156.09375 29.613281 C 155.878906 29.398438 155.53125 29.398438 155.316406 29.613281 L 152.484375 32.445312 C 152.269531 32.660156 152.269531 33.007812 152.484375 33.222656 Z M 168.929688 29.613281 C 168.714844 29.398438 168.367188 29.398438 168.152344 29.613281 C 167.9375 29.828125 167.9375 30.179688 168.152344 30.394531 L 168.152344 30.390625 L 170.59375 32.832031 L 168.152344 35.277344 C 167.9375 35.492188 167.9375 35.839844 168.152344 36.058594 C 168.261719 36.164062 168.402344 36.214844 168.542969 36.214844 C 168.683594 36.214844 168.824219 36.164062 168.929688 36.058594 L 171.761719 33.222656 C 171.867188 33.121094 171.921875 32.980469 171.921875 32.835938 C 171.921875 32.683594 171.867188 32.546875 171.761719 32.445312 Z M 168.933594 121.285156 C 168.714844 121.070312 168.367188 121.070312 168.152344 121.285156 C 167.9375 121.5 167.9375 121.851562 168.152344 122.066406 L 170.59375 124.507812 L 168.152344 126.949219 C 167.9375 127.164062 167.9375 127.511719 168.152344 127.726562 C 168.261719 127.835938 168.398438 127.890625 168.542969 127.890625 C 168.683594 127.890625 168.824219 127.835938 168.933594 127.726562 L 171.761719 124.894531 C 171.867188 124.792969 171.921875 124.652344 171.921875 124.507812 C 171.921875 124.359375 171.867188 124.21875 171.761719 124.117188 Z M 156.097656 121.285156 C 155.878906 121.070312 155.53125 121.070312 155.316406 121.285156 L 152.484375 124.117188 C 152.269531 124.332031 152.269531 124.679688 152.484375 124.894531 L 155.316406 127.726562 C 155.421875 127.835938 155.566406 127.886719 155.707031 127.886719 C 155.847656 127.886719 155.988281 127.835938 156.097656 127.730469 C 156.3125 127.511719 156.3125 127.164062 156.097656 126.949219 L 153.652344 124.507812 L 156.097656 122.066406 C 156.3125 121.851562 156.3125 121.5 156.097656 121.285156 Z M 164.1875 121.585938 L 159.128906 126.648438 C 158.914062 126.859375 158.914062 127.210938 159.128906 127.425781 C 159.238281 127.535156 159.378906 127.585938 159.519531 127.585938 C 159.660156 127.585938 159.800781 127.535156 159.910156 127.425781 L 164.96875 122.367188 C 165.183594 122.152344 165.183594 121.804688 164.96875 121.585938 C 164.753906 121.371094 164.402344 121.371094 164.1875 121.585938 " fill-opacity="1" fill-rule="nonzero"/></g></g></g></svg>