<svg xmlns="http://www.w3.org/2000/svg" xmlns:xlink="http://www.w3.org/1999/xlink" width="500" zoomAndPan="magnify" viewBox="0 0 375 74.999997" height="100" preserveAspectRatio="xMidYMid meet" version="1.0"><defs><g/><clipPath id="2d6fd906d4"><path d="M 42 36 L 203 36 L 203 65.558594 L 42 65.558594 Z M 42 36 " clip-rule="nonzero"/></clipPath><clipPath id="cb7d657a80"><rect x="0" width="161" y="0" height="30"/></clipPath><clipPath id="3ed004a89e"><rect x="0" width="258" y="0" height="66"/></clipPath><clipPath id="fcbff43d70"><path d="M 0.09375 0.777344 L 99 0.777344 L 99 66.238281 L 0.09375 66.238281 Z M 0.09375 0.777344 " clip-rule="nonzero"/></clipPath><clipPath id="b528fcd02e"><path d="M 24 13 L 64.257812 13 L 64.257812 36 L 24 36 Z M 24 13 " clip-rule="nonzero"/></clipPath><clipPath id="290f5f4c63"><path d="M 17.980469 10.121094 L 48 10.121094 L 48 43.980469 L 17.980469 43.980469 Z M 17.980469 10.121094 " clip-rule="nonzero"/></clipPath><clipPath id="ee7e5b59c9"><path d="M 22.609375 10.507812 L 54.816406 10.507812 L 54.816406 43.972656 L 22.609375 43.972656 Z M 22.609375 10.507812 " clip-rule="nonzero"/></clipPath><clipPath id="f35ead983c"><path d="M 41.027344 10.121094 L 70.9375 10.121094 L 70.9375 43.980469 L 41.027344 43.980469 Z M 41.027344 10.121094 " clip-rule="nonzero"/></clipPath><clipPath id="1f7d78ca07"><path d="M 0.0273438 3 L 29.9375 3 L 29.9375 26 L 0.0273438 26 Z M 0.0273438 3 " clip-rule="nonzero"/></clipPath><clipPath id="c14172f020"><path d="M 12 6 L 29.9375 6 L 29.9375 29 L 12 29 Z M 12 6 " clip-rule="nonzero"/></clipPath><clipPath id="c77e24bd19"><path d="M 16 0.121094 L 29.9375 0.121094 L 29.9375 33.980469 L 16 33.980469 Z M 16 0.121094 " clip-rule="nonzero"/></clipPath><clipPath id="7e39f51859"><path d="M 9.277344 0.507812 L 29.9375 0.507812 L 29.9375 33.972656 L 9.277344 33.972656 Z M 9.277344 0.507812 " clip-rule="nonzero"/></clipPath><clipPath id="638cd9a2ac"><rect x="0" width="30" y="0" height="34"/></clipPath><clipPath id="d02dedc188"><path d="M 71.070312 13 L 80.664062 13 L 80.664062 36 L 71.070312 36 Z M 71.070312 13 " clip-rule="nonzero"/></clipPath><clipPath id="5cf7d6c2e1"><path d="M 71.070312 16 L 79 16 L 79 39 L 71.070312 39 Z M 71.070312 16 " clip-rule="nonzero"/></clipPath><clipPath id="dbe5545e45"><path d="M 71.070312 10.121094 L 76 10.121094 L 76 43.980469 L 71.070312 43.980469 Z M 71.070312 10.121094 " clip-rule="nonzero"/></clipPath><clipPath id="4a9377007a"><path d="M 71.070312 10.507812 L 80.664062 10.507812 L 80.664062 43.972656 L 71.070312 43.972656 Z M 71.070312 10.507812 " clip-rule="nonzero"/></clipPath><clipPath id="7399b48255"><rect x="0" width="100" y="0" height="67"/></clipPath></defs><g transform="matrix(1, 0, 0, 1, 108, 5)"><g clip-path="url(#3ed004a89e)"><g fill="#000000" fill-opacity="1"><g transform="translate(0.705716, 31.495774)"><g><path d="M 2.15625 -22.171875 L 7.9375 -22.171875 L 7.9375 -13.09375 L 16.890625 -13.09375 L 16.890625 -22.171875 L 22.671875 -22.171875 L 22.671875 0 L 16.890625 0 L 16.890625 -8.53125 L 7.9375 -8.53125 L 7.9375 0 L 2.15625 0 Z M 2.15625 -22.171875 "/></g></g></g><g fill="#000000" fill-opacity="1"><g transform="translate(26.160738, 31.495774)"><g><path d="M 9.359375 -22.171875 L 15.3125 -22.171875 L 24.609375 0 L 18.4375 0 L 12.171875 -16.375 L 5.78125 0 L -0.15625 0 Z M 5.53125 -8.34375 L 18.46875 -8.34375 L 18.46875 -3.984375 L 5.53125 -3.984375 Z M 5.53125 -8.34375 "/></g></g></g><g fill="#000000" fill-opacity="1"><g transform="translate(51.236307, 31.495774)"><g><path d="M 2.15625 -22.171875 L 7.9375 -22.171875 L 7.9375 -4.875 L 17.328125 -4.875 L 17.328125 0 L 2.15625 0 Z M 2.15625 -22.171875 "/></g></g></g><g fill="#000000" fill-opacity="1"><g transform="translate(69.67147, 31.495774)"><g><path d="M 2.15625 -22.171875 L 7.9375 -22.171875 L 7.9375 0 L 2.15625 0 Z M 5.0625 -29.828125 C 5.925781 -29.828125 6.628906 -29.546875 7.171875 -28.984375 C 7.722656 -28.421875 8 -27.707031 8 -26.84375 C 8 -25.976562 7.722656 -25.265625 7.171875 -24.703125 C 6.628906 -24.148438 5.925781 -23.875 5.0625 -23.875 C 4.195312 -23.875 3.484375 -24.148438 2.921875 -24.703125 C 2.359375 -25.265625 2.078125 -25.976562 2.078125 -26.84375 C 2.078125 -27.707031 2.359375 -28.421875 2.921875 -28.984375 C 3.484375 -29.546875 4.195312 -29.828125 5.0625 -29.828125 Z M 5.0625 -29.828125 "/></g></g></g><g fill="#000000" fill-opacity="1"><g transform="translate(80.391099, 31.495774)"><g><path d="M 2.15625 -22.171875 L 7.9375 -22.171875 L 7.9375 -4.875 L 17.328125 -4.875 L 17.328125 0 L 2.15625 0 Z M 2.15625 -22.171875 "/></g></g></g><g fill="#000000" fill-opacity="1"><g transform="translate(98.826258, 31.495774)"><g/></g></g><g fill="#000000" fill-opacity="1"><g transform="translate(107.996457, 31.495774)"><g><path d="M 2.15625 -22.171875 L 7.9375 -22.171875 L 7.9375 0 L 2.15625 0 Z M 5.0625 -29.828125 C 5.925781 -29.828125 6.628906 -29.546875 7.171875 -28.984375 C 7.722656 -28.421875 8 -27.707031 8 -26.84375 C 8 -25.976562 7.722656 -25.265625 7.171875 -24.703125 C 6.628906 -24.148438 5.925781 -23.875 5.0625 -23.875 C 4.195312 -23.875 3.484375 -24.148438 2.921875 -24.703125 C 2.359375 -25.265625 2.078125 -25.976562 2.078125 -26.84375 C 2.078125 -27.707031 2.359375 -28.421875 2.921875 -28.984375 C 3.484375 -29.546875 4.195312 -29.828125 5.0625 -29.828125 Z M 5.0625 -29.828125 "/></g></g></g><g fill="#000000" fill-opacity="1"><g transform="translate(118.716093, 31.495774)"><g><path d="M 12.6875 -22.171875 C 14.375 -22.171875 15.828125 -21.9375 17.046875 -21.46875 C 18.265625 -21.007812 19.210938 -20.367188 19.890625 -19.546875 C 20.566406 -18.722656 20.90625 -17.734375 20.90625 -16.578125 C 20.90625 -15.410156 20.5625 -14.394531 19.875 -13.53125 C 19.1875 -12.664062 18.265625 -12.078125 17.109375 -11.765625 C 18.503906 -11.492188 19.601562 -10.847656 20.40625 -9.828125 C 21.21875 -8.816406 21.625 -7.597656 21.625 -6.171875 C 21.625 -4.898438 21.273438 -3.800781 20.578125 -2.875 C 19.890625 -1.945312 18.90625 -1.234375 17.625 -0.734375 C 16.351562 -0.242188 14.84375 0 13.09375 0 L 2.15625 0 L 2.15625 -22.171875 Z M 12.359375 -13.34375 C 13.160156 -13.34375 13.789062 -13.535156 14.25 -13.921875 C 14.71875 -14.316406 14.953125 -14.863281 14.953125 -15.5625 C 14.953125 -16.257812 14.71875 -16.796875 14.25 -17.171875 C 13.789062 -17.546875 13.160156 -17.722656 12.359375 -17.703125 L 7.9375 -17.703125 L 7.9375 -13.34375 Z M 12.359375 -4.421875 C 13.378906 -4.421875 14.179688 -4.632812 14.765625 -5.0625 C 15.359375 -5.5 15.65625 -6.097656 15.65625 -6.859375 C 15.65625 -7.578125 15.359375 -8.144531 14.765625 -8.5625 C 14.179688 -8.988281 13.378906 -9.191406 12.359375 -9.171875 L 7.9375 -9.171875 L 7.9375 -4.421875 Z M 12.359375 -4.421875 "/></g></g></g><g fill="#000000" fill-opacity="1"><g transform="translate(141.989266, 31.495774)"><g><path d="M 12.109375 -22.171875 C 15.066406 -22.171875 17.34375 -21.488281 18.9375 -20.125 C 20.539062 -18.769531 21.34375 -16.859375 21.34375 -14.390625 C 21.34375 -11.796875 20.539062 -9.773438 18.9375 -8.328125 C 17.34375 -6.890625 15.066406 -6.171875 12.109375 -6.171875 L 7.9375 -6.171875 L 7.9375 0 L 2.15625 0 L 2.15625 -22.171875 Z M 12.109375 -10.71875 C 13.316406 -10.71875 14.238281 -11.007812 14.875 -11.59375 C 15.519531 -12.1875 15.84375 -13.066406 15.84375 -14.234375 C 15.84375 -15.347656 15.519531 -16.1875 14.875 -16.75 C 14.238281 -17.320312 13.316406 -17.609375 12.109375 -17.609375 L 7.9375 -17.609375 L 7.9375 -10.71875 Z M 11.09375 -8.28125 L 16.734375 -8.28125 L 22.015625 0 L 15.46875 0 Z M 11.09375 -8.28125 "/></g></g></g><g fill="#000000" fill-opacity="1"><g transform="translate(165.515406, 31.495774)"><g><path d="M 9.359375 -22.171875 L 15.3125 -22.171875 L 24.609375 0 L 18.4375 0 L 12.171875 -16.375 L 5.78125 0 L -0.15625 0 Z M 5.53125 -8.34375 L 18.46875 -8.34375 L 18.46875 -3.984375 L 5.53125 -3.984375 Z M 5.53125 -8.34375 "/></g></g></g><g fill="#000000" fill-opacity="1"><g transform="translate(190.590982, 31.495774)"><g><path d="M 2.15625 -22.171875 L 7.9375 -22.171875 L 7.9375 -13.09375 L 16.890625 -13.09375 L 16.890625 -22.171875 L 22.671875 -22.171875 L 22.671875 0 L 16.890625 0 L 16.890625 -8.53125 L 7.9375 -8.53125 L 7.9375 0 L 2.15625 0 Z M 2.15625 -22.171875 "/></g></g></g><g fill="#000000" fill-opacity="1"><g transform="translate(216.046008, 31.495774)"><g><path d="M 2.15625 -22.171875 L 7.9375 -22.171875 L 7.9375 0 L 2.15625 0 Z M 5.0625 -29.828125 C 5.925781 -29.828125 6.628906 -29.546875 7.171875 -28.984375 C 7.722656 -28.421875 8 -27.707031 8 -26.84375 C 8 -25.976562 7.722656 -25.265625 7.171875 -24.703125 C 6.628906 -24.148438 5.925781 -23.875 5.0625 -23.875 C 4.195312 -23.875 3.484375 -24.148438 2.921875 -24.703125 C 2.359375 -25.265625 2.078125 -25.976562 2.078125 -26.84375 C 2.078125 -27.707031 2.359375 -28.421875 2.921875 -28.984375 C 3.484375 -29.546875 4.195312 -29.828125 5.0625 -29.828125 Z M 5.0625 -29.828125 "/></g></g></g><g fill="#000000" fill-opacity="1"><g transform="translate(226.76563, 31.495774)"><g><path d="M 2.15625 -22.171875 L 8.4375 -22.171875 L 14.859375 -9.109375 L 21.25 -22.171875 L 27.546875 -22.171875 L 27.546875 0 L 22.421875 0 L 22.390625 -14.203125 L 16.734375 -2.21875 L 13 -2.21875 L 7.3125 -14.203125 L 7.3125 0 L 2.15625 0 Z M 2.15625 -22.171875 "/></g></g></g><g clip-path="url(#2d6fd906d4)"><g transform="matrix(1, 0, 0, 1, 42, 36)"><g clip-path="url(#cb7d657a80)"><g fill="#a6a6a6" fill-opacity="1"><g transform="translate(0.294912, 22.682234)"><g><path d="M 16.875 -2.71875 L 17.09375 -0.140625 C 16.832031 -0.0351562 16.539062 0.0507812 16.21875 0.125 C 15.894531 0.207031 15.519531 0.25 15.09375 0.25 C 14.425781 0.25 13.847656 0.101562 13.359375 -0.1875 C 12.867188 -0.488281 12.410156 -0.988281 11.984375 -1.6875 L 8.703125 -6.96875 L 5.90625 -3.8125 L 5.90625 -2.59375 L 7.59375 -2.59375 L 7.59375 -0.046875 C 7.351562 -0.0234375 7.015625 -0.0078125 6.578125 0 C 6.140625 0 5.75 0 5.40625 0 L 3.125 0 C 2.789062 0 2.40625 0 1.96875 0 C 1.539062 -0.0078125 1.195312 -0.0234375 0.9375 -0.046875 L 0.9375 -2.59375 L 2.625 -2.59375 L 2.625 -13.40625 L 0.890625 -13.40625 L 0.890625 -15.984375 L 5.328125 -15.984375 C 5.710938 -15.984375 6.101562 -15.976562 6.5 -15.96875 C 6.894531 -15.957031 7.226562 -15.945312 7.5 -15.9375 L 7.5 -13.40625 L 5.90625 -13.40625 L 5.90625 -8.046875 L 12.359375 -15.984375 L 16.25 -15.984375 L 16.25 -13.421875 L 14.046875 -13.421875 L 10.84375 -9.546875 L 14.609375 -3.390625 C 14.773438 -3.085938 14.953125 -2.878906 15.140625 -2.765625 C 15.335938 -2.648438 15.570312 -2.59375 15.84375 -2.59375 C 16.101562 -2.59375 16.300781 -2.597656 16.4375 -2.609375 C 16.570312 -2.628906 16.71875 -2.664062 16.875 -2.71875 Z M 16.875 -2.71875 "/></g></g></g><g fill="#a6a6a6" fill-opacity="1"><g transform="translate(20.057518, 22.682234)"><g><path d="M 10.6875 -15.984375 L 15.3125 -2.546875 L 17.140625 -2.546875 L 17.140625 0 L 12.90625 0 L 11.734375 -3.46875 L 5.65625 -3.46875 L 4.484375 0 L 0.296875 0 L 0.296875 -2.546875 L 2.078125 -2.546875 L 5.859375 -13.421875 L 4.21875 -13.421875 L 4.21875 -15.984375 Z M 8.703125 -12.453125 L 6.515625 -6.015625 L 10.875 -6.015625 Z M 8.703125 -12.453125 "/></g></g></g><g fill="#a6a6a6" fill-opacity="1"><g transform="translate(39.637739, 22.682234)"><g><path d="M 11.375 -2.71875 L 11.375 -6.3125 L 14.171875 -6.3125 L 14.171875 0 L 3.125 0 C 2.789062 0 2.40625 0 1.96875 0 C 1.539062 -0.0078125 1.195312 -0.0234375 0.9375 -0.046875 L 0.9375 -2.59375 L 2.625 -2.59375 L 2.625 -13.40625 L 0.890625 -13.40625 L 0.890625 -15.984375 L 5.90625 -15.984375 L 5.90625 -2.71875 Z M 11.375 -2.71875 "/></g></g></g><g fill="#a6a6a6" fill-opacity="1"><g transform="translate(56.824738, 22.682234)"><g><path d="M 10.6875 -15.984375 L 15.3125 -2.546875 L 17.140625 -2.546875 L 17.140625 0 L 12.90625 0 L 11.734375 -3.46875 L 5.65625 -3.46875 L 4.484375 0 L 0.296875 0 L 0.296875 -2.546875 L 2.078125 -2.546875 L 5.859375 -13.421875 L 4.21875 -13.421875 L 4.21875 -15.984375 Z M 8.703125 -12.453125 L 6.515625 -6.015625 L 10.875 -6.015625 Z M 8.703125 -12.453125 "/></g></g></g><g fill="#a6a6a6" fill-opacity="1"><g transform="translate(75.698161, 22.682234)"><g><path d="M 11.8125 -8.34375 C 12.84375 -8.101562 13.660156 -7.628906 14.265625 -6.921875 C 14.878906 -6.222656 15.1875 -5.367188 15.1875 -4.359375 C 15.1875 -3.003906 14.664062 -1.9375 13.625 -1.15625 C 12.59375 -0.382812 11.191406 0 9.421875 0 L 2.421875 0 L 2.421875 -13.40625 L 0.703125 -13.40625 L 0.703125 -15.984375 L 9.125 -15.984375 C 10.789062 -15.984375 12.09375 -15.625 13.03125 -14.90625 C 13.976562 -14.195312 14.453125 -13.21875 14.453125 -11.96875 C 14.453125 -11.082031 14.21875 -10.328125 13.75 -9.703125 C 13.289062 -9.085938 12.644531 -8.632812 11.8125 -8.34375 Z M 8.65625 -13.40625 L 5.71875 -13.40625 L 5.71875 -9.390625 L 8.78125 -9.390625 C 9.539062 -9.390625 10.128906 -9.5625 10.546875 -9.90625 C 10.960938 -10.25 11.171875 -10.742188 11.171875 -11.390625 C 11.171875 -12.066406 10.945312 -12.570312 10.5 -12.90625 C 10.050781 -13.238281 9.4375 -13.40625 8.65625 -13.40625 Z M 5.71875 -2.578125 L 9.125 -2.578125 C 9.96875 -2.578125 10.632812 -2.75 11.125 -3.09375 C 11.625 -3.445312 11.875 -3.988281 11.875 -4.71875 C 11.875 -5.4375 11.625 -5.976562 11.125 -6.34375 C 10.632812 -6.707031 9.972656 -6.890625 9.140625 -6.890625 L 5.71875 -6.890625 Z M 5.71875 -2.578125 "/></g></g></g><g fill="#a6a6a6" fill-opacity="1"><g transform="translate(93.272496, 22.682234)"><g><path d="M 10.6875 -15.984375 L 15.3125 -2.546875 L 17.140625 -2.546875 L 17.140625 0 L 12.90625 0 L 11.734375 -3.46875 L 5.65625 -3.46875 L 4.484375 0 L 0.296875 0 L 0.296875 -2.546875 L 2.078125 -2.546875 L 5.859375 -13.421875 L 4.21875 -13.421875 L 4.21875 -15.984375 Z M 8.703125 -12.453125 L 6.515625 -6.015625 L 10.875 -6.015625 Z M 8.703125 -12.453125 "/></g></g></g><g fill="#a6a6a6" fill-opacity="1"><g transform="translate(112.852718, 22.682234)"><g><path d="M 11.375 -2.71875 L 11.375 -6.3125 L 14.171875 -6.3125 L 14.171875 0 L 3.125 0 C 2.789062 0 2.40625 0 1.96875 0 C 1.539062 -0.0078125 1.195312 -0.0234375 0.9375 -0.046875 L 0.9375 -2.59375 L 2.625 -2.59375 L 2.625 -13.40625 L 0.890625 -13.40625 L 0.890625 -15.984375 L 5.90625 -15.984375 L 5.90625 -2.71875 Z M 11.375 -2.71875 "/></g></g></g><g fill="#a6a6a6" fill-opacity="1"><g transform="translate(130.039716, 22.682234)"><g><path d="M 2.671875 -13.421875 L 1.03125 -13.421875 L 1.03125 -15.984375 L 7.59375 -15.984375 L 7.59375 -13.421875 L 5.953125 -13.421875 L 5.953125 -13.109375 L 5.96875 -2.875 L 5.96875 -2.546875 L 7.59375 -2.546875 L 7.59375 0 L 1.03125 0 L 1.03125 -2.546875 L 2.671875 -2.546875 Z M 2.671875 -13.421875 "/></g></g></g><g fill="#a6a6a6" fill-opacity="1"><g transform="translate(140.93583, 22.682234)"><g><path d="M 16.875 -2.71875 L 17.09375 -0.140625 C 16.832031 -0.0351562 16.539062 0.0507812 16.21875 0.125 C 15.894531 0.207031 15.519531 0.25 15.09375 0.25 C 14.425781 0.25 13.847656 0.101562 13.359375 -0.1875 C 12.867188 -0.488281 12.410156 -0.988281 11.984375 -1.6875 L 8.703125 -6.96875 L 5.90625 -3.8125 L 5.90625 -2.59375 L 7.59375 -2.59375 L 7.59375 -0.046875 C 7.351562 -0.0234375 7.015625 -0.0078125 6.578125 0 C 6.140625 0 5.75 0 5.40625 0 L 3.125 0 C 2.789062 0 2.40625 0 1.96875 0 C 1.539062 -0.0078125 1.195312 -0.0234375 0.9375 -0.046875 L 0.9375 -2.59375 L 2.625 -2.59375 L 2.625 -13.40625 L 0.890625 -13.40625 L 0.890625 -15.984375 L 5.328125 -15.984375 C 5.710938 -15.984375 6.101562 -15.976562 6.5 -15.96875 C 6.894531 -15.957031 7.226562 -15.945312 7.5 -15.9375 L 7.5 -13.40625 L 5.90625 -13.40625 L 5.90625 -8.046875 L 12.359375 -15.984375 L 16.25 -15.984375 L 16.25 -13.421875 L 14.046875 -13.421875 L 10.84375 -9.546875 L 14.609375 -3.390625 C 14.773438 -3.085938 14.953125 -2.878906 15.140625 -2.765625 C 15.335938 -2.648438 15.570312 -2.59375 15.84375 -2.59375 C 16.101562 -2.59375 16.300781 -2.597656 16.4375 -2.609375 C 16.570312 -2.628906 16.71875 -2.664062 16.875 -2.71875 Z M 16.875 -2.71875 "/></g></g></g></g></g></g></g></g><g transform="matrix(1, 0, 0, 1, 4, 4)"><g clip-path="url(#7399b48255)"><g clip-path="url(#fcbff43d70)"><path fill="#000000" d="M 49.710938 66.222656 C 35.109375 66.222656 20.507812 66.21875 5.90625 66.210938 C 5.121094 66.21875 4.347656 66.136719 3.578125 65.964844 C 3.007812 65.820312 2.484375 65.574219 2.011719 65.226562 C 0.390625 64.09375 0.09375 62.441406 1.269531 60.855469 C 3.214844 58.222656 5.214844 55.636719 7.207031 53.046875 C 7.5625 52.617188 7.730469 52.121094 7.71875 51.5625 C 7.699219 36.5625 7.695312 21.5625 7.703125 6.558594 C 7.703125 3.832031 9.257812 1.6875 11.75 1.050781 C 12.515625 0.851562 13.339844 0.820312 14.136719 0.816406 C 25.503906 0.800781 36.871094 0.792969 48.238281 0.792969 C 60.683594 0.792969 73.128906 0.796875 85.570312 0.800781 C 88.246094 0.800781 90.367188 2.128906 91.171875 4.398438 C 91.425781 5.128906 91.550781 5.875 91.550781 6.648438 C 91.570312 21.554688 91.570312 36.464844 91.550781 51.375 C 91.550781 51.96875 91.679688 52.4375 92.058594 52.910156 C 94.027344 55.390625 95.949219 57.890625 97.894531 60.386719 C 97.984375 60.496094 98.074219 60.617188 98.160156 60.734375 C 99.414062 62.429688 99.078125 64.242188 97.300781 65.378906 C 96.316406 66.007812 95.21875 66.226562 94.0625 66.226562 C 86.425781 66.222656 78.789062 66.222656 71.148438 66.226562 Z M 89.273438 51.386719 L 89.273438 50.839844 C 89.273438 36.132812 89.273438 21.425781 89.273438 6.71875 C 89.277344 4.386719 87.976562 3.097656 85.644531 3.097656 C 67.148438 3.101562 48.65625 3.105469 30.167969 3.109375 C 24.59375 3.109375 19.023438 3.101562 13.449219 3.089844 C 11.996094 3.089844 10.863281 3.648438 10.292969 5.003906 C 10.046875 5.585938 10.003906 6.285156 10.003906 6.933594 C 9.988281 21.566406 9.988281 36.203125 10.003906 50.835938 C 10.003906 51.011719 10.019531 51.191406 10.03125 51.390625 Z M 81.257812 58.648438 C 81.515625 58.960938 81.703125 59.136719 81.828125 59.347656 C 82.253906 60.078125 82.867188 60.25 83.695312 60.21875 C 85.5 60.144531 87.3125 60.1875 89.117188 60.1875 C 90.097656 60.1875 90.617188 60.585938 90.613281 61.320312 C 90.613281 61.976562 90.078125 62.378906 89.171875 62.398438 C 88.839844 62.40625 88.511719 62.40625 88.183594 62.40625 L 11.660156 62.40625 C 11.167969 62.40625 10.675781 62.425781 10.183594 62.386719 C 9.4375 62.324219 8.976562 61.699219 9.128906 61.011719 C 9.25 60.496094 9.730469 60.1875 10.457031 60.1875 C 13.125 60.1875 15.792969 60.1875 18.460938 60.1875 C 18.644531 60.1875 18.902344 60.230469 18.992188 60.132812 C 19.40625 59.691406 19.78125 59.210938 20.226562 58.671875 C 19.984375 58.660156 19.878906 58.648438 19.773438 58.648438 C 17.46875 58.648438 15.167969 58.648438 12.863281 58.640625 C 12.128906 58.640625 11.640625 58.164062 11.648438 57.511719 C 11.65625 56.859375 12.105469 56.453125 12.84375 56.429688 C 13.351562 56.414062 13.875 56.355469 14.378906 56.4375 C 15.710938 56.65625 16.679688 56.21875 17.40625 55.074219 C 17.707031 54.597656 18.152344 54.214844 18.601562 53.707031 C 15.71875 53.707031 12.980469 53.71875 10.238281 53.695312 C 9.832031 53.667969 9.511719 53.824219 9.277344 54.164062 C 7.25 56.816406 5.214844 59.46875 3.171875 62.113281 C 2.773438 62.632812 2.816406 63.019531 3.351562 63.410156 C 3.578125 63.582031 3.851562 63.75 4.125 63.789062 C 4.84375 63.90625 5.566406 63.972656 6.296875 63.984375 C 30.414062 63.984375 54.53125 63.980469 78.652344 63.972656 C 83.75 63.972656 88.847656 64.003906 93.945312 63.972656 C 94.675781 63.949219 95.375 63.789062 96.039062 63.484375 C 96.695312 63.195312 96.746094 62.644531 96.316406 62.09375 C 94.21875 59.421875 92.117188 56.75 90.019531 54.074219 C 89.832031 53.800781 89.570312 53.675781 89.238281 53.699219 C 87.335938 53.71875 85.4375 53.707031 83.535156 53.710938 C 83.402344 53.710938 83.265625 53.722656 83.039062 53.738281 C 83.558594 54.328125 84.035156 54.828125 84.464844 55.371094 C 85.027344 56.09375 85.628906 56.671875 86.644531 56.429688 C 86.699219 56.425781 86.753906 56.429688 86.808594 56.441406 C 87.425781 56.523438 87.84375 56.957031 87.847656 57.519531 C 87.851562 58.082031 87.410156 58.574219 86.777344 58.628906 C 86.433594 58.65625 86.085938 58.644531 85.738281 58.644531 Z M 35.203125 60.164062 L 59.453125 60.164062 C 59.210938 59.753906 58.972656 59.40625 58.796875 59.035156 C 58.644531 58.726562 58.445312 58.636719 58.109375 58.640625 C 56.777344 58.660156 55.445312 58.652344 54.109375 58.652344 C 48.289062 58.652344 42.464844 58.65625 36.640625 58.667969 C 36.429688 58.667969 36.132812 58.71875 36.019531 58.859375 C 35.71875 59.238281 35.496094 59.683594 35.203125 60.164062 Z M 36.210938 53.796875 C 36.136719 53.753906 36.109375 53.722656 36.082031 53.722656 C 33.617188 53.71875 31.152344 53.71875 28.6875 53.71875 C 28.570312 53.71875 28.402344 53.742188 28.34375 53.820312 C 27.679688 54.652344 27.027344 55.5 26.367188 56.359375 C 26.484375 56.414062 26.515625 56.441406 26.546875 56.441406 C 29.15625 56.441406 31.765625 56.433594 34.375 56.425781 C 34.503906 56.425781 34.691406 56.367188 34.746094 56.273438 C 35.25 55.457031 35.726562 54.625 36.210938 53.796875 Z M 48.652344 53.714844 C 47.777344 53.714844 46.949219 53.769531 46.128906 53.699219 C 45.457031 53.640625 45.097656 53.875 44.851562 54.488281 C 44.59375 55.136719 44.246094 55.746094 43.921875 56.40625 L 48.648438 56.40625 Z M 68.878906 56.4375 C 68.324219 55.511719 67.824219 54.675781 67.308594 53.84375 C 67.234375 53.761719 67.140625 53.722656 67.03125 53.722656 C 65.871094 53.714844 64.710938 53.71875 63.460938 53.71875 C 63.988281 54.625 64.46875 55.457031 64.964844 56.28125 C 65.046875 56.378906 65.15625 56.429688 65.285156 56.429688 C 66.445312 56.441406 67.605469 56.4375 68.882812 56.4375 Z M 19.34375 56.429688 C 20.203125 56.429688 20.921875 56.34375 21.613281 56.445312 C 22.867188 56.628906 23.726562 56.199219 24.332031 55.09375 C 24.589844 54.617188 24.996094 54.214844 25.386719 53.714844 C 24.171875 53.714844 23.085938 53.707031 21.988281 53.722656 C 21.824219 53.726562 21.683594 53.789062 21.566406 53.902344 C 20.84375 54.699219 20.144531 55.511719 19.34375 56.429688 Z M 51.121094 56.40625 L 55.597656 56.40625 C 55.113281 55.515625 54.664062 54.6875 54.207031 53.863281 C 54.160156 53.785156 54.089844 53.738281 54 53.726562 C 53.039062 53.714844 52.082031 53.71875 51.117188 53.71875 Z M 62.195312 56.429688 C 61.671875 55.511719 61.195312 54.679688 60.710938 53.851562 C 60.660156 53.773438 60.585938 53.730469 60.492188 53.722656 C 59.335938 53.714844 58.179688 53.71875 56.933594 53.71875 C 57.429688 54.613281 57.867188 55.425781 58.335938 56.222656 C 58.441406 56.347656 58.574219 56.414062 58.734375 56.417969 C 59.847656 56.433594 60.957031 56.429688 62.195312 56.429688 Z M 76.472656 53.710938 C 77.148438 54.636719 77.738281 55.445312 78.335938 56.246094 C 78.414062 56.347656 78.519531 56.40625 78.648438 56.425781 C 79.804688 56.4375 80.960938 56.433594 82.265625 56.433594 C 81.433594 55.484375 80.695312 54.640625 79.949219 53.800781 C 79.882812 53.742188 79.800781 53.710938 79.707031 53.714844 C 78.671875 53.710938 77.640625 53.710938 76.472656 53.710938 Z M 75.5 56.429688 C 74.828125 55.507812 74.230469 54.675781 73.617188 53.847656 C 73.542969 53.765625 73.449219 53.726562 73.339844 53.722656 C 72.292969 53.714844 71.246094 53.722656 70.09375 53.722656 C 70.660156 54.636719 71.167969 55.46875 71.691406 56.289062 C 71.761719 56.375 71.851562 56.421875 71.960938 56.429688 C 73.097656 56.433594 74.238281 56.429688 75.496094 56.429688 Z M 37.503906 56.429688 C 38.492188 56.429688 39.359375 56.367188 40.207031 56.449219 C 40.945312 56.519531 41.34375 56.28125 41.605469 55.597656 C 41.847656 54.964844 42.210938 54.382812 42.550781 53.71875 C 41.40625 53.71875 40.367188 53.714844 39.324219 53.726562 C 39.179688 53.730469 39.0625 53.792969 38.96875 53.90625 C 38.480469 54.707031 38.019531 55.53125 37.507812 56.425781 Z M 72.847656 60.1875 C 72.585938 59.785156 72.351562 59.464844 72.164062 59.121094 C 71.976562 58.777344 71.714844 58.605469 71.285156 58.640625 C 70.746094 58.6875 70.191406 58.65625 69.648438 58.65625 L 67.925781 58.65625 C 68.257812 59.167969 68.503906 59.585938 68.777344 59.988281 C 68.847656 60.09375 68.945312 60.160156 69.070312 60.179688 C 70.300781 60.195312 71.53125 60.1875 72.847656 60.1875 Z M 22.058594 60.1875 C 23.375 60.1875 24.59375 60.1875 25.8125 60.1875 C 25.902344 60.179688 25.980469 60.140625 26.039062 60.070312 C 26.359375 59.640625 26.671875 59.195312 27.046875 58.671875 C 25.773438 58.671875 24.609375 58.671875 23.449219 58.679688 C 23.320312 58.6875 23.210938 58.738281 23.121094 58.835938 C 22.78125 59.246094 22.457031 59.675781 22.058594 60.1875 Z M 61.445312 58.652344 C 61.757812 59.1875 61.996094 59.613281 62.261719 60.027344 C 62.320312 60.117188 62.40625 60.167969 62.515625 60.179688 C 63.617188 60.191406 64.722656 60.1875 65.914062 60.1875 C 65.609375 59.691406 65.355469 59.253906 65.070312 58.839844 C 64.976562 58.730469 64.855469 58.667969 64.710938 58.660156 C 63.65625 58.648438 62.601562 58.652344 61.445312 58.652344 Z M 74.84375 58.652344 C 75.195312 59.183594 75.472656 59.605469 75.761719 60.019531 C 75.820312 60.109375 75.90625 60.160156 76.011719 60.179688 C 77.09375 60.191406 78.175781 60.1875 79.359375 60.1875 C 78.980469 59.671875 78.667969 59.234375 78.332031 58.8125 C 78.246094 58.71875 78.140625 58.667969 78.011719 58.660156 C 76.996094 58.648438 75.980469 58.652344 74.84375 58.652344 Z M 28.957031 60.1875 C 30.082031 60.1875 31.085938 60.1875 32.089844 60.1875 C 32.183594 60.1875 32.328125 60.15625 32.375 60.089844 C 32.671875 59.644531 32.949219 59.183594 33.273438 58.664062 C 32.203125 58.664062 31.242188 58.65625 30.277344 58.671875 C 30.132812 58.6875 30.011719 58.75 29.914062 58.859375 C 29.605469 59.261719 29.320312 59.679688 28.953125 60.191406 Z M 49.566406 48.875 C 38.511719 48.875 27.460938 48.875 16.40625 48.875 C 14.585938 48.875 13.167969 47.757812 12.804688 46.042969 C 12.757812 45.789062 12.734375 45.535156 12.742188 45.277344 C 12.742188 33.421875 12.742188 21.566406 12.75 9.707031 C 12.75 7.433594 14.320312 5.898438 16.648438 5.894531 C 27.25 5.878906 37.847656 5.875 48.441406 5.878906 C 59.660156 5.878906 70.878906 5.878906 82.097656 5.882812 C 82.660156 5.882812 83.242188 5.898438 83.777344 6.042969 C 84.15625 6.148438 84.507812 6.308594 84.835938 6.523438 C 85.160156 6.742188 85.445312 7.007812 85.683594 7.316406 C 85.925781 7.625 86.109375 7.964844 86.242188 8.335938 C 86.371094 8.703125 86.441406 9.085938 86.445312 9.476562 C 86.488281 11.667969 86.472656 13.863281 86.472656 16.054688 C 86.472656 25.703125 86.472656 35.351562 86.472656 44.996094 C 86.472656 46.863281 85.484375 48.292969 83.859375 48.730469 C 83.378906 48.847656 82.890625 48.894531 82.398438 48.882812 C 71.453125 48.890625 60.507812 48.894531 49.5625 48.890625 Z M 49.566406 46.628906 L 82.355469 46.628906 C 82.535156 46.628906 82.71875 46.628906 82.902344 46.609375 C 83.640625 46.539062 84.109375 46.0625 84.140625 45.328125 C 84.152344 45.070312 84.148438 44.816406 84.148438 44.558594 C 84.148438 33.742188 84.148438 22.925781 84.148438 12.109375 C 84.148438 11.285156 84.164062 10.464844 84.140625 9.644531 C 84.117188 8.820312 83.539062 8.25 82.71875 8.199219 C 82.5 8.183594 82.277344 8.1875 82.058594 8.1875 L 17.261719 8.1875 C 16.933594 8.179688 16.605469 8.191406 16.277344 8.222656 C 15.9375 8.257812 15.648438 8.402344 15.414062 8.652344 C 15.179688 8.902344 15.054688 9.195312 15.035156 9.535156 C 15.011719 9.9375 15.015625 10.339844 15.015625 10.742188 C 15.015625 18.652344 15.015625 26.5625 15.015625 34.476562 C 15.015625 38.039062 15.019531 41.601562 15.03125 45.164062 C 15.03125 45.863281 15.378906 46.390625 15.960938 46.554688 C 16.25 46.617188 16.539062 46.640625 16.832031 46.628906 C 27.746094 46.628906 38.65625 46.628906 49.566406 46.628906 Z M 49.566406 46.628906 " fill-opacity="1" fill-rule="nonzero"/></g><g clip-path="url(#b528fcd02e)"><path fill="#737373" d="M 32.585938 13.710938 L 29.667969 13.710938 L 29.667969 14.859375 L 32.585938 14.859375 Z M 33.566406 16.308594 L 24.066406 16.308594 L 24.066406 17.453125 L 33.566406 17.453125 Z M 46.515625 18.90625 L 41.933594 18.90625 L 41.933594 20.050781 L 46.515625 20.050781 Z M 30.140625 21.503906 L 24.066406 21.503906 L 24.066406 22.648438 L 30.140625 22.648438 Z M 37.238281 24.101562 L 24.066406 24.101562 L 24.066406 25.246094 L 37.238281 25.246094 Z M 45.730469 25.246094 L 58.90625 25.246094 L 58.90625 24.101562 L 45.730469 24.101562 Z M 55.441406 31.890625 L 55.441406 33.039062 L 64.070312 33.039062 L 64.070312 31.890625 Z M 33.839844 33.039062 L 54.296875 33.039062 L 54.296875 31.890625 L 33.839844 31.890625 Z M 24.066406 35.636719 L 32.507812 35.636719 L 32.507812 34.488281 L 24.066406 34.488281 L 24.066406 35.636719 " fill-opacity="1" fill-rule="nonzero"/></g><path fill="#545454" d="M 50.5 16.308594 L 41 16.308594 L 41 17.453125 L 50.5 17.453125 Z M 40.785156 18.90625 L 24.066406 18.90625 L 24.066406 20.050781 L 40.785156 20.050781 Z M 38.199219 27.84375 L 49.691406 27.84375 L 49.691406 26.695312 L 38.199219 26.695312 Z M 32.691406 31.890625 L 24.066406 31.890625 L 24.066406 33.039062 L 32.691406 33.039062 Z M 48.84375 34.488281 L 48.84375 35.636719 L 51.308594 35.636719 L 51.308594 34.488281 Z M 29.359375 38.234375 L 48.941406 38.234375 L 48.941406 37.085938 L 29.359375 37.085938 L 29.359375 38.234375 " fill-opacity="1" fill-rule="nonzero"/><g clip-path="url(#290f5f4c63)"><path fill="#b4b4b4" d="M 17.980469 12.261719 L 19.128906 12.261719 L 19.128906 11.113281 L 17.980469 11.113281 Z M 17.980469 14.859375 L 19.128906 14.859375 L 19.128906 13.710938 L 17.980469 13.710938 Z M 39.855469 16.308594 L 34.710938 16.308594 L 34.710938 17.453125 L 39.855469 17.453125 Z M 17.980469 17.453125 L 19.128906 17.453125 L 19.128906 16.308594 L 17.980469 16.308594 Z M 17.980469 20.050781 L 19.128906 20.050781 L 19.128906 18.90625 L 17.980469 18.90625 Z M 43.898438 21.503906 L 31.289062 21.503906 L 31.289062 22.648438 L 43.898438 22.648438 Z M 17.980469 22.648438 L 19.128906 22.648438 L 19.128906 21.503906 L 17.980469 21.503906 Z M 17.980469 25.246094 L 19.128906 25.246094 L 19.128906 24.101562 L 17.980469 24.101562 Z M 37.050781 26.695312 L 24.066406 26.695312 L 24.066406 27.84375 L 37.050781 27.84375 Z M 17.980469 27.84375 L 19.128906 27.84375 L 19.128906 26.695312 L 17.980469 26.695312 Z M 17.980469 30.441406 L 19.128906 30.441406 L 19.128906 29.292969 L 17.980469 29.292969 Z M 17.980469 33.039062 L 19.128906 33.039062 L 19.128906 31.890625 L 17.980469 31.890625 Z M 33.652344 34.488281 L 33.652344 35.636719 L 47.699219 35.636719 L 47.699219 34.488281 Z M 17.980469 35.636719 L 19.128906 35.636719 L 19.128906 34.488281 L 17.980469 34.488281 Z M 24.066406 38.234375 L 28.210938 38.234375 L 28.210938 37.085938 L 24.066406 37.085938 Z M 17.980469 38.234375 L 19.128906 38.234375 L 19.128906 37.085938 L 17.980469 37.085938 Z M 17.980469 40.832031 L 19.128906 40.832031 L 19.128906 39.683594 L 17.980469 39.683594 Z M 21.113281 43.878906 L 21.675781 43.878906 L 21.675781 10.136719 L 21.113281 10.136719 L 21.113281 43.878906 " fill-opacity="1" fill-rule="nonzero"/></g><g clip-path="url(#ee7e5b59c9)"><path fill="#a6a6a6" d="M 28.523438 13.710938 L 22.6875 13.710938 L 22.6875 14.859375 L 28.523438 14.859375 Z M 47.660156 18.90625 L 47.660156 20.050781 L 54.796875 20.050781 L 54.796875 18.90625 Z M 38.382812 25.246094 L 44.585938 25.246094 L 44.585938 24.101562 L 38.382812 24.101562 Z M 22.6875 30.441406 L 29.082031 30.441406 L 29.082031 29.292969 L 22.6875 29.292969 Z M 26.78125 39.683594 L 22.6875 39.683594 L 22.6875 40.832031 L 26.78125 40.832031 Z M 26.316406 12.785156 C 26.367188 12.785156 26.414062 12.769531 26.449219 12.734375 L 28.164062 11.015625 C 28.238281 10.945312 28.238281 10.824219 28.164062 10.753906 C 28.09375 10.679688 27.972656 10.679688 27.902344 10.753906 L 26.1875 12.46875 C 26.113281 12.542969 26.113281 12.660156 26.1875 12.734375 C 26.222656 12.769531 26.269531 12.785156 26.316406 12.785156 Z M 24.894531 12.835938 C 24.929688 12.871094 24.976562 12.890625 25.023438 12.890625 C 25.074219 12.890625 25.121094 12.871094 25.15625 12.835938 C 25.230469 12.761719 25.230469 12.644531 25.15625 12.570312 L 24.328125 11.742188 L 25.15625 10.914062 C 25.230469 10.839844 25.230469 10.722656 25.15625 10.652344 C 25.085938 10.578125 24.964844 10.578125 24.894531 10.652344 L 23.933594 11.609375 C 23.859375 11.683594 23.859375 11.800781 23.933594 11.875 Z M 29.507812 10.652344 C 29.4375 10.578125 29.316406 10.578125 29.246094 10.652344 C 29.171875 10.722656 29.171875 10.84375 29.246094 10.914062 L 30.074219 11.742188 L 29.246094 12.570312 C 29.171875 12.644531 29.171875 12.761719 29.246094 12.835938 C 29.28125 12.871094 29.332031 12.890625 29.378906 12.890625 C 29.425781 12.890625 29.472656 12.871094 29.507812 12.835938 L 30.46875 11.875 C 30.503906 11.839844 30.523438 11.792969 30.523438 11.742188 C 30.523438 11.691406 30.503906 11.644531 30.46875 11.609375 Z M 29.511719 41.734375 C 29.4375 41.660156 29.316406 41.660156 29.246094 41.734375 C 29.171875 41.808594 29.171875 41.925781 29.246094 42 L 30.074219 42.828125 L 29.246094 43.65625 C 29.171875 43.726562 29.171875 43.847656 29.246094 43.917969 C 29.28125 43.957031 29.328125 43.972656 29.378906 43.972656 C 29.425781 43.972656 29.472656 43.957031 29.511719 43.917969 L 30.46875 42.957031 C 30.503906 42.921875 30.523438 42.875 30.523438 42.828125 C 30.523438 42.777344 30.503906 42.730469 30.46875 42.695312 Z M 25.15625 41.734375 C 25.085938 41.660156 24.964844 41.660156 24.894531 41.734375 L 23.933594 42.695312 C 23.859375 42.765625 23.859375 42.886719 23.933594 42.957031 L 24.894531 43.917969 C 24.929688 43.953125 24.976562 43.972656 25.023438 43.972656 C 25.074219 43.972656 25.121094 43.957031 25.15625 43.917969 C 25.230469 43.847656 25.230469 43.726562 25.15625 43.65625 L 24.328125 42.828125 L 25.15625 42 C 25.230469 41.925781 25.230469 41.808594 25.15625 41.734375 Z M 27.902344 41.835938 L 26.1875 43.550781 C 26.113281 43.625 26.113281 43.742188 26.1875 43.816406 C 26.222656 43.851562 26.269531 43.871094 26.316406 43.871094 C 26.367188 43.871094 26.414062 43.851562 26.449219 43.816406 L 28.164062 42.101562 C 28.238281 42.027344 28.238281 41.910156 28.164062 41.835938 C 28.09375 41.765625 27.972656 41.765625 27.902344 41.835938 " fill-opacity="1" fill-rule="nonzero"/></g><g clip-path="url(#f35ead983c)"><g transform="matrix(1, 0, 0, 1, 41, 10)"><g clip-path="url(#638cd9a2ac)"><g clip-path="url(#1f7d78ca07)"><path fill="#737373" d="M 31.507812 3.710938 L 34.425781 3.710938 L 34.425781 4.859375 L 31.507812 4.859375 Z M 30.53125 6.308594 L 40.03125 6.308594 L 40.03125 7.453125 L 30.53125 7.453125 Z M 17.582031 8.90625 L 22.164062 8.90625 L 22.164062 10.050781 L 17.582031 10.050781 Z M 33.953125 11.503906 L 40.03125 11.503906 L 40.03125 12.648438 L 33.953125 12.648438 Z M 26.855469 14.101562 L 40.03125 14.101562 L 40.03125 15.246094 L 26.855469 15.246094 Z M 18.363281 15.246094 L 5.191406 15.246094 L 5.191406 14.101562 L 18.363281 14.101562 Z M 8.652344 21.890625 L 8.652344 23.039062 L 0.0234375 23.039062 L 0.0234375 21.890625 Z M 30.253906 23.039062 L 9.800781 23.039062 L 9.800781 21.890625 L 30.253906 21.890625 Z M 40.03125 25.636719 L 31.589844 25.636719 L 31.589844 24.488281 L 40.03125 24.488281 L 40.03125 25.636719 " fill-opacity="1" fill-rule="nonzero"/></g><g clip-path="url(#c14172f020)"><path fill="#545454" d="M 13.59375 6.308594 L 23.09375 6.308594 L 23.09375 7.453125 L 13.59375 7.453125 Z M 23.308594 8.90625 L 40.03125 8.90625 L 40.03125 10.050781 L 23.308594 10.050781 Z M 25.898438 17.84375 L 14.40625 17.84375 L 14.40625 16.695312 L 25.898438 16.695312 Z M 31.402344 21.890625 L 40.03125 21.890625 L 40.03125 23.039062 L 31.402344 23.039062 Z M 15.25 24.488281 L 15.25 25.636719 L 12.785156 25.636719 L 12.785156 24.488281 Z M 34.738281 28.234375 L 15.152344 28.234375 L 15.152344 27.085938 L 34.738281 27.085938 L 34.738281 28.234375 " fill-opacity="1" fill-rule="nonzero"/></g><g clip-path="url(#c77e24bd19)"><path fill="#b4b4b4" d="M 46.113281 2.261719 L 44.964844 2.261719 L 44.964844 1.113281 L 46.113281 1.113281 Z M 46.113281 4.859375 L 44.964844 4.859375 L 44.964844 3.710938 L 46.113281 3.710938 Z M 24.242188 6.308594 L 29.382812 6.308594 L 29.382812 7.453125 L 24.242188 7.453125 Z M 46.113281 7.453125 L 44.964844 7.453125 L 44.964844 6.308594 L 46.113281 6.308594 Z M 46.113281 10.050781 L 44.964844 10.050781 L 44.964844 8.90625 L 46.113281 8.90625 Z M 20.195312 11.503906 L 32.808594 11.503906 L 32.808594 12.648438 L 20.195312 12.648438 Z M 46.113281 12.648438 L 44.964844 12.648438 L 44.964844 11.503906 L 46.113281 11.503906 Z M 46.113281 15.246094 L 44.964844 15.246094 L 44.964844 14.101562 L 46.113281 14.101562 Z M 27.042969 16.695312 L 40.03125 16.695312 L 40.03125 17.84375 L 27.042969 17.84375 Z M 46.113281 17.84375 L 44.964844 17.84375 L 44.964844 16.695312 L 46.113281 16.695312 Z M 46.113281 20.441406 L 44.964844 20.441406 L 44.964844 19.292969 L 46.113281 19.292969 Z M 46.113281 23.039062 L 44.964844 23.039062 L 44.964844 21.890625 L 46.113281 21.890625 Z M 30.441406 24.488281 L 30.441406 25.636719 L 16.398438 25.636719 L 16.398438 24.488281 Z M 46.113281 25.636719 L 44.964844 25.636719 L 44.964844 24.488281 L 46.113281 24.488281 Z M 40.03125 28.234375 L 35.886719 28.234375 L 35.886719 27.085938 L 40.03125 27.085938 Z M 46.113281 28.234375 L 44.964844 28.234375 L 44.964844 27.085938 L 46.113281 27.085938 Z M 46.113281 30.832031 L 44.964844 30.832031 L 44.964844 29.683594 L 46.113281 29.683594 Z M 42.980469 33.878906 L 42.421875 33.878906 L 42.421875 0.136719 L 42.980469 0.136719 L 42.980469 33.878906 " fill-opacity="1" fill-rule="nonzero"/></g><g clip-path="url(#7e39f51859)"><path fill="#a6a6a6" d="M 35.574219 3.710938 L 41.40625 3.710938 L 41.40625 4.859375 L 35.574219 4.859375 Z M 16.433594 8.90625 L 16.433594 10.050781 L 9.300781 10.050781 L 9.300781 8.90625 Z M 25.710938 15.246094 L 19.511719 15.246094 L 19.511719 14.101562 L 25.710938 14.101562 Z M 41.40625 20.441406 L 35.011719 20.441406 L 35.011719 19.292969 L 41.40625 19.292969 Z M 37.316406 29.683594 L 41.40625 29.683594 L 41.40625 30.832031 L 37.316406 30.832031 Z M 37.777344 2.785156 C 37.730469 2.785156 37.683594 2.769531 37.644531 2.734375 L 35.929688 1.015625 C 35.855469 0.945312 35.855469 0.824219 35.929688 0.753906 C 36.003906 0.679688 36.121094 0.679688 36.195312 0.753906 L 37.910156 2.46875 C 37.984375 2.542969 37.984375 2.660156 37.910156 2.734375 C 37.871094 2.769531 37.824219 2.785156 37.777344 2.785156 Z M 39.203125 2.835938 C 39.167969 2.871094 39.117188 2.890625 39.070312 2.890625 C 39.023438 2.890625 38.976562 2.871094 38.9375 2.835938 C 38.863281 2.761719 38.863281 2.644531 38.9375 2.570312 L 39.765625 1.742188 L 38.9375 0.914062 C 38.867188 0.839844 38.867188 0.722656 38.9375 0.652344 C 39.011719 0.578125 39.128906 0.578125 39.203125 0.652344 L 40.164062 1.609375 C 40.234375 1.683594 40.234375 1.800781 40.164062 1.875 Z M 34.585938 0.652344 C 34.660156 0.578125 34.777344 0.578125 34.851562 0.652344 C 34.921875 0.722656 34.921875 0.84375 34.851562 0.914062 L 34.023438 1.742188 L 34.851562 2.570312 C 34.921875 2.644531 34.921875 2.761719 34.851562 2.835938 C 34.8125 2.871094 34.765625 2.890625 34.71875 2.890625 C 34.671875 2.890625 34.621094 2.871094 34.585938 2.835938 L 33.625 1.875 C 33.589844 1.839844 33.570312 1.792969 33.570312 1.742188 C 33.570312 1.691406 33.589844 1.644531 33.625 1.609375 Z M 34.585938 31.734375 C 34.660156 31.660156 34.777344 31.660156 34.851562 31.734375 C 34.921875 31.808594 34.921875 31.925781 34.851562 32 L 34.023438 32.828125 L 34.851562 33.65625 C 34.921875 33.726562 34.921875 33.847656 34.851562 33.917969 C 34.8125 33.957031 34.765625 33.972656 34.71875 33.972656 C 34.671875 33.972656 34.621094 33.957031 34.585938 33.917969 L 33.625 32.957031 C 33.589844 32.921875 33.570312 32.875 33.570312 32.828125 C 33.570312 32.777344 33.589844 32.730469 33.625 32.695312 Z M 38.9375 31.734375 C 39.011719 31.660156 39.128906 31.660156 39.203125 31.734375 L 40.164062 32.695312 C 40.234375 32.765625 40.234375 32.886719 40.164062 32.957031 L 39.203125 33.917969 C 39.167969 33.953125 39.117188 33.972656 39.070312 33.972656 C 39.023438 33.972656 38.976562 33.957031 38.9375 33.917969 C 38.863281 33.847656 38.863281 33.726562 38.9375 33.65625 L 39.765625 32.828125 L 38.9375 32 C 38.863281 31.925781 38.863281 31.808594 38.9375 31.734375 Z M 36.195312 31.835938 L 37.910156 33.550781 C 37.984375 33.625 37.984375 33.742188 37.910156 33.816406 C 37.871094 33.851562 37.824219 33.871094 37.777344 33.871094 C 37.730469 33.871094 37.683594 33.851562 37.644531 33.816406 L 35.929688 32.101562 C 35.855469 32.027344 35.855469 31.910156 35.929688 31.835938 C 36.003906 31.765625 36.121094 31.765625 36.195312 31.835938 " fill-opacity="1" fill-rule="nonzero"/></g></g></g></g><g clip-path="url(#d02dedc188)"><path fill="#737373" d="M 60.25 13.710938 L 57.332031 13.710938 L 57.332031 14.859375 L 60.25 14.859375 Z M 61.226562 16.308594 L 51.726562 16.308594 L 51.726562 17.453125 L 61.226562 17.453125 Z M 74.179688 18.90625 L 69.597656 18.90625 L 69.597656 20.050781 L 74.179688 20.050781 Z M 57.804688 21.503906 L 51.726562 21.503906 L 51.726562 22.648438 L 57.804688 22.648438 Z M 64.902344 24.101562 L 51.726562 24.101562 L 51.726562 25.246094 L 64.902344 25.246094 Z M 73.394531 25.246094 L 86.566406 25.246094 L 86.566406 24.101562 L 73.394531 24.101562 Z M 83.105469 31.890625 L 83.105469 33.039062 L 91.734375 33.039062 L 91.734375 31.890625 Z M 61.503906 33.039062 L 81.960938 33.039062 L 81.960938 31.890625 L 61.503906 31.890625 Z M 51.726562 35.636719 L 60.171875 35.636719 L 60.171875 34.488281 L 51.726562 34.488281 L 51.726562 35.636719 " fill-opacity="1" fill-rule="nonzero"/></g><g clip-path="url(#5cf7d6c2e1)"><path fill="#b4b4b4" d="M 78.164062 16.308594 L 68.664062 16.308594 L 68.664062 17.453125 L 78.164062 17.453125 Z M 68.449219 18.90625 L 51.726562 18.90625 L 51.726562 20.050781 L 68.449219 20.050781 Z M 65.859375 27.84375 L 77.351562 27.84375 L 77.351562 26.695312 L 65.859375 26.695312 Z M 60.355469 31.890625 L 51.726562 31.890625 L 51.726562 33.039062 L 60.355469 33.039062 Z M 76.507812 34.488281 L 76.507812 35.636719 L 78.972656 35.636719 L 78.972656 34.488281 Z M 57.019531 38.234375 L 76.605469 38.234375 L 76.605469 37.085938 L 57.019531 37.085938 L 57.019531 38.234375 " fill-opacity="1" fill-rule="nonzero"/></g><g clip-path="url(#dbe5545e45)"><path fill="#b4b4b4" d="M 45.644531 12.261719 L 46.792969 12.261719 L 46.792969 11.113281 L 45.644531 11.113281 Z M 45.644531 14.859375 L 46.792969 14.859375 L 46.792969 13.710938 L 45.644531 13.710938 Z M 67.515625 16.308594 L 62.375 16.308594 L 62.375 17.453125 L 67.515625 17.453125 Z M 45.644531 17.453125 L 46.792969 17.453125 L 46.792969 16.308594 L 45.644531 16.308594 Z M 45.644531 20.050781 L 46.792969 20.050781 L 46.792969 18.90625 L 45.644531 18.90625 Z M 71.5625 21.503906 L 58.949219 21.503906 L 58.949219 22.648438 L 71.5625 22.648438 Z M 45.644531 22.648438 L 46.792969 22.648438 L 46.792969 21.503906 L 45.644531 21.503906 Z M 45.644531 25.246094 L 46.792969 25.246094 L 46.792969 24.101562 L 45.644531 24.101562 Z M 64.714844 26.695312 L 51.726562 26.695312 L 51.726562 27.84375 L 64.714844 27.84375 Z M 45.644531 27.84375 L 46.792969 27.84375 L 46.792969 26.695312 L 45.644531 26.695312 Z M 45.644531 30.441406 L 46.792969 30.441406 L 46.792969 29.292969 L 45.644531 29.292969 Z M 45.644531 33.039062 L 46.792969 33.039062 L 46.792969 31.890625 L 45.644531 31.890625 Z M 61.316406 34.488281 L 61.316406 35.636719 L 75.363281 35.636719 L 75.363281 34.488281 Z M 45.644531 35.636719 L 46.792969 35.636719 L 46.792969 34.488281 L 45.644531 34.488281 Z M 51.726562 38.234375 L 55.875 38.234375 L 55.875 37.085938 L 51.726562 37.085938 Z M 45.644531 38.234375 L 46.792969 38.234375 L 46.792969 37.085938 L 45.644531 37.085938 Z M 45.644531 40.832031 L 46.792969 40.832031 L 46.792969 39.683594 L 45.644531 39.683594 Z M 48.777344 43.878906 L 49.335938 43.878906 L 49.335938 10.136719 L 48.777344 10.136719 L 48.777344 43.878906 " fill-opacity="1" fill-rule="nonzero"/></g><g clip-path="url(#4a9377007a)"><path fill="#737373" d="M 56.183594 13.710938 L 50.351562 13.710938 L 50.351562 14.859375 L 56.183594 14.859375 Z M 75.324219 18.90625 L 75.324219 20.050781 L 82.457031 20.050781 L 82.457031 18.90625 Z M 66.046875 25.246094 L 72.25 25.246094 L 72.25 24.101562 L 66.046875 24.101562 Z M 50.351562 30.441406 L 56.746094 30.441406 L 56.746094 29.292969 L 50.351562 29.292969 Z M 54.441406 39.683594 L 50.351562 39.683594 L 50.351562 40.832031 L 54.441406 40.832031 Z M 53.980469 12.785156 C 54.027344 12.785156 54.078125 12.769531 54.113281 12.734375 L 55.828125 11.015625 C 55.902344 10.945312 55.902344 10.824219 55.828125 10.753906 C 55.753906 10.679688 55.636719 10.679688 55.5625 10.753906 L 53.847656 12.46875 C 53.777344 12.542969 53.777344 12.660156 53.847656 12.734375 C 53.886719 12.769531 53.933594 12.785156 53.980469 12.785156 Z M 52.554688 12.835938 C 52.59375 12.871094 52.640625 12.890625 52.6875 12.890625 C 52.734375 12.890625 52.785156 12.871094 52.820312 12.835938 C 52.894531 12.761719 52.894531 12.644531 52.820312 12.570312 L 51.992188 11.742188 L 52.820312 10.914062 C 52.894531 10.839844 52.894531 10.722656 52.820312 10.652344 C 52.746094 10.578125 52.628906 10.578125 52.554688 10.652344 L 51.597656 11.609375 C 51.523438 11.683594 51.523438 11.800781 51.597656 11.875 Z M 57.171875 10.652344 C 57.097656 10.578125 56.980469 10.578125 56.910156 10.652344 C 56.835938 10.722656 56.835938 10.84375 56.910156 10.914062 L 57.738281 11.742188 L 56.910156 12.570312 C 56.835938 12.644531 56.835938 12.761719 56.910156 12.835938 C 56.945312 12.871094 56.992188 12.890625 57.039062 12.890625 C 57.089844 12.890625 57.136719 12.871094 57.171875 12.835938 L 58.132812 11.875 C 58.167969 11.839844 58.1875 11.792969 58.1875 11.742188 C 58.1875 11.691406 58.167969 11.644531 58.132812 11.609375 Z M 57.171875 41.734375 C 57.097656 41.660156 56.980469 41.660156 56.910156 41.734375 C 56.835938 41.808594 56.835938 41.925781 56.910156 42 L 57.738281 42.828125 L 56.910156 43.65625 C 56.835938 43.726562 56.835938 43.847656 56.910156 43.917969 C 56.945312 43.957031 56.992188 43.972656 57.039062 43.972656 C 57.089844 43.972656 57.136719 43.957031 57.171875 43.917969 L 58.132812 42.957031 C 58.167969 42.921875 58.1875 42.875 58.1875 42.828125 C 58.1875 42.777344 58.167969 42.730469 58.132812 42.695312 Z M 52.820312 41.734375 C 52.746094 41.660156 52.628906 41.660156 52.554688 41.734375 L 51.597656 42.695312 C 51.523438 42.765625 51.523438 42.886719 51.597656 42.957031 L 52.554688 43.917969 C 52.59375 43.953125 52.640625 43.972656 52.6875 43.972656 C 52.738281 43.972656 52.785156 43.957031 52.820312 43.917969 C 52.894531 43.847656 52.894531 43.726562 52.820312 43.65625 L 51.992188 42.828125 L 52.820312 42 C 52.894531 41.925781 52.894531 41.808594 52.820312 41.734375 Z M 55.5625 41.835938 L 53.847656 43.550781 C 53.777344 43.625 53.777344 43.742188 53.847656 43.816406 C 53.886719 43.851562 53.933594 43.871094 53.980469 43.871094 C 54.027344 43.871094 54.078125 43.851562 54.113281 43.816406 L 55.828125 42.101562 C 55.902344 42.027344 55.902344 41.910156 55.828125 41.835938 C 55.757812 41.765625 55.636719 41.765625 55.5625 41.835938 " fill-opacity="1" fill-rule="nonzero"/></g></g></g></svg>